<?xml version="1.0" encoding="UTF-8" standalone="no"?>
<svg
   xmlns:dc="http://purl.org/dc/elements/1.1/"
   xmlns:cc="http://creativecommons.org/ns#"
   xmlns:rdf="http://www.w3.org/1999/02/22-rdf-syntax-ns#"
   xmlns:svg="http://www.w3.org/2000/svg"
   xmlns="http://www.w3.org/2000/svg"
   xmlns:sodipodi="http://sodipodi.sourceforge.net/DTD/sodipodi-0.dtd"
   xmlns:inkscape="http://www.inkscape.org/namespaces/inkscape"
   version="1.0"
   width="1114.000000pt"
   height="652.000000pt"
   viewBox="0 0 1114.000000 652.000000"
   preserveAspectRatio="xMidYMid meet"
   id="svg34"
   sodipodi:docname="dial.svg"
   inkscape:version="0.92.3 (2405546, 2018-03-11)">
  <sodipodi:namedview
     pagecolor="#ffffff"
     bordercolor="#666666"
     borderopacity="1"
     objecttolerance="10"
     gridtolerance="10"
     guidetolerance="10"
     inkscape:pageopacity="0"
     inkscape:pageshadow="2"
     inkscape:window-width="3840"
     inkscape:window-height="2098"
     id="namedview36"
     showgrid="false"
     inkscape:snap-global="false"
     inkscape:zoom="1.5558547"
     inkscape:cx="793.90578"
     inkscape:cy="383.27699"
     inkscape:window-x="-8"
     inkscape:window-y="-8"
     inkscape:window-maximized="1"
     inkscape:current-layer="svg34" />
  <defs
     id="defs38">
    <marker
       inkscape:stockid="Arrow2Send"
       orient="auto"
       refY="0.0"
       refX="0.0"
       id="marker1244"
       style="overflow:visible;"
       inkscape:isstock="true">
      <path
         id="path1242"
         style="fill-rule:evenodd;stroke-width:0.625;stroke-linejoin:round;stroke:#000000;stroke-opacity:1;fill:#000000;fill-opacity:1"
         d="M 8.7185878,4.0337352 L -2.2072895,0.016013256 L 8.7185884,-4.0017078 C 6.9730900,-1.6296469 6.9831476,1.6157441 8.7185878,4.0337352 z "
         transform="scale(0.3) rotate(180) translate(-2.3,0)" />
    </marker>
    <marker
       inkscape:isstock="true"
       style="overflow:visible;"
       id="Arrow1Send"
       refX="0.0"
       refY="0.0"
       orient="auto"
       inkscape:stockid="Arrow1Send">
      <path
         transform="scale(0.2) rotate(180) translate(6,0)"
         style="fill-rule:evenodd;stroke:#000000;stroke-width:1pt;stroke-opacity:1;fill:#000000;fill-opacity:1"
         d="M 0.0,0.0 L 5.0,-5.0 L -12.5,0.0 L 5.0,5.0 L 0.0,0.0 z "
         id="path893" />
    </marker>
    <marker
       inkscape:isstock="true"
       style="overflow:visible;"
       id="Arrow1Lend"
       refX="0.0"
       refY="0.0"
       orient="auto"
       inkscape:stockid="Arrow1Lend">
      <path
         transform="scale(0.8) rotate(180) translate(12.5,0)"
         style="fill-rule:evenodd;stroke:#000000;stroke-width:1pt;stroke-opacity:1;fill:#000000;fill-opacity:1"
         d="M 0.0,0.0 L 5.0,-5.0 L -12.5,0.0 L 5.0,5.0 L 0.0,0.0 z "
         id="path881" />
    </marker>
  </defs>
  <metadata
     id="metadata2">
Created by potrace 1.15, written by Peter Selinger 2001-2017
<rdf:RDF>
  <cc:Work
     rdf:about="">
    <dc:format>image/svg+xml</dc:format>
    <dc:type
       rdf:resource="http://purl.org/dc/dcmitype/StillImage" />
  </cc:Work>
</rdf:RDF>
</metadata>
  <path
     style="fill:#000000;stroke:none;stroke-width:0.1"
     id="path2600"
     d="m 537.21811,28.84946 c -0.2,0.7 -0.9,4 -1.6,7.3 -0.7,3.3 -1.6,7.3 -2.1,8.9 -0.5,1.6 -0.9,4.1 -0.9,5.6 0,2.4 0.5,2.8 3.3,3.3 2.2,0.3 4,-0.2 5.6,-1.4 3.3,-2.6 5.6,-2.4 8.1,0.8 3.9,5 1.1,16.3 -3.9,16.3 -2.6,0 -5.9,-2.8 -6.3,-5.3 -0.3,-1.9 -0.8,-2.2 -4.3,-1.8 -2.2,0.1 -4.3,0.5 -4.6,0.7 -1.5,0.9 0.6,5.5 3.8,8.8 11,11 28.3,0.6 25.9,-15.6 -1.3,-8.8 -6.5,-13.6 -13.3,-12.3 -3.1,0.6 -3.3,0.4 -3.3,-2.3 0,-4.2 1.7,-5.2 8.7,-5.2 h 6.3 v -4.5 -4.5 h -10.5 c -7.6,0 -10.7,0.4 -10.9,1.2 z"
     inkscape:connector-curvature="0" />
  <path
     style="fill:#000000;stroke:none;stroke-width:0.1"
     id="path2602"
     d="m 370.21811,67.54946 c -8.5,12.7 -10.6,16.6 -10.6,19.5 v 3.5 l 9.8,0.3 9.7,0.3 0.3,4.7 0.3,4.8 h 4.4 4.4 l 0.3,-4.8 c 0.3,-4.3 0.5,-4.7 3.1,-5 2.3,-0.3 2.7,-0.8 2.7,-3.7 0,-2.9 -0.4,-3.4 -2.7,-3.7 l -2.8,-0.3 -0.3,-15.8 -0.3,-15.7 h -3.9 -3.9 z m 9.2,8.7 -0.3,6.9 -4.4,0.3 c -2.4,0.2 -4.8,-0.1 -5.3,-0.6 -0.5,-0.5 1.1,-3.8 3.9,-8 2.6,-4 5.1,-6.8 5.6,-6.3 0.4,0.4 0.7,3.9 0.5,7.7 z"
     inkscape:connector-curvature="0" />
  <path
     style="fill:#000000;stroke:none;stroke-width:0.1"
     id="path2604"
     d="m 701.6095,53.64946 c -3.1,1.6 -4.7,3.3 -6.5,7.2 -2.1,4.5 -2.4,6.5 -2.4,16.2 0.1,10.3 0.3,11.4 2.8,15.8 5.2,8.6 16.2,10.2 23.2,3.3 11,-11.1 -0.3,-31.4 -13.9,-25 -2,1 -4,1.5 -4.3,1.1 -1.1,-1.1 1.6,-9.9 3.7,-12 2.4,-2.5 6.7,-1.5 7.2,1.7 0.2,1.2 0.9,2.2 1.6,2.1 0.6,-0.1 2.6,-0.2 4.2,-0.3 2.5,-0.1 3,-0.5 3,-2.6 0,-1.4 -1.2,-3.8 -2.7,-5.5 -3.8,-4.1 -10.2,-4.9 -15.9,-2 z m 10.6,25.7 c 4,5.1 1.3,14.3 -4.1,14.3 -5.6,0 -8.8,-9.3 -4.9,-14.3 1.2,-1.6 3.1,-2.7 4.5,-2.7 1.4,0 3.3,1.1 4.5,2.7 z"
     inkscape:connector-curvature="0" />
  <path
     style="fill:#000000;stroke:none;stroke-width:0.1"
     id="path2606"
     d="m 544.41811,91.84946 c -0.1,0.2 -0.4,9.1 -0.7,19.8 l -0.6,19.5 -13.5,0.3 c -7.4,0.1 -13.9,0.7 -14.4,1.2 -0.6,0.6 -5.6,1 -11.2,1 -5.8,0 -10.6,0.4 -10.9,1 -0.3,0.5 -3.5,1 -7,1 -6.1,0 -6.4,-0.1 -7.9,-3.2 -0.9,-1.7 -1.6,-4.8 -1.6,-6.8 0,-2.3 -0.7,-4.3 -1.8,-5.3 -2.3,-2.1 -3.2,-2.1 -3.2,-0.2 0,0.8 0.5,1.5 1,1.5 0.6,0 1,1.9 1,4.3 0,2.4 0.5,4.8 1.1,5.4 0.6,0.6 0.9,2.1 0.7,3.4 -0.3,2.1 -0.9,2.4 -4.8,2.7 -2.5,0.2 -4.9,0.7 -5.4,1.3 -0.6,0.5 -2.5,0.9 -4.2,0.9 -1.8,0 -3.6,0.4 -3.9,1 -0.3,0.5 -2.6,1 -5,1 -2.4,0 -4.7,0.4 -5,1 -0.3,0.5 -2.1,1 -4,1 -1.9,0 -3.7,0.4 -4,1 -0.3,0.5 -2.1,1 -4,1 -1.9,0 -3.7,0.4 -4,1 -0.3,0.5 -2.1,1 -4,1 -1.9,0 -3.7,0.4 -4,1 -0.3,0.5 -1.6,1 -2.9,1 -1.2,0 -2.7,0.5 -3.3,1.1 -1.9,1.9 -5.8,0.6 -6.1,-2.1 -0.2,-1.4 -0.8,-2.9 -1.3,-3.4 -0.5,-0.6 -0.9,-2 -0.9,-3.2 0,-1.3 -0.4,-2.6 -1,-2.9 -0.5,-0.3 -1,-1.7 -1,-3 0,-1.3 -0.4,-2.7 -1,-3 -0.5,-0.3 -1,-1.7 -1,-3 0,-1.3 -0.4,-2.7 -1,-3 -0.5,-0.3 -1,-1.3 -1,-2.2 0,-2.7 -3.3,-9.3 -4.7,-9.3 -1.8,0 -2.8,4.9 -1.4,7.1 0.6,1 1.1,2.8 1.1,3.8 0,1.1 0.5,2.3 1,2.6 0.6,0.3 1,1.7 1,3 0,1.3 0.5,2.7 1,3 0.6,0.3 1,1.7 1,3 0,1.3 0.5,2.7 1,3 0.6,0.3 1,1.6 1,2.9 0,1.2 0.5,2.7 1.1,3.3 0.6,0.6 0.9,2.6 0.7,4.4 -0.3,3 -0.7,3.4 -3.6,3.7 -1.9,0.2 -4.9,1.2 -6.8,2.3 -1.9,1 -4.1,1.9 -4.9,1.9 -0.8,0 -3,0.9 -5,2 -2,1.1 -4.4,2 -5.5,2 -1,0 -2.2,0.4 -2.5,1 -0.3,0.5 -1.6,1 -2.9,1 -1.3,0 -3.1,0.9 -4.1,2 -1,1.1 -2.6,2 -3.5,2 -1,0 -5.2,1.8 -9.5,4 -4.3,2.2 -8.6,4 -9.6,4 -1.2,0 -2.7,-1.9 -4.5,-5.8 -2.9,-6 -5.2,-9.2 -6.6,-9.2 -1,0 -1.1,2.7 0,3.2 0.4,0.1 2.1,3.1 3.8,6.5 l 3.2,6.1 -2.7,2.5 c -1.4,1.3 -6,4 -10.3,6.1 -4.2,2 -8.2,4.3 -8.8,5.1 -0.7,0.8 -1.8,1.5 -2.5,1.5 -0.6,0 -2,0.9 -3,2 -1,1.1 -2.4,2 -3,2 -0.7,0 -1.8,0.7 -2.5,1.5 -0.7,0.9 -3.2,2.5 -5.5,3.5 -2.3,1 -4.8,2.6 -5.5,3.5 -0.7,0.8 -1.7,1.5 -2.3,1.5 -0.6,0 -2.6,1.5 -4.4,3.2 -3.7,3.6 -5.7,3.3 -7.9,-1.1 -0.6,-1.2 -2.3,-3.5 -3.8,-5 -1.4,-1.5 -2.6,-3.2 -2.6,-3.7 0,-0.6 -1.3,-2.3 -3,-3.9 -1.6,-1.6 -3,-3.4 -3,-3.9 -0.1,-1.3 -7.7,-9.6 -8.8,-9.6 -0.4,0 -1.2,0.8 -1.9,1.9 -1,1.6 -0.6,2.3 2.3,5.2 1.9,1.8 3.4,3.8 3.4,4.4 0,0.6 1.4,2.4 3,4 1.7,1.6 3,3.4 3,4 0,0.6 1.3,2.4 3,4 1.6,1.6 3,3.4 3,4 0,0.7 0.9,2 2,3 2.6,2.4 2.5,4.3 -0.3,5.4 -1.3,0.5 -2.9,1.6 -3.6,2.5 -0.7,0.9 -1.9,1.6 -2.5,1.6 -0.7,0 -2.5,1.3 -4.1,3 -1.6,1.6 -3.4,3 -4,3 -0.5,0 -6,4.9 -12,11 -6,6 -11.4,11 -12,11 -0.6,0 -2.9,1.8 -5,4 l -3.9,4 -6.6,-6.5 c -5.2,-5.1 -6.8,-6.3 -7.8,-5.3 -1,1 0.1,2.6 5.3,7.8 l 6.5,6.6 -7,6.9 c -3.8,3.8 -7,7.4 -7,8 0,0.6 -2.2,3.3 -5,6 -2.7,2.7 -5,5.4 -5,6 0,0.6 -2.2,3.3 -5,6 -2.8,2.7 -5,5.4 -5,6 0,0.7 -1.2,2.2 -2.6,3.6 -1.4,1.3 -3,3.4 -3.5,4.6 -1.1,2.8 -3,2.9 -5.4,0.3 -1,-1.1 -2.3,-2 -3,-2 -0.6,0 -2.4,-1.3 -4,-3 -1.6,-1.6 -3.4,-3 -4,-3 -0.6,0 -2.4,-1.3 -4,-3 -1.6,-1.7 -3.4,-3 -4,-3 -0.6,0 -2.6,-1.5 -4.4,-3.4 -2.9,-2.9 -3.6,-3.3 -5.2,-2.3 -1.1,0.7 -1.9,1.5 -1.9,1.9 0,1.1 8.3,8.7 9.6,8.8 0.5,0 2.3,1.3 3.9,3 1.6,1.6 3.4,3 4,3 0.6,0 2.4,1.3 4,3 1.6,1.7 3.4,3 4,3 0.7,0 2,0.9 3,2 1.6,1.8 1.6,2.2 0.2,5.2 -0.9,1.8 -2.7,4.4 -4.1,5.7 -1.4,1.4 -2.6,3 -2.6,3.6 0,0.7 -0.9,2 -2,3 -1.1,1 -2,2.4 -2,3 0,0.7 -0.7,1.8 -1.5,2.5 -0.8,0.7 -2.9,4.1 -4.5,7.6 -1.7,3.5 -3.5,6.6 -4,6.9 -0.5,0.3 -2.7,4.3 -5,8.9 -4.2,8.8 -6.3,11.5 -7.5,9.6 -0.3,-0.5 -1.5,-1 -2.5,-1 -1.1,0 -3.5,-0.9 -5.5,-2 -3.8,-2.1 -7,-2.6 -8,-1.1 -0.5,1 8.5,5.7 12,6.3 2.3,0.4 3.3,4.4 1.6,6.1 -0.6,0.6 -1.1,2.1 -1.1,3.2 0,1.2 -0.9,3 -2,4 -1.1,1 -2,2.6 -2,3.6 0,0.9 -1.4,4.3 -3,7.4 -1.7,3.1 -3,6.3 -3,7.1 0,0.7 -0.9,2.9 -2,4.9 -1.1,2 -2,4.4 -2,5.5 0,1 -0.5,2.2 -1,2.5 -0.6,0.3 -1,1.5 -1,2.5 0,1.1 -0.9,3.5 -1.9,5.3 -1.1,1.9 -2.1,4.5 -2.3,5.8 -0.2,1.9 -1,2.5 -3.7,2.7 -1.8,0.2 -3.8,-0.1 -4.4,-0.7 -0.6,-0.6 -2.1,-1.1 -3.3,-1.1 -1.3,0 -2.6,-0.5 -2.9,-1 -0.3,-0.6 -1.7,-1 -3,-1 -1.3,0 -2.7,-0.5 -3,-1 -0.3,-0.5 -1.7,-1 -3,-1 -1.3,0 -2.7,-0.5 -3,-1 -0.3,-0.6 -1.499997,-1 -2.599997,-1 -1,0 -2.8,-0.5 -3.8,-1.1 -2.2,-1.4 -7.1,-0.4 -7.1,1.4 0,1.4 6.6,4.7 9.3,4.7 0.9,0 1.9,0.4 2.2,1 0.3,0.5 1.699997,1 2.999997,1 1.3,0 2.7,0.4 3,1 0.3,0.5 1.7,1 3,1 1.3,0 2.7,0.4 3,1 0.3,0.5 1.6,1 2.9,1 1.2,0 2.6,0.4 3.1,0.9 0.6,0.5 2.1,1.1 3.5,1.3 2,0.2 2.6,0.9 2.8,3.7 0.2,1.8 -0.1,3.8 -0.7,4.4 -0.6,0.6 -1.1,2.1 -1.1,3.3 0,1.3 -0.4,2.6 -1,2.9 -0.5,0.3 -1,1.7 -1,3 0,1.3 -0.4,2.7 -1,3 -0.5,0.3 -1,2.1 -1,4 0,1.9 -0.4,3.7 -1,4 -0.5,0.3 -1,2.1 -1,4 0,1.9 -0.5,3.7 -1,4 -0.5,0.3 -1,2.6 -1,5 0,2.4 -0.4,4.7 -1,5 -0.5,0.3 -1,2.5 -1,4.9 0,2.3 -0.4,4.6 -0.9,5.1 -0.5,0.6 -1.1,2.6 -1.3,4.5 -0.3,3.9 -2.6,5 -6.2,3 -2.6,-1.3 -12.099997,-1 -12.099997,0.5 0,0.5 2,1.1 4.5,1.3 2.5,0.2 4.899997,0.7 5.399997,1.3 0.6,0.5 2.5,0.9 4.2,0.9 3.4,0 5.2,1.4 3.4,2.5 -0.5,0.3 -1,3 -1,6 0,3 -0.4,5.7 -1,6 -0.6,0.3 -1,5.1 -1,10.9 0,5.6 -0.4,10.6 -1,11.2 -0.5,0.5 -1.1,7 -1.2,14.4 l -0.3,13.5 -19.499997,0.6 c -10.7,0.3 -19.6,0.6 -19.7,0.7 -0.9,0.7 0,3.1 1.3,3.6 3.1,1.2 40.899997,0.7 42.199997,-0.6 0.8,-0.8 1.2,-5.7 1.2,-15.4 0,-8.5 0.4,-14.5 1,-14.9 0.6,-0.3 1,-5.2 1,-11 0,-5.8 0.4,-10.7 1,-11 0.6,-0.3 1,-3.5 1,-7 0,-3.5 0.5,-6.7 1,-7 0.6,-0.3 1,-3 1,-6 0,-3 0.5,-5.7 1,-6 0.6,-0.3 1,-3 1,-6 0,-3 0.4,-5.7 1,-6 0.5,-0.3 1,-2.1 1,-4 0,-1.9 0.5,-3.7 1,-4 0.6,-0.3 1,-2.1 1,-4 0,-1.9 0.5,-3.7 1,-4 0.6,-0.3 1,-2.1 1,-4 0,-1.9 0.5,-3.7 1,-4 0.6,-0.3 1,-2.1 1,-4 0,-1.9 0.4,-3.7 1,-4 0.5,-0.3 1,-1.7 1,-3 0,-1.3 0.5,-2.7 1,-3 0.6,-0.3 1,-1.7 1,-3 0,-1.3 0.5,-2.7 1,-3 0.5,-0.3 1,-1.9 1,-3.5 0,-1.6 0.9,-4.5 2,-6.5 1.1,-2 2,-4.4 2,-5.5 0,-1 0.4,-2.2 1,-2.5 0.5,-0.3 1,-1.7 1,-3 0,-1.3 0.5,-2.7 1,-3 0.6,-0.3 1,-1.4 1,-2.5 0,-1 1.4,-4.4 3,-7.5 1.7,-3.1 3,-6.2 3,-6.9 0,-1.5 18.4,-38.2 20.2,-40.4 0.8,-0.9 3.1,-5.1 5.2,-9.4 2,-4.2 4.3,-8.2 5.1,-8.8 0.8,-0.7 1.5,-1.8 1.5,-2.4 0,-0.7 1.3,-2.5 3,-4.1 1.6,-1.6 3,-3.4 3,-4.1 0,-0.6 0.7,-1.7 1.5,-2.4 0.9,-0.7 2.4,-3.2 3.5,-5.4 1,-2.3 3,-5.2 4.4,-6.5 1.4,-1.4 2.6,-3 2.6,-3.6 0,-0.6 1.4,-2.4 3,-4 1.7,-1.6 3,-3.4 3,-4 0,-0.6 2.2,-3.3 5,-6 2.7,-2.7 5,-5.4 5,-6 0,-0.6 2.2,-3.3 5,-6 2.8,-2.7 5,-5.4 5,-6 0,-1.3 23.2,-24.5 24.5,-24.5 0.6,0 6,-5 12,-11 6,-6.1 11.5,-11 12,-11 0.6,0 2.4,-1.4 4,-3 1.6,-1.7 3.4,-3 4,-3 0.7,0 2,-0.9 3,-2 1,-1.1 2.3,-2 3,-2 0.6,0 2.4,-1.4 4,-3 1.6,-1.7 3.4,-3 4,-3 0.6,0 2.4,-1.4 4,-3 1.6,-1.7 3.4,-3 4.1,-3 0.6,0 1.7,-0.7 2.4,-1.5 0.7,-0.9 3.2,-2.5 5.5,-3.5 2.3,-1 4.8,-2.6 5.5,-3.5 0.7,-0.8 1.8,-1.5 2.5,-1.5 0.6,0 2,-0.9 3,-2 1,-1.1 2.4,-2 3,-2 0.7,0 1.8,-0.7 2.5,-1.5 0.7,-0.8 4.9,-3.3 9.5,-5.5 4.6,-2.2 8.8,-4.7 9.5,-5.5 0.7,-0.8 2,-1.5 3,-1.5 0.9,0 6.1,-2.3 11.5,-5 5.4,-2.8 10.6,-5 11.5,-5 0.9,0 2.5,-0.9 3.5,-2 1,-1.1 2.8,-2 4.1,-2 1.3,0 2.6,-0.5 2.9,-1 0.3,-0.6 1.5,-1 2.5,-1 1.1,0 3.5,-0.9 5.5,-2 2,-1.1 4.2,-2 5,-2 0.8,0 3,-0.9 5,-2 2,-1.1 4.7,-2 6,-2 1.3,0 4,-0.9 6,-2 2,-1.1 4.9,-2 6.5,-2 1.6,0 3.2,-0.5 3.5,-1 0.3,-0.6 1.7,-1 3,-1 1.3,0 2.7,-0.5 3,-1 0.3,-0.6 2.1,-1 4,-1 1.9,0 3.7,-0.5 4,-1 0.3,-0.6 2.1,-1 4,-1 1.9,0 3.7,-0.5 4,-1 0.3,-0.6 2.1,-1 4,-1 1.9,0 3.7,-0.5 4,-1 0.3,-0.6 2.6,-1 5,-1 2.4,0 4.7,-0.5 5,-1 0.3,-0.6 2.1,-1 4,-1 1.9,0 3.7,-0.5 4,-1 0.3,-0.6 3.5,-1 7,-1 3.5,0 6.7,-0.5 7,-1 0.3,-0.6 3.5,-1 7,-1 3.5,0 6.7,-0.5 7,-1 0.3,-0.6 5.2,-1 11,-1 5.8,0 10.7,-0.4 11,-1 0.4,-0.6 11.2,-1 29,-1 17.8,0 28.6,0.4 29,1 0.3,0.6 5.2,1 11,1 5.8,0 10.7,0.4 11,1 0.3,0.5 3.5,1 7,1 3.5,0 6.7,0.4 7,1 0.3,0.5 3.5,1 7,1 3.5,0 6.7,0.4 7,1 0.3,0.5 2.1,1 4,1 1.9,0 3.7,0.4 4,1 0.3,0.5 2.6,1 5,1 2.4,0 4.7,0.4 5,1 0.3,0.5 2.1,1 4,1 1.9,0 3.7,0.4 4,1 0.3,0.5 2.1,1 4,1 1.9,0 3.7,0.4 4,1 0.3,0.5 2.1,1 4,1 1.9,0 3.7,0.4 4,1 0.3,0.5 1.7,1 3,1 1.3,0 2.7,0.4 3,1 0.3,0.5 1.9,1 3.5,1 1.6,0 4.5,0.9 6.5,2 2,1.1 4.7,2 6,2 1.3,0 4,0.9 6,2 2,1.1 4.2,2 5,2 0.8,0 3,0.9 5,2 2,1.1 4.4,2 5.5,2 1,0 2.2,0.4 2.5,1 0.3,0.5 1.6,1 2.9,1 1.3,0 3.1,0.9 4.1,2 1,1.1 2.6,2 3.5,2 0.9,0 6.1,2.2 11.5,5 5.4,2.7 10.6,5 11.5,5 1,0 2.3,0.7 3,1.5 0.7,0.8 4.1,2.9 7.6,4.5 3.5,1.7 6.6,3.5 6.9,4 0.4,0.6 2.5,1.9 4.9,3 2.3,1 4.9,2.6 5.6,3.5 0.7,0.8 1.8,1.5 2.5,1.5 0.6,0 2,0.9 3,2 1,1.1 2.4,2 3,2 0.7,0 1.8,0.7 2.5,1.5 0.7,0.9 3.2,2.4 5.4,3.5 2.3,1 5.2,3 6.5,4.4 1.4,1.4 3,2.6 3.6,2.6 0.6,0 2.4,1.3 4,3 1.6,1.6 3.4,3 4,3 0.6,0 2.9,1.8 5,4 2.1,2.2 4.4,4 5,4 0.6,0 2.9,1.8 5,4 2.1,2.2 4.4,4 4.9,4 1.4,0 48.6,47.2 48.6,48.5 0,0.6 2.3,3.3 5,6 2.8,2.7 5,5.4 5,6 0,0.6 1.4,2.4 3,4 1.7,1.6 3,3.4 3,4 0,0.7 0.9,2 2,3 1.1,1 2,2.3 2,3 0,0.6 1.4,2.4 3,4 1.7,1.6 3,3.4 3,4 0,0.6 1.4,2.4 3,4 1.7,1.6 3,3.4 3,4.1 0,0.6 0.7,1.7 1.5,2.4 0.9,0.7 2.5,3.3 3.5,5.6 1.1,2.4 2.4,4.6 3,4.9 0.6,0.3 1.9,2.6 3,5 1.1,2.4 2.4,4.6 2.9,4.9 0.5,0.4 2.6,4.1 4.7,8.4 2.1,4.2 4.4,8.5 5.2,9.4 2.2,2.6 6.2,10.9 6.2,12.8 0,0.9 0.9,2.5 2,3.5 1.1,1 2,2.6 2,3.6 0,0.9 1.4,4.3 3,7.4 1.7,3.1 3,6.3 3,7.1 0,0.7 0.9,2.9 2,4.9 1.1,2 2,4.4 2,5.5 0,1 0.5,2.2 1,2.5 0.6,0.3 1,1.5 1,2.5 0,1.1 0.9,3.5 2,5.5 1.1,2 2,4.4 2,5.5 0,1 0.5,2.2 1,2.5 0.6,0.3 1,1.7 1,3 0,1.3 0.5,2.7 1,3 0.6,0.3 1,2.1 1,4 0,1.9 0.5,3.7 1,4 0.6,0.3 1,1.7 1,3 0,1.3 0.5,2.7 1,3 0.6,0.3 1,1.7 1,3 0,1.3 0.5,2.7 1,3 0.6,0.3 1,2.1 1,4 0,1.9 0.5,3.7 1,4 0.6,0.3 1,2.1 1,4 0,1.9 0.5,3.7 1,4 0.6,0.3 1,2.6 1,5 0,2.4 0.5,4.7 1,5 0.6,0.3 1,2.6 1,5 0,2.4 0.5,4.7 1,5 0.6,0.3 1,3.5 1,7 0,3.5 0.5,6.7 1,7 0.6,0.3 1,3 1,6 0,3 0.5,5.7 1,6 0.6,0.3 1,5.2 1,11 0,5.8 0.4,10.7 1,11 0.6,0.4 1,6.4 1,14.9 0,9.7 0.4,14.6 1.2,15.4 1.3,1.3 39.09999,1.8 42.19999,0.6 1.3,-0.5 2.2,-2.9 1.4,-3.6 -0.2,-0.1 -9.1,-0.4 -19.8,-0.7 l -19.49999,-0.6 -0.3,-13.5 c -0.1,-7.4 -0.7,-13.9 -1.2,-14.4 -0.6,-0.6 -1,-5.6 -1,-11.2 0,-5.8 -0.4,-10.6 -1,-10.9 -0.5,-0.3 -1,-3 -1,-6 0,-3 -0.5,-5.7 -1,-6 -1.8,-1.1 0,-2.5 3.4,-2.5 1.7,0 3.6,-0.4 4.2,-0.9 0.5,-0.6 2.9,-1.1 5.4,-1.3 2.5,-0.2 4.49999,-0.8 4.49999,-1.3 0,-1.5 -9.49999,-1.8 -12.09999,-0.5 -3.6,2 -5.9,0.9 -6.2,-3 -0.2,-1.9 -0.8,-3.9 -1.3,-4.5 -0.5,-0.5 -0.9,-2.8 -0.9,-5.1 0,-2.4 -0.4,-4.6 -1,-4.9 -0.5,-0.3 -1,-2.6 -1,-5 0,-2.4 -0.4,-4.7 -1,-5 -0.5,-0.3 -1,-2.1 -1,-4 0,-1.9 -0.4,-3.7 -1,-4 -0.5,-0.3 -1,-2.1 -1,-4 0,-1.9 -0.4,-3.7 -1,-4 -0.5,-0.3 -1,-1.7 -1,-3 0,-1.3 -0.4,-2.7 -1,-3 -0.5,-0.3 -1,-1.6 -1,-2.9 0,-1.2 -0.5,-2.7 -1.1,-3.3 -0.6,-0.6 -0.9,-2.6 -0.7,-4.4 0.2,-2.8 0.8,-3.5 2.8,-3.7 1.4,-0.2 2.9,-0.8 3.5,-1.3 0.5,-0.5 1.9,-0.9 3.1,-0.9 1.3,0 2.6,-0.5 2.9,-1 0.3,-0.6 1.7,-1 3,-1 1.3,0 2.7,-0.5 3,-1 0.3,-0.6 1.7,-1 3,-1 1.3,0 2.7,-0.5 3,-1 0.3,-0.6 1.3,-1 2.2,-1 2.7,0 9.29999,-3.3 9.29999,-4.7 0,-1.8 -4.89999,-2.8 -7.09999,-1.4 -1,0.6 -2.8,1.1 -3.8,1.1 -1.1,0 -2.3,0.4 -2.6,1 -0.3,0.5 -1.7,1 -3,1 -1.3,0 -2.7,0.4 -3,1 -0.3,0.5 -1.7,1 -3,1 -1.3,0 -2.7,0.4 -3,1 -0.3,0.5 -1.6,1 -2.9,1 -1.2,0 -2.7,0.5 -3.3,1.1 -0.6,0.6 -2.6,0.9 -4.4,0.7 -2.7,-0.2 -3.5,-0.8 -3.7,-2.7 -0.2,-1.3 -1.2,-3.9 -2.3,-5.8 -1,-1.8 -1.9,-4.2 -1.9,-5.3 0,-1 -0.4,-2.2 -1,-2.5 -0.5,-0.3 -1,-1.5 -1,-2.5 0,-1.1 -0.9,-3.5 -2,-5.5 -1.1,-2 -2,-4.2 -2,-4.9 0,-0.8 -1.3,-4 -3,-7.1 -1.6,-3.1 -3,-6.5 -3,-7.4 0,-1 -0.9,-2.6 -2,-3.6 -1.1,-1 -2,-2.8 -2,-4.1 0,-1.3 -0.4,-2.6 -1,-2.9 -2.2,-1.4 -1,-5.3 2.2,-6.9 1.7,-0.9 3.6,-1.6 4.3,-1.6 2.2,0 7.5,-3.1 7,-4.1 -0.8,-1.2 -5.2,-1.2 -6,0.1 -0.3,0.5 -1.5,1 -2.5,1 -1.1,0 -3.5,0.9 -5.4,1.9 -4.2,2.4 -4.6,2.1 -10,-9.1 -2.1,-4.3 -4.2,-8 -4.7,-8.4 -0.5,-0.3 -1.8,-2.5 -2.9,-4.9 -1.1,-2.4 -2.4,-4.7 -3,-5 -0.6,-0.3 -1.9,-2.5 -3,-4.9 -1,-2.3 -2.6,-4.9 -3.5,-5.6 -0.8,-0.7 -1.5,-1.8 -1.5,-2.4 0,-0.7 -1.2,-2.3 -2.6,-3.7 -1.4,-1.3 -3.2,-3.9 -4.1,-5.7 -1.4,-3 -1.4,-3.4 0.2,-5.2 1,-1.1 2.3,-2 3,-2 0.6,0 2.4,-1.3 4,-3 1.6,-1.7 3.4,-3 4,-3 0.6,0 2.4,-1.3 4,-3 1.6,-1.6 3.4,-3 3.9,-3 1.3,-0.1 9.6,-7.7 9.6,-8.8 0,-0.4 -0.8,-1.2 -1.9,-1.9 -1.6,-1 -2.3,-0.6 -5.2,2.3 -1.8,1.9 -3.8,3.4 -4.4,3.4 -0.6,0 -2.4,1.3 -4,3 -1.6,1.7 -3.4,3 -4,3 -0.6,0 -2.4,1.3 -4,3 -1.6,1.7 -3.3,3 -3.9,3 -0.5,0 -2,1 -3.3,2.2 -2.7,2.5 -4.9,1.8 -6.9,-2.1 -0.6,-1.2 -2.3,-3.5 -3.8,-5 -1.4,-1.5 -2.6,-3.2 -2.6,-3.7 0,-0.5 -2.2,-3.2 -5,-5.9 -2.7,-2.7 -5,-5.4 -5,-6 0,-0.6 -4.9,-6 -11,-12 -6,-6 -11,-11.4 -11,-12 0,-0.5 3,-3.9 6.6,-7.6 5.3,-5.3 6.3,-6.8 5.1,-7.7 -1,-0.9 -2.7,0.2 -7.7,5.3 -3.6,3.6 -6.9,6.5 -7.5,6.5 -0.6,0 -6,-5 -12,-11 -6,-6.1 -11.4,-11 -12,-11 -0.6,0 -2.9,-1.8 -5,-4 -2.1,-2.2 -4.4,-4 -4.9,-4 -0.6,0 -2.7,-1.6 -4.7,-3.6 -2,-2 -4.7,-4.1 -6,-4.8 -3.9,-2 -4.6,-4.2 -2.1,-6.9 1.2,-1.3 2.2,-2.8 2.2,-3.3 0,-0.6 1.4,-2.3 3,-3.9 1.7,-1.6 3,-3.4 3,-4 0,-0.6 1.4,-2.4 3,-4 1.7,-1.6 3,-3.4 3,-4 0,-0.6 1.5,-2.6 3.4,-4.4 2.9,-2.9 3.3,-3.6 2.3,-5.2 -0.7,-1.1 -1.5,-1.9 -1.9,-1.9 -1.1,0 -8.7,8.3 -8.8,9.6 0,0.5 -1.3,2.3 -3,3.9 -1.6,1.6 -3,3.3 -3,3.9 0,0.5 -1.2,2.2 -2.6,3.7 -1.5,1.5 -3.2,3.8 -3.8,5 -1.9,3.8 -4.2,4.6 -6.8,2.3 -1.3,-1.1 -3.9,-2.8 -5.9,-3.7 -2,-0.9 -4.2,-2.3 -4.9,-3.2 -0.7,-0.8 -1.8,-1.5 -2.4,-1.5 -0.7,0 -2.3,-1.2 -3.7,-2.6 -1.3,-1.4 -5.2,-3.9 -8.6,-5.5 -3.4,-1.6 -6.5,-3.4 -6.8,-3.9 -0.4,-0.6 -2.6,-1.9 -5,-3 -2.4,-1.1 -4.7,-2.4 -5,-3 -0.3,-0.6 -2.6,-1.9 -5.1,-3 -2.4,-1.1 -4.4,-2.4 -4.4,-2.9 0,-0.5 1.4,-3.5 3,-6.7 3,-5.5 3.6,-9.9 1.5,-9.9 -0.5,0 -1.1,0.9 -1.3,2 -0.5,2.9 -5,12.1 -6.6,13.4 -1,0.8 -1.6,0.8 -2.6,-0.4 -1.4,-1.7 -6.7,-4.5 -8.5,-4.5 -0.7,0 -4.7,-1.8 -9,-4 -4.3,-2.2 -8.4,-4 -9.1,-4 -0.7,0 -2.9,-0.9 -4.9,-2 -2,-1.1 -4.2,-2 -5,-2 -0.8,0 -3,-0.9 -5,-2 -2,-1.1 -4.4,-2 -5.3,-2 -1,0 -2.2,-0.4 -2.7,-0.9 -0.6,-0.5 -2.1,-1.1 -3.5,-1.3 -2,-0.2 -2.6,-0.9 -2.8,-3.7 -0.2,-1.8 0.1,-3.8 0.7,-4.4 0.6,-0.6 1.1,-2.1 1.1,-3.3 0,-1.3 0.5,-2.6 1,-2.9 0.6,-0.3 1,-1.7 1,-3 0,-1.3 0.5,-2.7 1,-3 0.6,-0.3 1,-1.7 1,-3 0,-1.3 0.5,-2.7 1,-3 0.6,-0.3 1,-1.5 1,-2.6 0,-1 0.5,-2.8 1.1,-3.8 1.4,-2.2 0.4,-7.1 -1.4,-7.1 -1.4,0 -4.7,6.6 -4.7,9.3 0,0.9 -0.4,1.9 -1,2.2 -0.5,0.3 -1,1.7 -1,3 0,1.3 -0.4,2.7 -1,3 -0.5,0.3 -1,1.7 -1,3 0,1.3 -0.4,2.7 -1,3 -0.5,0.3 -1,1.6 -1,2.9 0,1.2 -0.4,2.6 -0.9,3.2 -0.5,0.5 -1.1,2 -1.3,3.4 -0.3,2.7 -4.2,4 -6.1,2.1 -0.6,-0.6 -2.6,-1.1 -4.3,-1.1 -1.8,0 -3.6,-0.5 -3.9,-1 -0.3,-0.6 -2.1,-1 -4,-1 -1.9,0 -3.7,-0.5 -4,-1 -0.3,-0.6 -2.1,-1 -4,-1 -1.9,0 -3.7,-0.5 -4,-1 -0.3,-0.6 -2.1,-1 -4,-1 -1.9,0 -3.7,-0.5 -4,-1 -0.3,-0.6 -2.1,-1 -4,-1 -1.9,0 -3.7,-0.5 -4,-1 -0.3,-0.6 -2.5,-1 -4.9,-1 -2.3,0 -4.6,-0.4 -5.1,-0.9 -0.6,-0.5 -2.6,-1.1 -4.5,-1.3 -3,-0.3 -3.5,-0.7 -3.8,-3.2 -0.2,-1.6 0.2,-3.9 0.8,-5.1 1.3,-2.5 1,-9.5 -0.5,-9.5 -0.5,0 -1.1,1.7 -1.3,3.7 -0.1,2.1 -0.7,4.7 -1.2,5.8 -0.5,1.1 -1,2.9 -1.2,4 -0.3,1.8 -1.2,2 -7.7,2.3 -4.2,0.2 -7.9,-0.2 -8.5,-0.8 -0.5,-0.5 -5.4,-1 -11.1,-1 -5.6,0 -10.5,-0.4 -11.1,-1 -0.5,-0.5 -6.6,-1.1 -13.4,-1.2 l -12.5,-0.3 -0.6,-19.5 c -0.3,-10.7 -0.6,-19.6 -0.7,-19.8 -0.1,-0.1 -0.9,-0.2 -1.7,-0.2 -0.8,0 -1.6,0.1 -1.7,0.2 z"
     inkscape:connector-curvature="0" />
  <path
     style="fill:#000000;stroke:none;stroke-width:0.1"
     id="path2608"
     d="m 233.48692,128.93012 c -5.2,1.6 -9.7,9.2 -6,10.3 5.5,1.8 6.6,1.6 7.9,-1.1 1.6,-3.3 4,-4 6.2,-1.8 2.8,2.8 1.5,8.2 -2.2,9.7 -0.5,0.1 -1.2,2 -1.6,4.1 -0.7,3.5 -0.5,3.8 1.1,3.3 3.1,-1 5.5,1.6 6,6.5 0.4,3.5 0.1,5 -1.7,7.1 -1.2,1.6 -2.9,2.8 -3.9,2.8 -2.6,0 -6.1,-2.9 -6.1,-5 0,-2.6 -0.8,-2.9 -5.5,-2.1 -3.5,0.6 -4,0.9 -3.7,3.1 0.2,1.4 2.1,4.3 4.3,6.5 3.8,3.8 4.2,4 10.4,4 6.1,0 6.6,-0.2 10.4,-3.9 3.1,-3 4.2,-5 4.7,-8.4 0.8,-5.4 -1.4,-10.7 -5.1,-12.4 -3.2,-1.4 -3.2,-2.7 0.3,-5.4 2.2,-1.8 2.7,-3 2.7,-6.8 0,-3.7 -0.5,-5.1 -3,-7.6 -3.4,-3.4 -9.8,-4.6 -15.2,-2.9 z"
     inkscape:connector-curvature="0" />
  <path
     style="fill:#000000;stroke:none;stroke-width:0.1"
     id="path2610"
     d="m 834.73102,126.19463 v 4.5 h 9.8 c 5.4,0 10.1,0.3 10.5,0.6 0.3,0.4 -0.6,2.5 -2.2,4.8 -5.5,8.1 -9.8,18.3 -11.1,26.6 -0.4,2.5 -0.9,5.2 -1.1,6 -0.3,1.1 0.7,1.6 4.2,1.8 l 4.6,0.3 1.1,-6.8 c 0.5,-3.7 1.5,-8.6 2.1,-10.8 1.3,-5.3 8.8,-19.9 11.2,-22.1 1.2,-1.1 1.9,-3 1.9,-5.6 v -3.8 h -15.5 -15.5 z"
     inkscape:connector-curvature="0" />
  <path
     style="fill:#000000;stroke:none;stroke-width:0.1"
     id="path2612"
     d="m 114.99765,251.75058 c -4,1.8 -4.8,2.8 -6.4,8.3 -1,3.3 -0.7,3.5 4.4,3.9 3.5,0.4 3.9,0.1 4.3,-2.1 0.4,-2.6 2.8,-5 5,-5 2.1,0 5.3,3.8 5.3,6.4 0,4.5 -2,7.8 -9.4,15.5 -4,4.2 -8.2,9.2 -9.4,11.1 -2.2,3.7 -3.2,8.3 -1.9,8.7 0.4,0.2 7.2,0.3 15.2,0.3 h 14.5 v -4.5 -4.5 h -8.4 c -5,0 -8.8,-0.4 -9.1,-1.1 -0.4,-0.6 2.9,-4.5 7.3,-8.7 8.8,-8.4 10.9,-12.9 9.7,-20.2 -1.4,-8.4 -11.7,-12.4 -21.1,-8.1 z"
     inkscape:connector-curvature="0" />
  <path
     style="fill:#000000;stroke:none;stroke-width:0.1"
     id="path2614"
     d="m 959.65255,239.20218 c -1.2,0.3 -3.4,1.8 -5,3.5 -2.4,2.5 -2.8,3.8 -2.8,8.5 0,5 0.3,5.9 2.9,8.1 l 2.9,2.5 -2.7,2 c -3.1,2.3 -5.7,6.7 -5.7,9.7 0,4 3.2,10.2 6.1,11.7 4.9,2.5 11.4,2.9 16.5,0.9 3.7,-1.4 5,-2.5 6.5,-5.9 1,-2.2 1.9,-5.1 1.9,-6.4 0,-3.3 -2.5,-7.7 -5.7,-10 l -2.7,-2 2.9,-2.5 c 2.6,-2.2 2.9,-3.1 2.9,-8.1 0,-4.9 -0.3,-6 -3,-8.6 -2.3,-2.4 -4.1,-3.1 -7.9,-3.4 -2.8,-0.3 -6,-0.2 -7.1,0 z m 8,8 c 3.2,3.2 1.1,11.4 -2.9,11.4 -2.4,0 -4.5,-3 -4.5,-6.5 0,-3.5 2.1,-6.5 4.5,-6.5 0.7,0 2.1,0.7 2.9,1.6 z m 1.3,20.6 c 1.3,1.2 2.3,3.3 2.3,4.8 0,3.6 -3.6,8 -6.5,8 -2.9,0 -6.5,-4.3 -6.5,-7.8 0,-3.1 3.6,-7.2 6.4,-7.2 1.1,0 3,1 4.3,2.2 z"
     inkscape:connector-curvature="0" />
  <path
     style="fill:#000000;stroke:none;stroke-width:0.1"
     id="path2616"
     d="m 60.000894,401.48502 c -1.8,2.2 -5.1,4.9 -7.3,6 -3.4,1.8 -3.9,2.5 -3.9,5.5 v 3.6 l 3.3,-1.7 c 1.7,-0.9 4,-2.3 4.9,-3.1 3.3,-2.9 3.8,-0.7 3.8,17.3 v 17.4 h 4.5 4.5 v -24.5 -24.5 h -3.2 c -2.6,0 -4,0.9 -6.6,4 z"
     inkscape:connector-curvature="0" />
  <path
     style="fill:#000000;stroke:none;stroke-width:0.1"
     id="path2618"
     d="m 1029.8386,393.75383 c -4,0.8 -9,6.7 -9.7,11.6 -1.9,12.5 8,21.9 17.9,17.2 2,-1 4,-1.5 4.3,-1.1 1.1,1.1 -1.6,9.9 -3.7,12 -2.4,2.5 -6.7,1.5 -7.2,-1.7 -0.2,-1.2 -0.9,-2.2 -1.5,-2.1 -0.7,0.1 -2.6,0.2 -4.3,0.2 -2.5,0.2 -3,0.6 -3,2.7 0,4 4.8,8.5 9.7,9.2 6.6,0.9 12.4,-2.4 15.4,-8.9 2.1,-4.5 2.4,-6.5 2.4,-16.2 -0.1,-10.3 -0.3,-11.4 -2.8,-15.8 -3.8,-6.3 -9.4,-8.6 -17.5,-7.1 z m 8.8,8.1 c 3.2,2.6 3.8,9 1,12.4 -4.6,6 -11.6,1.3 -10.7,-7.1 0.7,-6.7 5.1,-9 9.7,-5.3 z"
     inkscape:connector-curvature="0" />
  <path
     style="fill:#000000;stroke:none;stroke-width:0.1"
     id="path2620"
     d="m 544.61811,522.74946 c 0,27.1 -0.1,49.3 -0.3,49.6 -0.3,0.2 -22.5,0.3 -49.6,0.3 -43.5,0 -49.1,0.1 -49.1,1.5 0,1.4 5.6,1.5 49.1,1.5 27.1,0 49.3,0.1 49.6,0.3 0.2,0.3 0.4,17.2 0.3,37.6 0,32.8 0.1,37.1 1.5,37.1 1.4,0 1.5,-4.3 1.5,-37.1 -0.1,-20.4 0.1,-37.3 0.3,-37.6 0.3,-0.2 22.1,-0.3 48.6,-0.3 42.6,0 48.1,-0.1 48.1,-1.5 0,-1.4 -5.5,-1.5 -48.1,-1.5 -26.5,0 -48.3,-0.1 -48.6,-0.3 -0.2,-0.3 -0.3,-22.5 -0.3,-49.6 0,-43.5 -0.1,-49.1 -1.5,-49.1 -1.4,0 -1.5,5.6 -1.5,49.1 z"
     inkscape:connector-curvature="0" />
  <path
     style="fill:#000000;stroke:none;stroke-width:0.1"
     id="path2622"
     d="m 27.165398,551.6388 c -2.9,0.8 -6.5,4.3 -8.2,8.3 -2.5,5.5 -2.3,26.2 0.3,31.4 2.9,6 6.5,8.1 13.4,8.1 4.9,-0.1 6.4,-0.5 8.5,-2.5 4.8,-4.5 5.8,-8.4 5.8,-21.5 0,-13 -1,-17.1 -5.6,-21.3 -2.4,-2.3 -10,-3.7 -14.2,-2.5 z m 8.4,8.2 c 2.5,2.5 3.6,10.9 2.8,21.5 -0.5,6.6 -1,8.4 -2.8,9.8 -6.9,5.7 -10.9,-3.5 -9.6,-21.6 0.5,-6.6 1,-8.4 2.8,-9.9 2.7,-2.2 4.4,-2.2 6.8,0.2 z"
     inkscape:connector-curvature="0" />
  <path
     style="fill:#000000;stroke:none;stroke-width:0.1"
     id="path2624"
     d="m 1051.3848,551.08701 c -1.8,2.2 -5.1,4.9 -7.3,6 -3.4,1.8 -3.9,2.5 -3.9,5.5 v 3.6 l 3.3,-1.7 c 1.7,-0.9 4,-2.3 4.9,-3.1 3.3,-2.9 3.8,-0.7 3.8,17.3 v 17.4 h 4.5 4.5 v -24.5 -24.5 h -3.2 c -2.6,0 -4,0.9 -6.6,4 z"
     inkscape:connector-curvature="0" />
  <path
     style="fill:#000000;stroke:none;stroke-width:0.1"
     id="path2626"
     d="m 1086.6848,547.78701 c -2.9,0.8 -6.5,4.3 -8.2,8.3 -2.5,5.5 -2.3,26.2 0.3,31.4 2.9,6 6.5,8.1 13.4,8.1 4.9,-0.1 6.4,-0.5 8.5,-2.5 4.8,-4.5 5.8,-8.4 5.8,-21.5 0,-13 -1,-17.1 -5.6,-21.3 -2.4,-2.3 -10,-3.7 -14.2,-2.5 z m 8.4,8.2 c 2.5,2.5 3.6,10.9 2.8,21.5 -0.5,6.6 -1,8.4 -2.8,9.8 -6.9,5.7 -10.9,-3.5 -9.6,-21.6 0.5,-6.6 1,-8.4 2.8,-9.9 2.7,-2.2 4.4,-2.2 6.8,0.2 z"
     inkscape:connector-curvature="0" />
  <path
     inkscape:connector-curvature="0"
     id="path10"
     d="m 544.33789,89.001953 c -5.87916,-0.609102 -6.44476,6.551821 -5.7168,10.623047 -0.57635,9.62562 -0.62195,19.30134 -1.0039,28.94531 -11.42803,-0.40052 -22.84631,1.35594 -34.06036,2.37524 -7.68385,-0.83824 -14.95766,2.59002 -22.52949,1.97047 -2.87966,-2.83811 -1.10772,-8.29677 -3.46289,-11.84766 -1.5232,-4.69692 -9.7292,-7.36058 -11.30859,-1.38672 -1.06051,3.88602 2.45331,6.72247 1.99609,10.57617 0.34918,2.32041 2.6531,5.79905 -1.41992,4.77539 -4.0111,0.40362 -7.55058,2.46698 -11.66601,2.61524 -4.34243,1.88174 -9.43799,1.34283 -13.8418,3.28125 -4.47642,0.47955 -8.63915,2.51941 -13.00781,3.17187 -5.17708,1.2503 -10.7735,2.65814 -15.41602,4.5586 -2.05696,-6.01512 -3.66347,-12.29232 -6.15625,-18.25391 -1.79111,-5.29837 -2.91802,-11.82017 -7.06445,-16.1543 -4.37239,-3.3717 -10.08493,1.39664 -9.39649,6.35938 0.45641,6.4706 3.50051,12.27092 5.29688,18.37305 1.16092,4.71225 3.7424,9.29039 4.2793,14.01953 -8.96164,1.57265 -17.00695,6.7819 -25.8125,9.10937 -4.02565,1.1409 -7.65488,3.19777 -11.18165,5.50586 -5.87809,0.86192 -10.87072,6.19371 -16.48242,6.54492 -3.07316,-5.17092 -5.22717,-14.07417 -12.57812,-13.99804 -5.37087,1.47131 -4.19799,8.62482 -0.85352,11.55664 0.71976,2.78009 6.17958,6.71901 1.96875,8.62109 -8.81153,5.20087 -18.10567,9.63377 -26.35351,15.68359 -6.77518,4.89046 -14.86296,8.19374 -20.91602,14.13086 -6.71177,-8.92685 -12.70778,-18.08307 -20.31055,-26.29492 -2.83178,-3.75719 -8.64903,-3.43187 -10.54101,1.03125 -2.62845,4.52925 1.05447,8.94403 4.37109,11.72266 4.5385,6.63259 9.64083,12.6883 14.16016,19.28711 3.25739,2.56491 -2.02458,3.92337 -3.76172,5.71679 -10.23757,6.29033 -18.50689,15.28435 -27.11524,23.59571 -3.85572,3.33013 -8.35133,6.76719 -11.8125,10.0625 -4.90411,-3.21797 -8.57619,-11.61875 -15.52734,-9.97461 -5.90168,2.72526 -1.95427,10.17105 1.92774,12.93164 1.40129,2.0093 7.73355,4.75281 3.79101,7.19922 -7.4787,5.46034 -11.73371,14.11412 -18.36523,20.42968 -5.62678,7.51086 -12.15301,14.15233 -17.47266,21.89258 -7.78114,-4.86647 -14.44425,-11.05319 -22.08008,-16.08789 -2.853,-3.69299 -8.39692,-6.87774 -12.45117,-2.9414 -4.45941,3.03119 -1.507,9.28387 2.2793,11.42578 7.58855,6.30491 15.33563,11.74186 23.19336,17.67578 4.06032,0.86819 -1.30116,4.41682 -2.09375,6.06054 -10.16819,13.64312 -18.08109,28.75962 -26.13672,43.78126 -5.84085,-1.02649 -11.57958,-6.822 -17.67774,-3.62891 -5.37848,3.05512 -0.4716,9.56753 3.92969,10.63672 2.54108,1.2103 5.53943,2.36899 7.87109,3.34179 -1.74803,3.33297 -2.36756,7.23354 -4.87877,10.00285 -5.10542,12.50954 -10.5956,24.83594 -14.80873,37.64169 -1.9954,1.70075 -0.95143,7.13037 -4.68945,4.75 -5.67981,-2.00769 -11.52148,-3.98885 -17.18359,-5.63868 -5.356901,-1.92238 -11.676511,-5.32484 -17.291018,-2.22656 -8.220193,6.50069 4.23078,13.43516 10.375,13.86719 5.024768,2.27557 10.212588,3.06358 15.259768,5.36914 2.43723,0.52297 5.58255,1.39102 7.26562,2.72656 -1.88828,7.41495 -5.25565,14.31404 -6.39843,21.87891 -1.72659,5.71872 -3.30623,11.75564 -3.9961,17.65625 -1.57789,4.6654 -1.54518,9.65305 -3.25976,14.24219 0.52724,4.24473 -4.259806,0.34097 -6.736332,0.86523 -4.519124,-0.46727 -12.85382,0.42527 -11.658203,6.63086 2.509586,5.41674 9.822811,3.16126 14.246095,5.7168 4.25093,-0.11687 1.01961,5.2384 1.65234,7.86718 -2.958262,9.42858 -0.81337,19.57378 -3.423826,29.14649 -0.592203,6.68801 -0.522739,13.4093 -0.707031,20.11523 -12.40124,0.83145 -25.523062,-0.17768 -37.642578,1.85352 -5.066283,4.21496 0.433744,12.61614 6.316406,11.28515 13.822527,0.28609 27.779521,1.03358 41.480469,-1.29492 5.31968,-6.289 2.30443,-15.19907 3.19531,-22.65039 0.18483,-8.86353 2.77512,-17.45072 2.14063,-26.37305 0.7255,-6.12903 2.09114,-11.99376 2.38281,-18.16796 1.66864,-5.99402 1.8099,-12.32443 3.35264,-18.38518 0.21108,-7.63 3.56227,-14.67171 4.70595,-22.05623 1.58041,-4.12119 1.93107,-8.59886 3.3086,-12.7207 0.97515,-5.76441 3.5212,-11.1296 5.16211,-16.68164 1.54797,-4.01903 1.30686,-8.59338 3.91992,-12.16407 8.2305,-25.42993 20.41904,-49.85226 33.65728,-73.2383 4.30836,-8.6149 9.53476,-16.67841 15.28803,-24.27342 6.68873,-10.78612 14.18604,-21.03381 22.18555,-30.90429 5.1492,-5.18081 9.08651,-11.53586 14.28515,-16.6836 12.48523,-16.50779 29.90323,-28.13855 44.01089,-43.1008 8.16277,-7.64009 18.09997,-12.75819 26.56724,-19.96365 6.81455,-5.22095 14.22542,-9.94876 21.68945,-14.35742 8.9349,-5.94949 17.90317,-11.69297 27.58985,-16.45703 6.91777,-4.40512 15.09789,-6.47332 22.22665,-10.65821 4.62267,-1.38667 8.36725,-3.97846 12.66202,-5.9082 10.06302,-2.86642 19.37539,-8.40204 29.7168,-10.65039 6.82643,-3.09144 14.41444,-4.4058 21.33789,-6.90234 6.99557,-1.20349 13.59204,-3.82081 20.57617,-4.86719 4.28003,-1.90793 9.40895,-1.2677 13.66015,-3.20898 4.95368,-0.78802 9.62979,-2.79607 14.73047,-2.26954 7.36792,-2.12723 14.97416,-1.72672 22.38282,-3.63281 8.94442,0.092 17.83356,-1.07375 26.72656,-2.16211 18.06217,0.31782 36.20061,-1.07916 54.01172,1.84961 7.44864,-0.3476 14.59275,0.86161 21.77343,1.99024 6.67633,0.46261 13.02424,2.44627 19.75,2.55273 5.94004,1.4293 11.95736,3.52706 18.09246,3.99428 4.20093,1.55404 8.56837,1.80148 12.67903,3.43541 7.42235,1.30714 14.60949,3.42141 21.74804,6.07812 6.12336,0.95762 11.85651,4.04821 17.94336,5.41211 8.04574,3.70733 16.74883,6.16217 24.57618,9.85547 5.99686,3.5704 12.90212,5.25836 18.90625,8.88086 9.85665,3.72768 18.79505,9.28198 27.83593,14.66797 9.423,5.42489 18.19674,11.846 27.55274,17.3418 8.42067,6.06715 16.62613,12.27532 24.59313,18.85458 19.08056,14.42903 35.14425,32.40161 52.11195,49.25088 8.54823,9.68961 17.21865,19.40077 24.24414,30.17383 6.37139,9.27439 13.97377,17.79318 19.37304,27.69336 7.77453,12.28327 14.45457,25.32377 21.81166,37.90067 1.64515,4.21842 2.85351,8.57052 5.93639,12.09738 3.54391,9.57923 8.17525,18.88017 11.3457,28.61914 2.41196,7.15975 5.80671,13.99012 7.5625,21.32227 1.54834,5.22557 2.63171,10.94881 5.02344,16.05078 1.56531,4.47485 2.16293,9.53326 3.75,14.05664 0.48867,4.52074 2.68757,8.70909 2.65235,13.27929 2.36981,8.25394 3.37665,16.62245 4.20117,25.17579 2.04152,5.02888 1.08404,10.8049 3.02539,15.86914 -0.0969,8.85703 0.99493,17.67999 2.30632,26.41931 0.53899,8.13308 -1.71693,17.83067 2.67219,24.91272 8.10155,3.56092 17.31282,1.36701 25.86915,2.20703 7.3921,-0.19869 15.8131,1.44641 22.4726,-2.25781 3.9081,-3.23672 1.7794,-11.38086 -3.9589,-10.03516 -11.2119,-0.42451 -22.4282,-0.70992 -33.64261,-1.06836 0.50475,-12.0098 -1.68665,-23.8593 -2.39383,-35.74978 0.37545,-7.14902 -2.15375,-13.87642 -2.44602,-20.93577 4.71369,-1.27003 9.55924,-2.09971 14.22266,-3.26171 4.381,-2.29755 2.4114,-9.39541 -2.58984,-9.10938 -4.23422,-1.37565 -9.67608,0.68253 -13.10743,0.25391 -2.24337,-6.20584 -2.15249,-12.81019 -4.29882,-19.07227 -0.55274,-6.71853 -3.37849,-12.88258 -4.22852,-19.57617 -1.97582,-5.37326 -3.64016,-10.8784 -5.52539,-16.23047 -0.2094,-2.26074 3.88329,-1.63059 5.37891,-2.71875 4.40049,-1.20947 8.67342,-2.90211 12.94531,-4.1543 5.36207,-2.54513 12.01748,-2.93877 16.26368,-7.47265 3.9439,-4.88629 -2.4681,-10.52299 -7.57032,-9.22657 -7.79732,1.27446 -14.55046,4.8235 -22.04492,6.72461 -2.82369,1.12503 -6.1002,2.42605 -9.0625,2.74219 -2.88176,-7.62462 -5.60807,-14.91139 -8.44336,-22.5625 -3.18527,-7.28976 -6.09349,-15.06975 -9.60742,-22.0918 -2.10957,-2.39569 -2.36168,-6.12935 -3.80665,-8.37695 4.85311,-2.84785 13.11204,-2.84182 14.50782,-9.74414 -1.21672,-6.27612 -9.2765,-5.95209 -13.42578,-3.07617 -3.08908,-0.37702 -7.01195,5.09155 -8.27189,0.33848 -7.25437,-14.22744 -15.59683,-27.82956 -24.37265,-41.09434 -1.22649,-1.54677 -5.77563,-4.71445 -3.02343,-6.46484 4.96116,-2.42354 9.22998,-6.58358 13.74218,-9.85352 5.09947,-4.49116 13.1246,-7.79679 14.62696,-14.92383 -0.6643,-6.45078 -10.43157,-8.24977 -13.47071,-2.5293 -5.53764,4.35185 -11.24939,8.28187 -16.74218,12.61329 -2.09141,2.03826 -5.35176,3.98973 -7.27735,5.0957 -7.07813,-11.15925 -16.29118,-20.73468 -24.75918,-30.84238 -4.31413,-4.20935 -8.87074,-8.44252 -12.64902,-13.01114 3.82105,-4.89761 11.69723,-8.92125 10.81641,-15.99804 -2.22805,-5.57752 -9.71897,-2.97398 -12.24668,0.98128 -2.94488,1.64396 -5.94471,9.20579 -9.11075,4.78434 -10.98598,-11.37614 -22.98303,-21.6161 -35.63086,-31.04687 -1.57447,-2.08908 -4.35864,-3.29104 -6.10742,-4.74414 5.47503,-7.53962 11.40561,-14.90013 16.79883,-22.47461 4.08653,-2.92658 6.68148,-9.41884 2.02344,-13.09961 -4.73646,-4.49223 -10.08738,1.92892 -12.86133,5.5039 -5.62834,7.13039 -10.84852,15.16935 -16.70508,21.76172 -7.7927,-4.6688 -15.17253,-9.83137 -22.69922,-14.90039 -8.96987,-4.83489 -17.88407,-10.39805 -26.38281,-15.65234 2.75931,-5.19375 7.88446,-13.14623 2.25195,-18.19727 -4.78382,-2.8402 -8.5179,3.23513 -8.86523,7.33008 -1.42393,2.03404 -2.05244,8.5546 -5.12695,5.32617 -6.87185,-3.35737 -14.27638,-5.47468 -20.95313,-9.25781 -9.95848,-4.08501 -20.32066,-8.31795 -30.22461,-11.86914 1.87585,-6.64635 4.54967,-13.04427 6.23633,-19.48047 1.89611,-5.22203 5.08021,-11.20012 2.53125,-16.78711 -2.09659,-4.82109 -8.55652,-3.86716 -10.58984,0.5 -2.64243,5.31278 -4.20425,11.04667 -6.11524,16.58399 -1.78813,4.72364 -3.28662,10.84855 -5.27344,15.12695 -3.97355,-2.01981 -8.702,-2.10971 -12.75976,-3.4707 -6.05682,-1.30247 -11.82831,-3.49419 -17.96289,-4.44532 -6.26318,-1.94939 -12.81681,-3.37214 -19.38672,-4.29882 -2.04687,-0.93311 -5.17663,-0.83666 -6.70508,-1.96876 2.0071,-5.50625 3.94911,-13.719 -2.13672,-17.47265 -6.88835,-0.54275 -6.43052,7.7463 -7.5957,12.18164 -0.54794,1.69004 -0.67838,4.88516 -3.32813,3.48828 -8.13161,0.75894 -16.02443,-2.85577 -24.2207,-1.69141 -9.11786,-1.08918 -18.20117,-2.99218 -27.46094,-2.0957 -5.88651,-0.0282 -2.15517,-6.991 -3.15234,-10.26172 -0.29304,-9.26868 -0.37234,-18.54815 -1.03906,-27.800779 -1.57417,-1.36693 -3.61167,-1.967878 -5.67969,-1.861328 z"
     style="fill:#000000;stroke:none;stroke-width:0.1" />
  <path
     transform="rotate(178.48865)"
     style="opacity:0.58919995;vector-effect:none;fill:#008000;fill-opacity:1;stroke:#000000;stroke-width:0;stroke-linecap:square;stroke-linejoin:round;stroke-miterlimit:4;stroke-dasharray:none;stroke-dashoffset:0;stroke-opacity:1"
     inkscape:transform-center-x="120.30948"
     inkscape:transform-center-y="-197.96046"
     d="M-126.283227508 -575.62464175C-126.427730752 -569.103333368 -127.612409294 -563.438008663 -128.06933644 -556.974406827C-128.529154529 -550.469910276 -127.875167834 -544.659353375 -128.64557417 -538.222622109C-129.420184512 -531.750766449 -131.977637301 -526.410130019 -133.060335256 -520.016265054C-134.14821728 -513.591785609 -133.737125248 -505.392913397 -135.13006556 -499.056797183C-136.52857853 -492.695332424 -137.659856592 -486.075079287 -139.359812385 -479.812429865C-141.065583834 -473.528355527 -145.757840169 -467.727662872 -147.760995085 -461.552927987C-149.769742069 -455.360955526 -152.411598478 -449.123270638 -154.713212846 -443.051181614C-157.019662339 -436.966336626 -158.72935896 -429.565586171 -161.32368768 -423.611127671C-163.922119627 -417.647251517 -164.857897442 -411.500909618 -167.738868854 -405.677881671C-170.622902374 -399.848664579 -173.238155484 -395.558595378 -176.399056708 -389.880609696C-179.561676613 -384.199536716 -183.588736847 -376.645370434 -187.022241067 -371.12579608C-190.455902746 -365.605968602 -194.649755349 -363.811511076 -198.348039205 -358.463303654C-202.044382352 -353.117902754 -206.847430674 -347.201872128 -210.801839462 -342.038004807C-214.751918812 -336.879791088 -218.945999196 -328.944158272 -223.147319347 -323.977144201C-227.342150385 -319.017801889 -231.68601277 -316.193830981 -236.125076595 -311.435117192C-240.554405596 -306.686839216 -242.4526244 -302.734032789 -247.118922553 -298.195460863C-251.772185744 -293.669567105 -259.185017784 -288.739225884 -264.067784362 -284.431744502C-268.934176229 -280.13870857 -271.29949634 -274.888284165 -276.387771052 -270.82197815C-281.455647421 -266.771973515 -289.07702098 -264.750128617 -294.358991835 -260.934705713C-299.615774604 -257.137477381 -302.432943868 -251.730860959 -307.89585452 -248.175514459C-313.329127194 -244.639456811 -319.112014483 -242.03883859 -324.743348977 -238.751426188C-330.339733904 -235.484416346 -338.680726277 -231.647535428 -344.466992409 -228.635305001C-344.466992409 -228.635305001 -347.92330091 -234.403768847 -353.524851021 -245.163921068C-356.020969689 -249.958775403 -357.473385938 -257.198576022 -360.837448587 -263.660684809C-363.537856006 -268.847962314 -368.040283396 -275.127047857 -371.212465472 -281.220568639C-373.99721471 -286.569860372 -376.102525119 -289.834194327 -379.194463805 -295.773573653C-382.026204084 -301.213131606 -382.492662502 -309.704289754 -385.53970938 -315.557435328C-388.402086587 -321.055844491 -392.906037922 -326.831356996 -395.923761979 -332.628175656C-398.808205933 -338.168973364 -403.255494155 -342.589465228 -406.251873139 -348.345281625C-409.153458058 -353.919005826 -412.428061179 -358.280093281 -415.407555592 -364.003475699C-418.323453314 -369.604693706 -420.905315055 -374.395858798 -423.870607901 -380.091961085C-426.799456064 -385.718055905 -428.764345041 -391.127322152 -431.717188935 -396.799510948C-434.658146029 -402.448866107 -437.360719242 -409.852109195 -440.301677359 -415.501466318C-443.254495108 -421.173604892 -447.135431107 -424.88747706 -450.064255739 -430.51352668C-453.02962038 -436.20976688 -454.698490584 -443.450622741 -457.614459876 -449.05197823C-460.593998557 -454.775445683 -462.582168021 -461.641012416 -465.483796791 -467.214820852C-468.48002277 -472.970343338 -473.584473998 -476.585104972 -476.468779131 -482.125636015C-479.486290764 -487.922046626 -481.422986438 -493.136491888 -484.285179239 -498.634546821C-487.332302584 -504.487839281 -489.932497266 -509.94797049 -492.764314248 -515.387675782C-495.856213062 -521.326978518 -497.569003052 -529.412174412 -500.35373613 -534.761435103C-503.525921043 -540.854961335 -509.239815492 -545.018823751 -511.940255544 -550.206163942C-515.304629813 -556.668871326 -519.002530543 -563.116702688 -521.498868866 -567.911978963C-527.100740044 -578.672747929 -529.032010372 -583.994025577 -529.032010372 -583.994025577C-529.032010372 -583.994025577 -522.992066921 -585.093297711 -510.864163953 -584.824560492C-505.459823297 -584.704807928 -496.159735089 -582.837897639 -488.876210961 -582.67650502C-483.029565211 -582.5469516 -478.456068742 -584.437501458 -471.587984791 -584.285314407C-465.558730767 -584.151714645 -460.398029265 -581.879128653 -453.703680089 -581.73079132C-447.572685873 -581.594937138 -441.04602264 -584.52422063 -434.448868611 -584.378037005C-428.251542455 -584.240713001 -421.889439015 -583.113482028 -415.35577176 -582.96870518C-409.110668941 -582.830322512 -403.229125026 -581.378920241 -396.741671937 -581.235167434C-390.459457255 -581.09596242 -382.537139465 -581.47355198 -376.086243121 -581.330609219C-369.773039823 -581.190717541 -365.157837326 -580.30858952 -358.737688762 -580.166328086C-352.396446494 -580.025815104 -344.803556879 -581.402088432 -338.410361512 -581.260424243C-332.042902224 -581.119330329 -323.979796699 -578.639221208 -317.612335198 -578.498127245C-311.219196436 -578.35646431 -305.29696783 -580.037443649 -298.955776509 -579.896931796C-292.535472503 -579.754666918 -286.631763655 -580.333408632 -280.318405399 -580.19351352C-273.867413212 -580.050568635 -266.603231361 -578.770418501 -260.320921736 -578.631211383C-253.833799918 -578.487465916 -246.725264687 -577.653996084 -240.480462429 -577.515620077C-233.947255091 -577.37085342 -229.22497922 -578.084371985 -223.02805232 -577.947056828C-216.430732735 -577.800869534 -210.94542449 -578.448003211 -204.814264205 -578.31214535C-198.120001355 -578.16380993 -189.549357926 -578.940767623 -183.52013889 -578.807168636C-176.652048797 -578.65498145 -172.725938752 -576.501205578 -166.879222349 -576.371650591C-159.595023533 -576.210243023 -150.833981837 -578.005162551 -145.429165607 -577.885399449C-133.300567499 -577.616646827 -126.861271885 -577.318209912 -126.861271885 -577.318209912"
     id="path1222" />
  <path
     transform="rotate(178.48865)"
     style="opacity:0.58919995;vector-effect:none;fill:#ffff00;fill-opacity:1;stroke:#000000;stroke-width:0;stroke-linecap:square;stroke-linejoin:round;stroke-miterlimit:4;stroke-dasharray:none;stroke-dashoffset:0;stroke-opacity:1"
     inkscape:transform-center-x="120.30948"
     inkscape:transform-center-y="-197.96046"
     d="M-344.397826137 -230.457560271C-350.15753775 -227.465173793 -356.253934171 -224.022047112 -362.112465666 -221.328320534C-368.006957396 -218.6180596 -373.149290212 -213.57954873 -379.133009524 -211.171057055C-385.149795614 -208.749255755 -391.870980776 -207.9232292 -397.966990658 -205.805963655C-404.091195041 -203.678905599 -410.38895443 -200.515053484 -416.581966234 -198.694768431C-422.799754073 -196.867201067 -427.68594089 -194.459621139 -433.961799034 -192.940692751C-440.25912728 -191.416568014 -448.841537502 -190.743398212 -455.185925749 -189.529428009C-461.547250921 -188.312217002 -464.330444386 -187.177567027 -470.727576934 -186.271563893C-477.138980723 -185.363539574 -485.063882178 -185.495735198 -491.499669366 -184.899699803C-497.945635485 -184.30272171 -506.200316869 -184.891138754 -512.659100839 -184.606525131C-519.124749683 -184.321608999 -525.723250657 -183.679673503 -532.190061689 -183.707171963C-538.659802583 -183.734682882 -543.087758734 -182.600295743 -549.546960495 -182.939889142C-556.006025484 -183.279475351 -563.670114024 -185.642812153 -570.106935919 -186.293852258C-576.541070969 -186.944620606 -581.951095147 -185.134887166 -588.351313597 -186.096234732C-594.744193645 -187.056480029 -603.209066694 -190.2824639 -609.55645172 -191.551963781C-615.894237441 -192.819543765 -621.958583232 -194.226294487 -628.239405956 -195.801584208C-634.506658564 -197.373470415 -637.871782002 -200.849644364 -644.070783327 -202.727305673C-650.252671227 -204.599783371 -658.303685714 -205.473435911 -664.406256304 -207.64940116C-670.488564362 -209.818141492 -674.616193103 -210.587820045 -680.608377761 -213.057440132C-686.576744132 -215.517243746 -691.837754351 -217.01984361 -697.705511334 -219.777550901C-703.545759596 -222.522329743 -712.086498904 -225.880556899 -717.816030711 -228.919871885C-723.514131314 -231.942513723 -727.587321387 -236.959626971 -733.165045213 -240.27301068C-738.708828891 -243.566232628 -746.60986334 -245.787224927 -752.024053055 -249.367099825C-752.024053055 -249.367099825 -746.543875915 -256.994852214 -739.853202874 -267.113801544C-736.871757818 -271.622928094 -734.161043772 -274.677116662 -730.142898289 -280.75414513C-726.917444127 -285.632310156 -724.160738866 -294.071988079 -720.371781759 -299.802392889C-717.045586994 -304.832917632 -713.335687136 -308.139397645 -709.642575336 -313.724846365C-706.260252948 -318.84025832 -702.078916456 -326.263106465 -698.439424886 -331.767460146C-695.020508759 -336.938216337 -692.040547863 -338.495682656 -688.436080423 -343.947065972C-684.990807058 -349.157684753 -681.762869684 -358.15186091 -678.183897491 -363.564685309C-674.718150401 -368.806268477 -668.464923315 -374.394272671 -664.906118601 -379.776595848C-661.423275835 -385.044034452 -657.275048596 -387.0784082 -653.733206694 -392.435076883C-650.234895502 -397.725909879 -646.72908388 -405.169137213 -643.20211141 -410.503317421C-639.689336917 -415.81602466 -637.36473237 -419.705802002 -633.851956656 -425.018511088C-630.325015413 -430.352644068 -628.969943807 -435.963486629 -625.471660721 -441.254277118C-621.929733064 -446.611075494 -617.240414746 -451.791760912 -613.757486494 -457.059328806C-610.198628905 -462.44173195 -605.974798218 -466.4266099 -602.508998751 -471.668272283C-598.930209311 -477.080820285 -595.637468892 -484.554310161 -592.192361339 -489.764678169C-588.588147624 -495.215677752 -585.56697303 -501.637649954 -582.148277163 -506.808073024C-578.50869426 -512.312564837 -572.687959051 -515.293484146 -569.305545048 -520.409034659C-565.612480872 -525.994411354 -562.195578929 -531.121174557 -558.869403466 -536.151670109C-555.080442971 -541.882080043 -554.455017631 -550.104442384 -551.229524491 -554.982666359C-547.211006799 -561.060257756 -540.54215659 -564.488854859 -537.560449172 -568.998378205C-530.869392638 -579.117907528 -528.931288649 -583.585851714 -528.931288649 -583.585851714C-528.931288649 -583.585851714 -526.965940689 -580.794430618 -521.373244831 -570.029673461C-518.881071725 -565.232767111 -515.770354493 -559.30455984 -512.411609347 -552.839685516C-509.715470405 -547.650188053 -503.762228945 -541.866808928 -500.59506107 -535.77068035C-497.814713627 -530.419099324 -495.224429993 -521.805904808 -492.137378669 -515.863983654C-489.310114462 -510.422097777 -487.728430655 -504.166182814 -484.686200179 -498.310532317C-481.828347472 -492.809770043 -477.214776478 -488.541170584 -474.201822475 -482.741871105C-471.321937901 -477.198702147 -470.927030611 -470.418634967 -467.93538794 -464.6603553C-465.038389495 -459.084245757 -459.425431943 -455.503476885 -456.450647155 -449.777645077C-453.539358531 -444.174029961 -452.233861972 -436.917391031 -449.273256302 -431.218851028C-446.349037708 -425.590348452 -441.804093081 -421.438509204 -438.855916686 -415.763892927C-435.9196083 -410.112120059 -435.819048501 -404.142956699 -432.882739094 -398.491181867C-429.934588802 -392.816615832 -424.823072273 -387.010633409 -421.898877172 -381.382176054C-418.938199822 -375.68349808 -415.183102609 -370.32950135 -412.271742528 -364.725748694C-409.296913542 -358.999831814 -406.839338301 -352.822035928 -403.942296074 -347.245842114C-400.950806167 -341.487856483 -399.737344637 -337.222709724 -396.857598665 -331.679807544C-393.844856749 -325.880916289 -390.401758339 -317.349801209 -387.544089747 -311.849393317C-384.501782926 -305.993595871 -383.043579305 -302.883839066 -380.216238517 -297.441805787C-377.129227002 -291.499961255 -374.026667402 -284.315606063 -371.246336093 -278.964056092C-368.079165385 -272.867922062 -362.805157492 -269.683525849 -360.108985969 -264.493965673C-356.749929695 -258.028492496 -353.43283428 -252.062054036 -350.940441866 -247.264725565C-345.347425449 -236.499351398 -343.842181296 -228.523085491 -343.842181296 -228.523085491"
     id="path1224" />
  <path
     transform="rotate(178.48865)"
     style="opacity:0.58919995;vector-effect:none;fill:#ff0000;fill-opacity:1;stroke:#000000;stroke-width:0;stroke-linecap:square;stroke-linejoin:round;stroke-miterlimit:4;stroke-dasharray:none;stroke-dashoffset:0;stroke-opacity:1"
     inkscape:transform-center-x="120.30948"
     inkscape:transform-center-y="-197.96046"
     d="M-752.018770209 -251.86892897C-757.397745987 -255.467295811 -762.1540655 -256.865457138 -767.32181168 -260.694444401C-772.519745893 -264.545799171 -777.756922996 -270.4367959 -782.736215427 -274.51187459C-787.740824242 -278.607672341 -793.610411464 -282.155206187 -798.389134848 -286.467259034C-803.188711219 -290.798128451 -805.946135122 -294.377717483 -810.512767907 -298.916852158C-815.096022279 -303.472508332 -821.990656572 -311.578708103 -826.334128538 -316.334155184C-830.690987756 -321.104259288 -833.135871953 -325.494639352 -837.246279278 -330.455679154C-841.366979787 -335.429142273 -847.979264827 -340.946337168 -851.847047879 -346.10152587C-855.722001364 -351.26627171 -857.122593183 -352.97750998 -860.738430036 -358.314428272C-864.359092764 -363.658469481 -866.292989721 -372.51765126 -869.648560691 -378.024053587C-873.006867345 -383.5349451 -879.549264446 -385.333629772 -882.636749615 -390.996848217C-885.724958325 -396.661393817 -885.458852017 -405.362281118 -888.270809721 -411.168915789C-891.081889199 -416.973736943 -894.683714833 -420.278244257 -897.213416779 -426.214763316C-899.741291668 -432.146994774 -904.007348203 -440.677710273 -906.248963191 -446.731167243C-908.487495929 -452.776300628 -911.157489468 -459.686009789 -913.105280383 -465.841792324C-915.049431782 -471.986072561 -913.530347537 -476.46769304 -915.179602202 -482.712020884C-916.824790238 -488.940951857 -918.300270967 -495.481727528 -919.646811441 -501.800097058C-920.989284051 -508.099378955 -922.744937049 -512.695293763 -923.785406052 -519.073446986C-924.822057815 -525.428200242 -928.922392394 -532.220014036 -929.654149614 -538.643140029C-930.382741851 -545.038484821 -927.033929517 -551.650844357 -927.455220385 -558.104175725C-927.874378694 -564.524840548 -930.941904583 -571.900861095 -931.051900464 -578.369275366C-931.16125372 -584.799899485 -929.556652814 -591.651097483 -929.355565802 -598.119427632C-929.355565802 -598.119427632 -924.962859928 -598.014378505 -912.837837879 -597.637436306C-907.434780995 -597.469466291 -899.341757804 -595.223515705 -892.059963838 -594.997139586C-886.214706927 -594.815422474 -880.498110091 -596.313321072 -873.631657616 -596.099857073C-867.603835809 -595.912464391 -860.140122789 -595.7653371 -853.44736382 -595.557272878C-847.317825988 -595.366718052 -842.837744085 -593.688673875 -836.242157174 -593.483630534C-830.04630316 -593.291014073 -822.03935166 -593.309050127 -815.507236442 -593.105979991C-809.263617114 -592.911878604 -804.071412359 -593.748450586 -797.58550033 -593.546816813C-791.304777954 -593.351561968 -783.353226778 -592.715996599 -776.903862811 -592.515499031C-770.59215918 -592.319281042 -765.39161666 -592.245432033 -758.972993168 -592.045890123C-752.633257228 -591.848800667 -746.531418766 -592.821375641 -740.139742067 -592.622671452C-733.773795336 -592.424767156 -725.271849481 -590.078905271 -718.905900536 -589.881000906C-712.51428043 -589.682298477 -708.445038993 -591.994106392 -702.105353987 -591.797018519C-695.686575089 -591.597471778 -688.56940911 -588.203681333 -682.257550559 -588.007458528C-675.80809077 -587.806957981 -670.686656013 -589.489946516 -664.405838717 -589.29468872C-657.92025788 -589.093065243 -650.479704052 -588.042306917 -644.236385214 -587.848214872C-637.704729804 -587.645159031 -629.178658084 -588.708729478 -622.983203231 -588.516125426C-616.387450804 -588.31107694 -611.915201486 -589.065742668 -605.785497626 -588.875182681C-599.092824961 -588.667121142 -593.546525565 -586.488031286 -587.518738736 -586.300639691C-580.652280121 -586.087175501 -573.826073147 -586.407072318 -567.980745599 -586.22535301C-560.698277106 -585.998955922 -553.024186638 -585.524692677 -547.620654292 -585.356707881C-535.494937267 -584.979744076 -529.737266754 -583.807998555 -529.737266754 -583.807998555C-529.737266754 -583.807998555 -531.11259291 -578.258125573 -537.857655324 -568.175349514C-540.863336944 -563.682342212 -544.593203066 -558.100209282 -548.64401259 -552.044905005C-551.895686899 -547.184178468 -558.497961024 -544.38248057 -562.317719068 -538.67256084C-565.670952914 -533.660019242 -569.299291196 -525.342280826 -573.022424794 -519.776798996C-576.432242531 -514.679673642 -578.357019824 -511.048731398 -582.026097306 -505.564054708C-585.472806258 -500.411782962 -587.985436149 -493.345119093 -591.619204786 -487.913223409C-595.092485237 -482.721231574 -600.524719132 -478.310471425 -604.132785268 -472.916996818C-607.626705878 -467.694151288 -609.74223543 -461.884252575 -613.329970142 -456.521170153C-616.841125401 -451.272561615 -622.411142329 -448.56493172 -625.981776336 -443.227412083C-629.508525767 -437.955492783 -631.747507636 -430.912240447 -635.303151336 -425.597128892C-638.844481641 -420.303413546 -640.836455435 -414.182940542 -644.377786972 -408.889223355C-647.93339919 -403.574158861 -654.040898345 -398.313900556 -657.56761944 -393.042023611C-661.138339899 -387.704374744 -662.282997122 -382.961429587 -665.794238562 -377.712692221C-669.382026579 -372.349530118 -672.163006542 -368.373900669 -675.656979956 -363.150976206C-679.264861852 -357.757777008 -685.590956458 -352.676109969 -689.06406975 -347.48436801C-692.697582599 -342.052854688 -693.626137156 -336.268761083 -697.072624057 -331.116821267C-700.741793615 -325.632006939 -704.857408339 -318.151655096 -708.267318437 -313.054391678C-711.990404024 -307.488981617 -716.926045626 -305.901439209 -720.279260012 -300.888926698C-724.099021472 -295.179001862 -728.985228539 -286.914774443 -732.236942142 -282.053989166C-736.2881269 -275.998123974 -738.318043145 -271.05580314 -741.32398926 -266.56240046C-748.069438284 -256.479046481 -752.800581851 -253.03735629 -752.800581851 -253.03735629"
     id="path1226" />
  <path
     inkscape:connector-curvature="0"
     id="path1386"
     d="m 542.71405,575.47581 c 0,0 4.00128,-4.6925 10.61517,-15.25259 2.94132,-4.69626 6.96072,-11.19376 10.93086,-17.5327 3.1817,-5.08007 7.2337,-9.03911 10.97672,-15.01541 3.28105,-5.2387 7.18464,-14.30321 10.83321,-20.1287 3.33636,-5.32702 4.18826,-7.53285 7.78424,-13.27437 3.372,-5.38392 6.79892,-12.31479 10.36038,-18.00121 3.39772,-5.42497 8.15233,-12.72051 11.68907,-18.36745 3.41758,-5.45669 5.98773,-7.88815 9.50517,-13.50428 3.43409,-5.48304 8.29074,-14.32076 11.79228,-19.9115 3.44827,-5.50569 7.20098,-10.51702 10.6883,-16.08506 3.46138,-5.52661 8.03402,-8.72398 11.50819,-14.27102 3.47416,-5.54703 6.40981,-12.89057 9.87118,-18.41717 3.48741,-5.56819 5.22503,-12.07851 8.67338,-17.58433 3.5013,-5.59036 7.11306,-11.45827 10.54691,-16.94093 3.5173,-5.61591 5.81259,-11.37706 9.23003,-16.83354 3.53661,-5.64673 8.477,-9.44792 11.8746,-14.87269 3.56148,-5.68646 5.10869,-11.8162 8.48072,-17.20016 3.59577,-5.7412 9.00639,-10.93979 12.34259,-16.26653 3.64858,-5.82551 6.86712,-10.9117 10.14819,-16.15043 3.74313,-5.97648 5.71791,-12.72264 8.89971,-17.80288 3.97001,-6.33871 9.70921,-12.6724 12.65052,-17.36864 6.61459,-10.5612 7.07346,-11.76894 7.07346,-11.76894"
     style="fill:none;stroke:#ffffff;stroke-width:23.54999924;stroke-linecap:butt;stroke-linejoin:miter;stroke-miterlimit:4;stroke-dasharray:none;stroke-opacity:1"
     sodipodi:nodetypes="ccssssssssssssssssssssc" />
  <path
     sodipodi:nodetypes="ccssssssssssssssssssssc"
     style="fill:none;stroke:#ffffff;stroke-width:23.54999924;stroke-linecap:butt;stroke-linejoin:miter;stroke-miterlimit:4;stroke-dasharray:none;stroke-opacity:1"
     d="m 544.1799,578.5511 c 0,0 -6.59353,-8.75896 -12.62987,-19.8116 -2.68447,-4.91531 -3.50895,-8.53054 -7.1324,-15.16514 -2.90405,-5.31737 -7.20066,-12.79361 -10.61709,-19.04914 -2.99455,-5.48307 -3.88753,-10.23797 -7.2175,-16.3352 -3.04503,-5.57549 -6.91695,-11.07897 -10.19891,-17.08829 -3.07756,-5.63505 -6.67442,-13.92438 -9.92488,-19.87602 -3.10101,-5.67801 -6.06604,-9.3642 -9.29393,-15.27452 -3.11914,-5.7112 -7.82596,-11.01164 -11.03624,-16.88971 -3.13397,-5.73835 -6.23276,-12.76227 -9.42828,-18.61333 -3.14715,-5.76249 -6.56591,-10.5464 -9.7487,-16.37415 -3.15911,-5.78439 -6.12653,-12.99531 -9.29732,-18.80108 -3.17078,-5.80575 -5.03444,-9.19655 -8.19355,-14.98093 -3.18287,-5.82789 -6.57315,-12.98688 -9.72038,-18.74951 -3.19555,-5.8511 -6.50054,-11.51362 -9.63453,-17.25201 -3.21015,-5.87784 -7.31249,-11.4603 -10.43152,-17.17128 -3.22777,-5.9101 -7.31092,-11.71068 -10.41182,-17.38848 -3.25048,-5.95168 -6.38642,-13.52828 -9.46399,-19.16336 -3.28177,-6.00898 -4.48734,-10.92564 -7.5322,-16.50084 -3.32997,-6.09722 -5.25632,-10.08809 -8.25087,-15.57117 -3.41627,-6.25523 -9.78818,-12.17914 -12.69213,-17.49633 -3.62333,-6.63437 -5.00392,-13.88279 -7.68838,-18.79808 -6.03697,-11.05379 -7.81916,-13.28361 -7.81916,-13.28361"
     id="path1240"
     inkscape:connector-curvature="0" />
  <path
     id="path1462"
     d="M495.018179483 576.587139226C494.94228034 570.944592471 496.116951868 565.230178355 497.926128548 560.066299254C499.762053635 554.826072977 502.321391161 548.972873194 505.843106625 544.680078222C509.313609552 540.44970877 514.068249232 538.440336759 518.927802789 535.571432435C523.787220192 532.702608283 528.712308198 530.176392919 534.092710855 529.181390208C539.552661959 528.17167653 545.488239064 526.731905061 550.963343693 527.655914357C556.358829738 528.566486775 559.762439644 531.630637553 564.666336341 534.423067484C569.570097171 537.215420304 574.141337687 538.926931587 577.677624273 543.102270332C581.266194325 547.339340834 584.173184251 552.922297038 586.091018414 558.133102129C587.980963569 563.268132062 590.732063245 569.105200033 590.744559974 574.748401837"
     style="opacity:1;vector-effect:none;fill:#000000;fill-opacity:1;stroke:#ffffff;stroke-width:0;stroke-linecap:square;stroke-linejoin:round;stroke-miterlimit:4;stroke-dasharray:none;stroke-dashoffset:0;stroke-opacity:1" />
  <g
     id="g3641"
     inkscape:transform-center-x="218.15764"
     inkscape:transform-center-y="-76.870952"
     transform="rotate(13.720155,545.70483,575.04683)">
    <path
       id="path876"
       d="m 209.0472,468.53738 c 0,0 -6.1819,-0.19974 -12.98886,0.64338 -3.62198,0.44863 -7.16727,1.09225 -11.28601,1.60241 -4.11848,0.51012 -8.67795,0.60535 -12.29966,1.05394 -6.80679,0.8431 -10.39933,2.39576 -10.39933,2.39576 0,0 -2.31352,-0.89441 -2.31352,-0.89441 0,0 2.04433,-0.33599 2.04433,-0.33599 0,0 -7.22086,2.01837 -13.4025,2.78411 -3.61145,0.44737 -5.41328,-0.71137 -9.02473,-0.264 -6.18168,0.76574 -13.62091,2.49154 -13.62091,2.49154 0,0 5.96829,3.37258 12.8074,7.86821 3.37283,2.21711 7.42387,4.84916 11.59127,7.58856 3.68575,2.42279 6.9181,4.66458 10.80237,7.21788 3.88431,2.55332 9.13388,5.11985 12.81967,7.54267 4.16751,2.73948 6.73818,4.9583 10.11109,7.17545 6.839,4.49556 10.04583,8.18562 10.04583,8.18562 -1.20192,-2.89625 0.2246,-7.15215 -0.39656,-10.13936 -0.63495,-3.05358 -1.82206,-5.59271 -1.87214,-8.65922 0,0 6.50701,2.00286 15.57454,4.11782 4.0325,0.94057 6.58817,1.4334 12.03117,2.70297 4.36206,1.01743 9.1821,2.96482 14.31372,4.16176 4.49826,1.0492 11.36692,0.88106 16.36904,2.04779 4.5741,1.06689 8.35037,2.88525 13.2804,4.03515 4.62296,1.07829 8.98462,0.52713 13.86732,1.666 4.65822,1.08652 9.79562,3.25806 14.64443,4.38903 4.68545,1.09286 9.22,3.17014 14.04236,4.29494 4.70807,1.09814 10.78703,0.36692 15.58759,1.48663 4.72751,1.10268 9.29231,3.49388 14.07336,4.60905 4.74549,1.10687 8.62509,1.00263 13.38812,2.11358 4.76301,1.11096 9.50106,2.39431 14.24654,3.50118 4.78118,1.11519 10.37719,3.36079 15.10483,4.46349 4.80022,1.11963 9.96037,1.30798 14.66812,2.40604 4.82216,1.12476 7.83314,2.84592 12.5184,3.93875 4.84863,1.13091 9.33724,2.08436 13.99529,3.17084 4.88274,1.13887 10.95964,2.09748 15.58264,3.17577 4.92974,1.14985 7.82991,1.31718 12.40378,2.38401 5.00266,1.16685 11.83105,4.23273 16.32976,5.28204 5.13161,1.19692 8.98313,2.95891 13.34519,3.97634 5.44264,1.26948 9.3533,0.46768 13.38565,1.40817 9.06819,2.11512 14.43095,4.2836 14.43095,4.2836 0,0 3.67975,-7.11549 5.01764,-12.84899 1.33789,-5.73352 0.56976,-10.50791 0.56976,-10.50791 0,0 -3.91518,-0.64796 -12.98312,-2.76306 -4.03269,-0.94062 -10.76629,-2.76974 -16.20954,-4.03938 -4.36225,-1.01749 -6.77725,-1.12988 -11.9091,-2.32689 -4.49846,-1.04926 -10.92181,-3.18791 -15.92416,-4.35471 -4.57431,-1.06696 -9.54898,-0.44452 -14.47923,-1.59449 -4.62317,-1.07836 -7.9615,-2.05337 -12.84443,-3.19231 -4.65842,-1.08658 -11.27634,-4.42411 -16.12536,-5.55515 -4.68566,-1.09293 -7.68912,-0.71774 -12.51169,-1.8426 -4.70829,-1.09821 -10.80628,-1.9054 -15.60704,-3.02519 -4.72774,-1.10274 -8.8244,-4.14094 -13.60568,-5.25617 -4.74571,-1.10694 -8.22788,-2.09729 -12.99112,-3.20832 -4.76324,-1.11102 -11.49557,-0.99099 -16.24126,-2.09793 -4.7814,-1.11526 -9.62269,-2.94396 -14.35054,-4.04674 -4.80044,-1.1197 -9.74562,-2.02995 -14.45358,-3.12808 -4.82238,-1.12482 -9.34062,-3.20907 -14.0261,-4.30196 -4.84884,-1.13099 -7.98954,-0.33539 -12.6478,-1.42196 -4.88296,-1.13896 -11.6974,-2.53158 -16.32061,-3.60994 -4.92997,-1.14992 -8.159,-2.93631 -12.73308,-4.00321 -5.00288,-1.16692 -10.15849,-1.88201 -14.65739,-2.93138 -5.13185,-1.197 -10.70262,-2.79942 -15.06488,-3.81692 -5.44288,-1.26955 -9.78706,-1.9907 -13.81959,-2.93129 -9.0686,-2.11525 -15.10395,-2.26199 -15.10395,-2.26199 1.3925,-2.70291 4.73236,-7.03273 6.64325,-9.45054 1.87349,-2.37048 3.96342,-4.52792 6.32201,-6.54396 0,0 -0.17705,-0.85779 -0.17705,-0.85779"
       style="color:#000000;font-style:normal;font-variant:normal;font-weight:normal;font-stretch:normal;font-size:medium;line-height:normal;font-family:sans-serif;font-variant-ligatures:normal;font-variant-position:normal;font-variant-caps:normal;font-variant-numeric:normal;font-variant-alternates:normal;font-feature-settings:normal;text-indent:0;text-align:start;text-decoration:none;text-decoration-line:none;text-decoration-style:solid;text-decoration-color:#000000;letter-spacing:normal;word-spacing:normal;text-transform:none;writing-mode:lr-tb;direction:ltr;text-orientation:mixed;dominant-baseline:auto;baseline-shift:baseline;text-anchor:start;white-space:normal;shape-padding:0;clip-rule:nonzero;display:inline;overflow:visible;visibility:visible;opacity:1;isolation:auto;mix-blend-mode:normal;color-interpolation:sRGB;color-interpolation-filters:linearRGB;solid-color:#000000;solid-opacity:1;vector-effect:none;fill:#000000;fill-opacity:1;fill-rule:nonzero;stroke:none;stroke-width:23.54999924;stroke-linecap:butt;stroke-linejoin:miter;stroke-miterlimit:4;stroke-dasharray:none;stroke-dashoffset:0;stroke-opacity:1;color-rendering:auto;image-rendering:auto;shape-rendering:auto;text-rendering:auto;enable-background:accumulate"
       inkscape:connector-curvature="0"
       inkscape:transform-center-x="206.00103"
       inkscape:transform-center-y="-100.88494" />
  </g>
</svg>
