<?xml version="1.0" encoding="UTF-8" standalone="no"?>
<!-- Created with Inkscape (http://www.inkscape.org/) -->

<svg
   xmlns:dc="http://purl.org/dc/elements/1.1/"
   xmlns:cc="http://creativecommons.org/ns#"
   xmlns:rdf="http://www.w3.org/1999/02/22-rdf-syntax-ns#"
   xmlns:svg="http://www.w3.org/2000/svg"
   xmlns="http://www.w3.org/2000/svg"
   xmlns:sodipodi="http://sodipodi.sourceforge.net/DTD/sodipodi-0.dtd"
   xmlns:inkscape="http://www.inkscape.org/namespaces/inkscape"
   sodipodi:docname="Op-amp_symbol.svg"
   id="svg4490"
   height="170"
   width="250"
   version="1.0"
   inkscape:version="0.92.3 (2405546, 2018-03-11)">
  <sodipodi:namedview
     inkscape:current-layer="svg4490"
     inkscape:window-maximized="0"
     inkscape:window-y="0"
     inkscape:window-x="0"
     inkscape:cy="60.211316"
     inkscape:cx="115.89387"
     inkscape:zoom="3.4441176"
     showgrid="false"
     id="namedview37"
     inkscape:window-height="1368"
     inkscape:window-width="2129"
     inkscape:pageshadow="2"
     inkscape:pageopacity="0"
     guidetolerance="10"
     gridtolerance="10"
     objecttolerance="10"
     borderopacity="1"
     bordercolor="#666666"
     pagecolor="#ffffff" />
  <defs
     id="defs4492" />
  <metadata
     id="metadata4495">
    <rdf:RDF>
      <cc:Work
         rdf:about="">
        <dc:format>image/svg+xml</dc:format>
        <dc:type
           rdf:resource="http://purl.org/dc/dcmitype/StillImage" />
        <dc:title></dc:title>
      </cc:Work>
    </rdf:RDF>
  </metadata>
  <path
     d="m 80.901367,109.21674 c 0,0 -2.496399,-0.0601 -5.434642,-0.0601 -1.492168,0 -2.80454,-0.33013 -4.594315,-0.33013 -1.646767,0 -3.405727,0.32718 -5.052505,0.32718 -1.789785,0 -3.39213,-0.056 -4.884333,-0.056 -2.938434,0 -5.456452,0.19666 -5.456452,0.19666"
     id="path5041"
     style="fill:none;stroke:#000000;stroke-width:2;stroke-linecap:round;stroke-linejoin:round;stroke-miterlimit:4;stroke-dasharray:none;stroke-opacity:1"
     inkscape:connector-curvature="0" />
  <path
     d="m 80.964086,58.838238 c 0,0 -2.291073,0.344624 -5.229316,0.344624 -1.492167,0 -2.876884,0.01809 -4.666659,0.01809 -1.646767,0 -3.944789,-0.444723 -5.591566,-0.444723 -1.789785,0 -3.047868,0.07981 -4.540071,0.07981 -2.938433,0 -4.780025,0.600778 -4.780025,0.600778"
     id="path5043"
     style="fill:none;stroke:#000000;stroke-width:2;stroke-linecap:round;stroke-linejoin:round;stroke-miterlimit:4;stroke-dasharray:none;stroke-opacity:1"
     inkscape:connector-curvature="0" />
  <path
     d="m 80.492389,109.21672 c 0,0 0.259969,-1.73259 0.25907,-4.66161 -4.08e-4,-1.32784 0.333651,-3.17044 0.333109,-4.936586 -4.41e-4,-1.436636 -0.392764,-2.850512 -0.393276,-4.515902 -4.55e-4,-1.482502 0.48384,-3.302396 0.483341,-4.925011 -4.63e-4,-1.508658 -0.213049,-2.561517 -0.21354,-4.158965 -4.69e-4,-1.526584 -0.446404,-2.951209 -0.446889,-4.531057 -4.73e-4,-1.54109 0.426601,-3.475914 0.42612,-5.04213 -4.77e-4,-1.553153 -0.461748,-3.360878 -0.462225,-4.914023 -4.81e-4,-1.56605 0.673741,-2.661588 0.673268,-4.202502 -4.85e-4,-1.579762 -0.157376,-3.460112 -0.157845,-4.986599 -4.9e-4,-1.596986 -0.386434,-3.061848 -0.386898,-4.570079 -4.98e-4,-1.622465 0.35232,-3.038608 0.351865,-4.520972 -5.12e-4,-1.665402 -0.447486,-3.368161 -0.447928,-4.80479 -5.42e-4,-1.766486 0.229322,-2.982453 0.228914,-4.310418 -9e-4,-2.928174 0.398814,-4.803067 0.398814,-4.803067 0,0 1.411699,0.424142 4.131262,1.783923 1.211789,0.605895 2.389415,1.457226 4.022531,2.273784 1.310853,0.655426 2.951605,1.247694 4.491443,2.017613 1.351769,0.675885 2.827834,1.755721 4.328704,2.506156 1.374669,0.687335 2.758451,1.595505 4.237631,2.3351 1.38955,0.69477 3.13336,1.084912 4.59832,1.817389 1.40025,0.700127 2.53405,0.964989 3.98864,1.692285 1.40838,0.704187 2.72461,1.78589 4.17079,2.508983 1.41573,0.707861 2.46686,1.462472 3.90657,2.182327 1.4218,0.710904 3.57073,1.165374 5.00419,1.882102 1.42751,0.713755 2.20759,2.056067 3.6351,2.769822 1.43329,0.716645 3.26244,1.32343 4.68408,2.034254 1.43941,0.719705 2.9611,1.441349 4.37654,2.149068 1.44646,0.72323 2.47148,0.971401 3.88012,1.675722 1.45431,0.727156 2.95585,1.716969 4.35585,2.416971 1.46493,0.732468 3.08585,1.082703 4.47538,1.777472 1.47913,0.739565 2.59923,2.105505 3.97387,2.792822 1.50126,0.750628 3.3822,1.084315 4.7343,1.760367 1.54016,0.770079 3.06588,1.358281 4.37699,2.013833 1.63313,0.816566 3.12264,1.885742 4.33446,2.491652 2.71975,1.359877 4.22054,2.076065 4.22054,2.076065 0,0 -1.40494,0.590499 -4.1245,1.95028 -1.21179,0.605895 -2.83254,1.65004 -4.46565,2.466598 -1.31086,0.655426 -2.68871,1.349166 -4.22855,2.119084 -1.35177,0.675885 -3.0194,0.766 -4.52027,1.516435 -1.37467,0.687335 -2.87131,1.43048 -4.3505,2.170074 -1.38954,0.694771 -2.7631,1.925276 -4.22805,2.657753 -1.40025,0.700126 -2.90738,1.05966 -4.36197,1.786956 -1.40837,0.704187 -3.05513,1.502901 -4.50131,2.226001 -1.41573,0.70786 -2.47368,1.78155 -3.91338,2.5014 -1.42181,0.71091 -3.26166,1.17537 -4.69512,1.8921 -1.42751,0.71375 -2.36195,1.1303 -3.78946,1.84405 -1.43329,0.71665 -2.76201,1.41811 -4.18366,2.12894 -1.43941,0.7197 -3.02345,2.04565 -4.43889,2.75337 -1.44646,0.72323 -2.62184,0.92487 -4.03048,1.62919 -1.45431,0.72716 -3.11037,1.8966 -4.51038,2.5966 -1.46493,0.73247 -3.33279,1.46493 -4.72233,2.1597 -1.47913,0.73956 -2.347165,1.20664 -3.721799,1.89396 -1.501257,0.75063 -3.170869,1.22774 -4.522972,1.90379 -1.540159,0.77008 -3.404758,1.4369 -4.715861,2.09245 -1.633134,0.81657 -2.367403,1.84083 -3.579223,2.44674 -2.719755,1.35988 -4.267918,2.23084 -4.267918,2.23084 0,0 -0.08165,-2.05622 -0.07913,-4.40682 0.0013,-1.19373 -0.02879,-2.04414 -0.02725,-3.47596 0.0014,-1.31742 0.01054,-2.81023 0.01196,-4.12765 0.0015,-1.43131 -0.589052,-2.55468 -0.587769,-3.74814 0.0025,-2.35144 0.253412,-4.23695 0.253412,-4.23695"
     id="path9354"
     style="fill:none;stroke:#000000;stroke-width:2;stroke-linecap:round;stroke-linejoin:round;stroke-miterlimit:4;stroke-dasharray:none;stroke-opacity:1"
     inkscape:connector-curvature="0" />
  <path
     d="m 196.14647,83.947761 c 0,0 -2.15019,0.0847 -5.08843,0.0847 -1.49217,0 -3.11629,0.02218 -4.90606,0.02218 -1.64677,0 -3.78865,0.281365 -5.43542,0.281365 -1.78979,0 -3.36482,-0.447376 -4.85702,-0.447376 -2.93843,0 -5.07944,0.384725 -5.07944,0.384725"
     id="path11146"
     style="fill:none;stroke:#000000;stroke-width:2;stroke-linecap:round;stroke-linejoin:round;stroke-miterlimit:4;stroke-dasharray:none;stroke-opacity:1"
     inkscape:connector-curvature="0" />
  <path
     d="m 121.17882,134.27396 c 0,0 -0.21407,-1.82114 -0.21407,-4.75939 0,-1.49216 -0.33357,-3.78754 -0.33357,-5.57732 0,-1.64677 0.37532,-3.4133 0.37532,-5.06008 0,-1.78978 -0.53419,-3.47496 -0.53419,-4.96717 0,-2.93843 0.13058,-4.56342 0.13058,-4.56342"
     id="path12035"
     style="fill:none;stroke:#000000;stroke-width:2;stroke-linecap:round;stroke-linejoin:round;stroke-miterlimit:4;stroke-dasharray:none;stroke-opacity:1"
     inkscape:connector-curvature="0" />
  <path
     d="m 121.09998,59.173811 c 0,0 -0.57504,-1.902735 -0.57504,-4.840978 0,-1.492168 0.45122,-3.731351 0.45122,-5.521126 0,-1.646767 0.0348,-3.342042 0.0348,-4.988819 0,-1.789785 -0.51297,-3.157926 -0.51297,-4.650129 0,-2.938433 0.59259,-5.35178 0.59259,-5.35178"
     id="path12037"
     style="fill:none;stroke:#000000;stroke-width:2;stroke-linecap:round;stroke-linejoin:round;stroke-miterlimit:4;stroke-dasharray:none;stroke-opacity:1"
     inkscape:connector-curvature="0" />
  <path
     d="m 202.1627,84.298596 c 0,1.071796 -0.98383,1.793282 -1.91203,2.32918 -0.92821,0.535898 -1.59221,1.032579 -2.52041,0.49668 -0.9282,-0.535898 -1.98957,-2.149697 -1.98957,-3.221494 0,-1.071797 0.34866,-2.121549 1.27686,-2.657448 0.92821,-0.535898 2.09377,0.101941 3.02197,0.63784 0.92821,0.535898 1.89906,1.407423 1.89906,2.479219 0,0 0.24968,-0.301643 0.24968,-0.301643"
     id="path12041"
     style="fill:none;stroke:#000000;stroke-width:2;stroke-linecap:round;stroke-linejoin:round;stroke-miterlimit:4;stroke-dasharray:none;stroke-opacity:1"
     inkscape:connector-curvature="0" />
  <path
     d="m 123.85525,30.05228 c 0,1.071796 -0.35758,2.528102 -1.28578,3.064001 -0.92821,0.535898 -1.99429,0.184966 -2.92249,-0.350933 -0.9282,-0.535898 -2.13293,-1.941917 -2.13293,-3.013714 0,-1.071797 0.57825,-1.409748 1.50645,-1.945646 0.9282,-0.535899 2.09002,-0.942937 3.01822,-0.407038 0.92821,0.535898 1.93523,1.525869 1.93523,2.597665 0,0 -0.52749,-0.220029 -0.52749,-0.220029"
     id="path12043"
     style="fill:none;stroke:#000000;stroke-width:2;stroke-linecap:round;stroke-linejoin:round;stroke-miterlimit:4;stroke-dasharray:none;stroke-opacity:1"
     inkscape:connector-curvature="0" />
  <path
     d="m 124.03273,138.07951 c 0,1.0718 -0.5659,2.3405 -1.4941,2.8764 -0.92821,0.5359 -1.8773,0.57055 -2.8055,0.0346 -0.92821,-0.53589 -1.73326,-1.80204 -1.73326,-2.87384 0,-1.0718 0.77385,-1.8573 1.70205,-2.3932 0.9282,-0.5359 1.61919,-0.36987 2.5474,0.16603 0.9282,0.5359 1.75485,1.37111 1.75485,2.44291 0,0 -0.11174,-0.58658 -0.11174,-0.58658"
     id="path12045"
     style="fill:none;stroke:#000000;stroke-width:2;stroke-linecap:round;stroke-linejoin:round;stroke-miterlimit:4;stroke-dasharray:none;stroke-opacity:1"
     inkscape:connector-curvature="0" />
  <path
     d="m 55.531363,109.37126 c 0,1.07179 -0.165996,1.78199 -1.0942,2.31789 -0.928203,0.5359 -1.923386,0.79182 -2.851589,0.25592 -0.928203,-0.5359 -1.675328,-1.34852 -1.675328,-2.42032 0,-1.07179 0.851858,-2.4435 1.780062,-2.9794 0.928203,-0.5359 1.993349,-0.69487 2.921552,-0.15898 0.928204,0.5359 1.194322,1.86208 1.194322,2.93388 0,0 -0.338652,0.0981 -0.338652,0.0981"
     id="path12047"
     style="fill:none;stroke:#000000;stroke-width:2;stroke-linecap:round;stroke-linejoin:round;stroke-miterlimit:4;stroke-dasharray:none;stroke-opacity:1"
     inkscape:connector-curvature="0" />
  <path
     d="m 55.482393,58.92972 c 0,1.071797 -0.590585,1.890986 -1.518788,2.426884 -0.928203,0.535898 -1.942105,0.603066 -2.870308,0.06717 -0.928204,-0.535898 -0.994085,-1.176929 -0.994085,-2.248726 0,-1.071797 0.15367,-2.202892 1.081873,-2.738791 0.928204,-0.535898 2.546548,-0.259753 3.474752,0.276145 0.928203,0.535898 0.984464,1.408524 0.984464,2.480321 0,0 -0.141237,-0.27719 -0.141237,-0.27719"
     id="path12051"
     style="fill:none;stroke:#000000;stroke-width:2;stroke-linecap:round;stroke-linejoin:round;stroke-miterlimit:4;stroke-dasharray:none;stroke-opacity:1"
     inkscape:connector-curvature="0" />
  <g
     transform="translate(-436.16057,-271.49929)"
     id="g1988">
    <path
       d="m 532,326.6414 v 8"
       id="path12147"
       style="fill:none;stroke:#000000;stroke-width:2;stroke-linecap:round;stroke-linejoin:round;stroke-miterlimit:4;stroke-dasharray:none;stroke-opacity:1"
       inkscape:connector-curvature="0" />
    <path
       d="m 536,330.6414 h -8"
       id="path13034"
       style="fill:none;stroke:#000000;stroke-width:2;stroke-linecap:round;stroke-linejoin:round;stroke-miterlimit:4;stroke-dasharray:none;stroke-opacity:1"
       inkscape:connector-curvature="0" />
  </g>
  <path
     d="m 99.955704,109.25546 c 0,0 -2.480622,-0.14019 -4.480622,-0.14019 -2,0 -3.393162,-0.18751 -3.393162,-0.18751"
     id="path13036"
     style="fill:none;stroke:#000000;stroke-width:2;stroke-linecap:round;stroke-linejoin:round;stroke-miterlimit:4;stroke-dasharray:none;stroke-opacity:1"
     inkscape:connector-curvature="0" />
  <path
     style="fill:#000000;stroke:none;stroke-width:0.016"
     inkscape:connector-curvature="0"
     d="m 8.5476035,50.421679 c -0.224,0.032 -0.704,0.16 -1.056,0.304 -0.896,0.32 -1.024,0.8 -0.4,1.376 0.592,0.528 2.208,0.752 3.2959995,0.448 0.384,-0.112 0.784,-0.16 0.912,-0.128 0.16,0.064 0.208001,0.816 0.240001,3.472 0.016,1.872 0.096,3.488 0.176,3.584 0.096,0.112 0.144,0.88 0.128,1.712 -0.032,0.848 0.032,1.616 0.112,1.728 0.272,0.352 -0.176,0.512 -1.488001,0.512 -0.6559995,0.016 -1.5519995,0.112 -1.9999995,0.224 l -0.8,0.224 0.048,0.768 c 0.032,0.432 0.144,0.832 0.24,0.896 0.224,0.144 1.728,0.048 3.4399995,-0.224 0.704001,-0.112 2.144001,-0.144 3.648001,-0.08 2.384,0.08 2.496,0.064 2.88,-0.256 0.352,-0.32 0.368,-0.416 0.224,-0.896 -0.08,-0.304 -0.24,-0.608 -0.352,-0.688 -0.112,-0.064 -1.072,-0.128 -2.128,-0.144 -2.88,-0.032 -2.672,0.144 -2.768,-2.224 -0.16,-4.224 -0.128,-7.584 0.112,-8.112 0.24,-0.576 0.416,-0.656 1.504,-0.656 0.928,0 1.552,-0.368 1.552,-0.912 0,-0.784 -0.464,-0.896 -3.952,-0.944 -1.744001,-0.032 -3.3440005,-0.016 -3.5680005,0.016 z"
     id="path907" />
  <path
     style="fill:#000000;stroke:none;stroke-width:0.016"
     inkscape:connector-curvature="0"
     d="m 39.315603,54.821679 c -0.192,0.208 -0.384,0.656 -0.432,1.008 -0.064,0.352 -0.16,0.736 -0.24,0.848 -0.128,0.224 -1.44,0.288 -2.224,0.112 -0.752,-0.16 -1.312,0.24 -1.312,0.944 0,0.688 0.448,0.896 2.192,1.04 0.72,0.064 1.392,0.176 1.472,0.256 0.08,0.096 0.336,0.736 0.56,1.44 0.544,1.6 0.8,2 1.296,2 0.832,0 0.912,-1.28 0.144,-2.432 -0.688,-1.072 -0.56,-1.168 1.936,-1.168 1.648,0 2,-0.048 2.48,-0.32 0.608,-0.368 0.816,-1.056 0.48,-1.68 -0.208,-0.4 -1.264,-0.448 -2.144,-0.08 -0.608,0.256 -2.048,0.352 -2.624,0.176 l -0.352,-0.112 0.336,-0.464 c 0.288,-0.368 0.32,-0.576 0.24,-1.184 l -0.112,-0.736 h -0.688 c -0.496,0 -0.768,0.096 -1.008,0.352 z"
     id="path909" />
  <path
     style="fill:#000000;stroke:none;stroke-width:0.016"
     inkscape:connector-curvature="0"
     d="m 28.083604,55.685679 c -0.4,0.512 -0.384,0.352 -0.112,2 0.128,0.736 0.272,1.632 0.32,1.984 0.032,0.352 0.08,0.704 0.096,0.8 0.08,0.336 0,0.528 -0.24,0.624 -0.24,0.08 -1.024,-0.592 -3.824,-3.328 -1.568,-1.504 -2.912,-2.464 -3.168,-2.208 -0.112,0.112 -0.192,1.248 -0.224,2.944 -0.032,1.52 -0.128,3.376 -0.24,4.128 -0.224,1.664 -0.16,2.224 0.256,2.496 0.288,0.192 0.384,0.176 0.704,-0.048 l 0.384,-0.256 -0.08,-3.056 c -0.048,-1.68 -0.048,-3.152 -0.016,-3.264 0.048,-0.096 0.192,-0.192 0.32,-0.192 0.336,0 1.872,1.248 2.192,1.776 0.128,0.24 0.48,0.512 0.768,0.64 0.624,0.24 3.184,2.752 3.552,3.472 0.176,0.352 0.384,0.512 0.64,0.512 0.736,0 0.816,-0.32 0.592,-2.368 -0.112,-1.024 -0.256,-2.848 -0.32,-4.032 -0.112,-2.16 -0.272,-2.752 -0.752,-2.944 -0.4,-0.16 -0.496,-0.112 -0.848,0.32 z"
     id="path911" />
  <path
     style="fill:#000000;stroke:none;stroke-width:0.016"
     inkscape:connector-curvature="0"
     d="m 9.6169605,103.37472 c -0.288,0.272 -0.784,0.816 -1.104,1.2 -0.464,0.544 -0.544,0.736 -0.4,0.912 0.288,0.352 0.896,0.272 1.616,-0.224 0.5759995,-0.368 0.8639995,-0.432 2.0799995,-0.48 l 1.408,-0.064 0.176,0.464 c 0.112,0.272 0.144,1.008 0.08,1.968 -0.08,1.36 0.208,5.456 0.48,6.832 0.08,0.4 0.032,0.528 -0.224,0.672 -0.352,0.192 -2.144,0.272 -2.4,0.112 -0.24,-0.144 -0.784,0.144 -0.976,0.528 -0.224,0.416 0.08,1.408 0.464,1.536 0.16,0.048 0.896,0.016 1.632,-0.08 0.736,-0.08 2.848,-0.192 4.704,-0.224 1.856,-0.016 3.456,-0.096 3.552,-0.16 0.304,-0.192 0.224,-1.024 -0.144,-1.392 -0.32,-0.32 -0.432,-0.336 -2.32,-0.224 -2.528,0.144 -2.688,0.064 -2.848,-1.392 -0.048,-0.576 -0.208,-1.424 -0.352,-1.904 -0.368,-1.264 -0.592,-3.056 -0.608,-4.848 0,-1.312 0.032,-1.6 0.272,-1.776 0.16,-0.112 1.136,-0.24 2.448,-0.304 2.608,-0.144 2.944,-0.24 2.944,-0.88 0,-0.24 -0.096,-0.528 -0.192,-0.624 -0.128,-0.096 -1.984,-0.16 -4.976,-0.144 h -4.784 z"
     id="path913" />
  <path
     style="fill:#000000;stroke:none;stroke-width:0.016"
     inkscape:connector-curvature="0"
     d="m 29.39296,105.56672 c -0.32,0.128 -0.352,0.224 -0.288,0.832 0.048,0.368 0.16,0.992 0.256,1.392 0.336,1.424 0.64,3.408 0.56,3.536 -0.128,0.208 -0.896,0.16 -1.28,-0.064 -0.608,-0.352 -2.736,-2.432 -2.848,-2.8 -0.064,-0.192 -0.208,-0.352 -0.336,-0.352 -0.128,0 -0.416,-0.304 -0.672,-0.688 -0.56,-0.816 -1.088,-0.944 -1.712,-0.4 l -0.416,0.368 -0.016,2.8 c -0.016,4.592 -0.016,4.832 0.32,5.264 0.368,0.48 0.992,0.368 1.264,-0.224 0.304,-0.672 0.24,-1.792 -0.144,-2.304 -0.416,-0.576 -0.8,-2.144 -0.672,-2.8 0.128,-0.64 0.336,-0.896 0.752,-0.896 0.32,0 1.488,0.928 1.792,1.44 0.08,0.144 0.576,0.592 1.104,1.024 1.584,1.248 2.384,2.048 2.816,2.816 0.32,0.576 0.496,0.736 0.912,0.768 0.576,0.064 0.816,-0.256 0.736,-1.008 -0.016,-0.272 -0.08,-1.296 -0.128,-2.288 -0.048,-0.992 -0.176,-2.288 -0.272,-2.88 -0.096,-0.592 -0.176,-1.408 -0.16,-1.824 0.032,-0.816 -0.288,-1.632 -0.704,-1.792 -0.32,-0.112 -0.384,-0.112 -0.864,0.08 z"
     id="path915" />
  <path
     style="fill:#000000;stroke:none;stroke-width:0.016"
     inkscape:connector-curvature="0"
     d="m 44.57696,108.30272 c -0.256,0.096 -1.68,0.128 -3.936,0.08 -2.016,-0.032 -3.648,0 -3.808,0.08 -0.368,0.208 -0.32,0.832 0.112,1.312 0.352,0.4 0.384,0.4 4.144,0.576 3.456,0.16 3.856,0.144 4.32,-0.096 0.64,-0.32 0.768,-0.496 0.768,-1.024 0,-0.928 -0.672,-1.312 -1.6,-0.928 z"
     id="path917" />
  <path
     style="fill:#000000;stroke:none;stroke-width:0.016"
     inkscape:connector-curvature="0"
     d="m 124.69078,8.5239285 c -0.352,0.128 -0.56,1.2640004 -0.368,1.9360005 0.48,1.744 0.08,2.096 -1.984,1.808 -1.552,-0.208 -2.016,-0.016 -2.016,0.848 0,0.912 0.336,1.056 2.416,1.056 1.232,0 1.92,0.064 2.096,0.192 0.176,0.144 0.288,0.592 0.352,1.488 0.208,2.8 0.256,3.072 0.688,3.264 0.336,0.16 0.464,0.144 0.704,-0.08 0.416,-0.384 0.336,-2.448 -0.16,-3.344 -0.608,-1.152 -0.352,-1.68 0.8,-1.648 0.304,0.016 1.52,-0.032 2.704,-0.112 1.84,-0.096 2.208,-0.176 2.528,-0.448 0.432,-0.4 0.48,-1.232 0.064,-1.6 -0.384,-0.352 -0.512,-0.352 -1.552,0.144 -0.864,0.416 -0.976,0.432 -2.8,0.336 -1.04,-0.064 -2.08,-0.176 -2.32,-0.272 -0.48,-0.176 -0.48,-0.192 -0.144,-2.4960005 0.128,-0.88 -0.32,-1.36 -1.008,-1.072 z"
     id="path919" />
  <path
     style="fill:#000000;stroke:none;stroke-width:0.016"
     inkscape:connector-curvature="0"
     d="m 116.49878,10.203929 c -0.192,0.064 -0.432,0.336 -0.512,0.608 -0.096,0.256 -0.256,0.48 -0.336,0.48 -0.096,0 -0.128,0.208 -0.064,0.512 0.064,0.288 0.192,0.928 0.288,1.408 0.096,0.48 0.176,1.344 0.176,1.92 0,1.584 -0.752,4.432 -1.376,5.216 -0.4,0.512 -0.608,0.336 -0.992,-0.896 -0.16,-0.48 -0.336,-0.96 -0.4,-1.04 -0.08,-0.096 -0.432,-0.832 -0.784,-1.664 -0.368,-0.816 -0.896,-1.824 -1.184,-2.24 -0.272,-0.4 -0.528,-0.88 -0.544,-1.056 -0.096,-1.024 -0.432,-2.176 -0.704,-2.416 -0.272,-0.24 -0.32,-0.256 -0.704,0 -0.224,0.144 -0.4,0.352 -0.4,0.48 0,0.464 0.48,1.744 0.832,2.224 0.208,0.288 0.512,0.944 0.688,1.472 0.16,0.528 0.496,1.28 0.736,1.68 0.224,0.4 0.56,1.072 0.704,1.52 0.16,0.432 0.416,0.944 0.576,1.12 0.144,0.176 0.32,0.752 0.384,1.28 0.112,1.088 0.384,2.144 0.608,2.432 0.32,0.432 1.024,0.24 1.616,-0.464 0.32,-0.368 0.576,-0.72 0.576,-0.784 0,-0.08 0.208,-0.432 0.448,-0.816 0.256,-0.384 0.544,-0.976 0.64,-1.328 0.368,-1.28 0.688,-3.12 0.592,-3.296 -0.064,-0.096 -0.032,-0.72 0.048,-1.392 0.448,-3.264 0.544,-4.512 0.368,-4.736 -0.24,-0.288 -0.832,-0.4 -1.28,-0.224 z"
     id="path921" />
  <path
     style="fill:#000000;stroke:none;stroke-width:0.016"
     inkscape:connector-curvature="0"
     d="m 120.63895,144.45145 c -0.144,0.096 -0.192,0.304 -0.128,0.624 0.048,0.256 0.032,0.528 -0.048,0.608 -0.096,0.096 -0.096,0.368 0,0.704 0.08,0.304 0.208,1.088 0.256,1.76 0.096,1.184 0.064,1.376 -0.736,5.12 -0.16,0.72 -0.256,0.96 -1.024,2.288 -0.528,0.944 -0.672,1.088 -1.024,1.04 -0.448,-0.048 -1.152,-1.072 -1.584,-2.288 -0.112,-0.352 -0.32,-0.72 -0.432,-0.8 -0.24,-0.176 -0.784,-1.232 -0.976,-1.84 -0.064,-0.224 -0.368,-0.896 -0.672,-1.52 -0.48,-0.976 -0.544,-1.216 -0.464,-1.872 0.192,-1.392 -0.608,-2.256 -1.488,-1.6 -0.224,0.16 -0.432,0.416 -0.464,0.544 -0.032,0.128 0.288,0.912 0.672,1.744 0.4,0.832 0.736,1.632 0.736,1.776 0,0.4 0.608,1.744 1.056,2.336 0.224,0.272 0.624,0.992 0.896,1.6 0.288,0.592 0.768,1.472 1.104,1.952 0.32,0.48 0.736,1.184 0.928,1.552 0.208,0.416 0.448,0.688 0.624,0.688 0.384,0 2.016,-1.632 2.272,-2.272 0.128,-0.288 0.368,-0.752 0.56,-1.008 0.384,-0.544 0.78401,-1.872 1.04001,-3.504 0.096,-0.608 0.256,-1.248 0.336,-1.408 0.08,-0.16 0.192,-1.168 0.224,-2.256 0.048,-1.072 0.112,-2.24 0.16,-2.608 0.048,-0.352 0.016,-0.848 -0.064,-1.072 -0.144,-0.384 -0.256,-0.432 -0.848,-0.432 -0.38401,0 -0.78401,0.064 -0.91201,0.144 z"
     id="path923" />
  <path
     style="fill:#000000;stroke:none;stroke-width:0.016"
     inkscape:connector-curvature="0"
     d="m 130.94296,145.93945 c -0.88,0.256 -1.664,0.32 -3.632,0.352 -1.76,0.032 -2.592,0.112 -2.768,0.256 -0.336,0.288 -0.32,1.472 0.048,1.808 0.24,0.224 0.512,0.24 2.112,0.096 1.008,-0.08 2.72,-0.208 3.792,-0.288 2.512,-0.16 2.832,-0.336 2.736,-1.488 -0.128,-1.2 -0.416,-1.296 -2.288,-0.736 z"
     id="path925" />
  <path
     style="fill:#000000;stroke:none;stroke-width:0.016"
     inkscape:connector-curvature="0"
     d="m 210.63271,77.086081 c -0.144,0.24 -0.272,0.592 -0.272,0.784 0,0.208 -0.368,0.976 -0.816,1.728 -0.448,0.752 -1.024,1.792 -1.296,2.32 -0.48,0.928 -0.48,1.008 -0.4,2.432 0.176,2.592 1.152,4.112 3.408,5.248 0.864,0.432 1.104,0.48 2.848,0.528 1.776,0.064 1.984,0.032 2.992,-0.368 1.52,-0.608 1.856,-1.04 2.32,-2.8 0.4,-1.552 0.384,-1.904 -0.32,-3.76 -0.128,-0.352 -0.24,-0.784 -0.256,-0.976 0,-0.32 -1.376,-2.288 -2.192,-3.152 -0.224,-0.24 -0.544,-0.432 -0.704,-0.432 -0.16,0 -0.352,-0.096 -0.416,-0.208 -0.416,-0.672 -2.256,-1.504 -3.744,-1.648 -0.816,-0.096 -0.896,-0.08 -1.152,0.304 z m 4,2.192 c 0.64,0.24 2.56,2.336 2.784,3.024 0.096,0.32 0.272,0.784 0.384,1.056 0.528,1.2 0.752,2.16 0.576,2.384 -0.112,0.128 -0.224,0.608 -0.288,1.072 -0.096,0.88 -0.528,1.584 -0.96,1.584 -0.128,0 -0.448,0.112 -0.736,0.272 -0.752,0.384 -3.424,0.304 -4.368,-0.112 -0.384,-0.176 -0.752,-0.32 -0.832,-0.32 -0.272,0 -1.36,-0.96 -1.696,-1.488 -0.864,-1.376 -1.056,-3.056 -0.464,-4.192 0.176,-0.352 0.48,-1.104 0.672,-1.68 0.576,-1.664 0.72,-1.76 2.752,-1.76 0.944,0 1.92,0.08 2.176,0.16 z"
     id="path933" />
  <path
     style="fill:#000000;stroke:none;stroke-width:0.016"
     inkscape:connector-curvature="0"
     d="m 238.20071,77.886081 c -0.048,0.048 -1.2,0.128 -2.56,0.176 -2.64,0.096 -3.536,0.288 -4.032,0.896 -0.368,0.464 -0.368,0.688 0.032,1.04 0.32,0.288 0.416,0.288 1.648,0.08 2.304,-0.384 3.152,-0.24 2.72,0.464 -0.144,0.24 -0.128,0.512 0.128,1.312 0.208,0.672 0.336,1.632 0.384,2.8 0.048,1.36 0.128,1.904 0.368,2.32 0.352,0.624 0.88,0.784 1.328,0.368 0.256,-0.224 0.288,-0.416 0.208,-1.168 -0.064,-0.496 -0.176,-1.024 -0.256,-1.2 -0.096,-0.16 -0.288,-0.736 -0.432,-1.28 -0.224,-0.832 -0.256,-1.232 -0.128,-2.432 0.08,-0.784 0.24,-1.472 0.336,-1.536 0.304,-0.208 3.808,-0.128 4.816,0.096 1.168,0.288 1.456,0.16 1.6,-0.72 0.192,-1.088 0.064,-1.136 -3.232,-1.232 -1.568,-0.032 -2.88,-0.032 -2.928,0.016 z"
     id="path935" />
  <path
     style="fill:#000000;stroke:none;stroke-width:0.016"
     inkscape:connector-curvature="0"
     d="m 227.80071,78.622081 c -0.352,0.096 -0.4,0.208 -0.448,1.024 -0.048,0.784 -0.016,0.912 0.24,0.912 0.544,0 0.704,0.272 0.864,1.376 0.16,1.04 0.144,1.184 -0.336,2.512 -0.56,1.52 -1.152,2.192 -1.968,2.192 -0.496,0 -1.552,-0.592 -1.552,-0.88 0,-0.112 -0.112,-0.288 -0.256,-0.416 -0.352,-0.288 -0.8,-1.232 -0.928,-1.952 -0.08,-0.4 -0.016,-0.928 0.144,-1.504 0.144,-0.48 0.224,-0.992 0.176,-1.104 -0.128,-0.336 -0.768,-0.528 -1.12,-0.352 -0.288,0.16 -0.288,0.304 -0.208,2.032 0.08,1.392 0.192,2.08 0.448,2.64 0.944,2.144 2.688,3.808 3.712,3.552 0.928,-0.224 2.848,-2.496 2.928,-3.456 0.016,-0.224 0.128,-0.72 0.24,-1.12 0.224,-0.832 0.288,-3.568 0.096,-4.176 -0.144,-0.496 -0.864,-1.2 -1.312,-1.312 -0.176,-0.048 -0.496,-0.032 -0.72,0.032 z"
     id="path937" />
</svg>
