<?xml version="1.0" encoding="UTF-8" standalone="no"?>
<svg
   xmlns:dc="http://purl.org/dc/elements/1.1/"
   xmlns:cc="http://creativecommons.org/ns#"
   xmlns:rdf="http://www.w3.org/1999/02/22-rdf-syntax-ns#"
   xmlns:svg="http://www.w3.org/2000/svg"
   xmlns="http://www.w3.org/2000/svg"
   xmlns:sodipodi="http://sodipodi.sourceforge.net/DTD/sodipodi-0.dtd"
   xmlns:inkscape="http://www.inkscape.org/namespaces/inkscape"
   version="1.0"
   width="393.120000pt"
   height="306.000000pt"
   viewBox="0 0 393.120000 306.000000"
   preserveAspectRatio="xMidYMid meet"
   id="svg68"
   sodipodi:docname="seventh-grade-project.svg"
   inkscape:version="0.92.3 (2405546, 2018-03-11)">
  <defs
     id="defs72" />
  <sodipodi:namedview
     pagecolor="#ffffff"
     bordercolor="#666666"
     borderopacity="1"
     objecttolerance="10"
     gridtolerance="10"
     guidetolerance="10"
     inkscape:pageopacity="0"
     inkscape:pageshadow="2"
     inkscape:window-width="1766"
     inkscape:window-height="1300"
     id="namedview70"
     showgrid="false"
     showguides="true"
     inkscape:guide-bbox="true"
     inkscape:snap-global="false"
     inkscape:zoom="1.1568628"
     inkscape:cx="242.90458"
     inkscape:cy="50.392565"
     inkscape:window-x="711"
     inkscape:window-y="136"
     inkscape:window-maximized="0"
     inkscape:current-layer="svg68" />
  <metadata
     id="metadata2">
Created by potrace 1.15, written by Peter Selinger 2001-2017
<rdf:RDF>
  <cc:Work
     rdf:about="">
    <dc:format>image/svg+xml</dc:format>
    <dc:type
       rdf:resource="http://purl.org/dc/dcmitype/StillImage" />
  </cc:Work>
</rdf:RDF>
</metadata>
  <path
     style="fill:#000000;stroke:none;stroke-width:0.012"
     inkscape:connector-curvature="0"
     id="path8"
     d="m 234.44664,74.128496 c -0.31058,0.100511 -0.44048,0.246409 -0.52047,0.523597 -0.0805,0.241192 -0.23389,0.423434 -0.46047,0.522728 -0.19076,0.08677 -0.41596,0.282058 -0.52169,0.439607 -0.0939,0.145376 -0.23597,0.279449 -0.30796,0.280492 -0.072,0.001 -0.29736,0.184329 -0.49839,0.391264 -0.21284,0.219108 -0.65036,0.669496 -0.99363,0.998505 -0.33127,0.328835 -0.60289,0.632803 -0.6022,0.680798 0.002,0.143985 -2.13803,2.359233 -2.66041,2.750844 -0.52255,0.379613 -1.74051,1.633395 -2.38879,2.446876 -0.56568,0.716273 -0.854,0.696449 -1.57323,-0.07321 l -0.56081,-0.603936 -0.77887,0.0833 c -1.91684,0.231803 -3.2054,0.754532 -4.34285,1.767122 -0.95955,0.865997 -1.24665,0.930164 -3.91141,0.896779 -3.21688,-0.03739 -7.28724,-0.170411 -8.17654,-0.253532 -1.37029,-0.148157 -2.04274,-0.174414 -4.61134,-0.197192 -2.6046,-0.02226 -3.62292,0.100514 -3.91767,0.464824 -0.0824,0.109206 -0.14521,0.746183 -0.15633,1.634437 -0.0127,1.608353 -0.044,1.932841 -0.20728,3.087328 -0.0657,0.432998 -0.12173,1.537926 -0.12034,2.462003 -0.0106,0.92425 -0.0569,1.87302 -0.11355,2.101866 -0.0567,0.228846 -0.12625,1.225958 -0.15981,2.222549 l -0.0459,1.800855 -0.95938,0.04991 c -0.52777,0.01965 -1.07919,0.06365 -1.22265,0.10173 -0.33475,0.08886 -1.10511,0.760095 -1.10197,0.976072 0.001,0.08399 -0.0812,0.193197 -0.18868,0.230759 -0.27441,0.111989 -1.42663,0.104689 -2.50843,-0.01165 -0.52882,-0.05234 -2.25785,-0.111291 -3.84221,-0.124331 -1.58435,-0.01304 -4.06931,-0.06103 -5.52203,-0.09999 -1.45289,-0.05095 -2.88126,-0.06625 -3.18105,-0.0499 -0.68341,0.04591 -1.67948,0.04834 -7.10448,0.01896 -4.06879,-0.02504 -4.42857,-0.0078 -4.72576,0.188507 -0.27336,0.183983 -0.30814,0.268493 -0.23076,0.639413 0.0396,0.25145 0.16346,0.51368 0.28449,0.58394 0.15773,0.11772 1.65809,0.13198 6.56558,0.0609 3.50363,-0.0508 7.08012,-0.0426 7.9329,0.005 0.86495,0.0595 3.45825,0.12989 5.76288,0.1565 3.64918,0.0551 4.70611,0.11181 6.02962,0.34465 0.16851,0.0336 0.37527,0.22259 0.51125,0.49664 0.40675,0.73819 1.36508,1.44437 1.95302,1.43585 0.14398,-0.002 0.36083,0.0548 0.48169,0.11303 0.22971,0.11669 0.2318,0.26067 0.21528,3.26122 -0.0108,1.74034 -0.0497,3.19306 -0.073,3.2414 -0.0353,0.0485 0.008,0.53994 0.0876,1.07884 0.068,0.55108 0.1965,1.96537 0.27372,3.15238 0.11042,1.82259 0.10433,2.23072 -0.0454,2.66493 -0.16172,0.43439 -0.15998,0.55438 -0.0123,0.80427 0.13581,0.26206 0.13789,0.40604 0.0127,0.8759 -0.21563,0.85522 -0.18328,1.43081 0.0979,1.78677 0.34258,0.45109 1.30595,0.67715 2.45627,0.55247 1.65391,-0.15599 2.92369,-0.31841 3.6537,-0.461 1.60383,-0.29928 9.85566,-0.6469 10.20693,-0.42397 0.0727,0.0469 0.36814,0.55873 0.65245,1.13067 0.60551,1.20335 0.96982,1.4981 2.15004,1.78102 1.75825,0.41857 3.46851,0.01 4.43692,-1.07241 0.37788,-0.42552 0.70654,-0.93434 0.85678,-1.33255 0.0807,-0.2292 0.22068,-0.50726 0.30328,-0.60446 0.0826,-0.0972 0.19928,-0.32693 0.26866,-0.50795 0.069,-0.20502 0.23493,-0.35144 0.42622,-0.40222 0.16746,-0.0384 0.43074,-0.0903 0.5982,-0.12868 0.16746,-0.0384 0.46429,-0.25876 0.67679,-0.50186 0.2125,-0.24311 0.54447,-0.52395 0.73506,-0.62272 0.19059,-0.0988 0.67732,-0.46587 1.09223,-0.81992 0.40309,-0.34187 0.96059,-0.794 1.23378,-0.98998 0.64115,-0.47734 2.14447,-1.91528 3.5158,-3.35131 1.02859,-1.07102 1.09902,-1.18005 1.09224,-1.648 -0.004,-0.29997 -0.0802,-0.5629 -0.18938,-0.64533 -0.29144,-0.2358 -1.24021,-0.28205 -1.47723,-0.0746 -0.1066,0.0975 -0.63002,0.41718 -1.14197,0.70063 -0.52394,0.28362 -1.07084,0.63958 -1.21274,0.78566 -0.1419,0.14607 -0.47386,0.42691 -0.75888,0.63506 -0.27319,0.19598 -0.60463,0.51282 -0.72201,0.69454 -0.12955,0.1699 -0.59124,0.60864 -1.03015,0.96303 -0.43891,0.3544 -0.9486,0.79383 -1.14997,0.97677 -0.18954,0.17077 -0.83173,0.57612 -1.40315,0.89643 l -1.04772,0.57925 -0.61472,-0.18312 c -0.33735,-0.0911 -0.75992,-0.26501 -0.92946,-0.37056 -0.26658,-0.17616 -0.59107,-0.20746 -1.87494,-0.18885 l -1.55983,0.0226 -0.65385,0.42952 c -0.74896,0.4909 -1.35238,1.08771 -1.58557,1.55914 -0.35005,0.68914 -0.31405,0.68862 -3.79351,0.75105 -2.12361,0.0428 -3.27479,0.10747 -3.38156,0.19303 -0.0948,0.0854 -1.13762,0.1725 -2.66094,0.23059 -1.39133,0.0562 -3.05829,0.14033 -3.71752,0.19789 -1.29482,0.0908 -2.01666,-0.0308 -2.21368,-0.37596 -0.0616,-0.10712 -0.15233,-1.40194 -0.22172,-2.87709 -0.0574,-1.47532 -0.16016,-2.76997 -0.22172,-2.87709 -0.0616,-0.10711 -0.0642,-0.2871 0.005,-0.45613 0.0697,-0.15703 0.0786,-0.37318 0.0289,-0.49247 -0.0377,-0.11946 -0.0849,-0.88686 -0.0969,-1.71478 0,-0.82808 -0.0137,-1.77598 -0.0184,-2.09995 -0.005,-0.33596 0.0383,-0.67262 0.085,-0.75731 0.0588,-0.0849 0.0537,-0.43282 6.9e-4,-0.78009 -0.13251,-0.86217 0.0673,-2.80927 0.34779,-3.32939 0.32675,-0.6408 0.80983,-1.25987 1.28369,-1.68678 0.28449,-0.24415 0.48395,-0.55907 0.57507,-0.89643 0.12503,-0.48186 0.11146,-0.58968 -0.12277,-1.018326 -0.18503,-0.345355 -0.36762,-0.522728 -0.66898,-0.61437 -0.21702,-0.06886 -0.50742,-0.232671 -0.62932,-0.362918 -0.18294,-0.20137 -0.19668,-0.321183 -0.10799,-0.826521 0.0779,-0.421174 0.0748,-0.637151 -0.0104,-0.719925 -0.17041,-0.165548 -0.15389,-1.509928 0.0193,-1.980488 0.081,-0.205195 0.15894,-1.454456 0.19807,-2.895174 0.0254,-1.560532 0.1059,-2.629811 0.18745,-2.799011 0.0936,-0.169373 0.11338,-0.457691 0.061,-0.756964 -0.13042,-0.718185 0.0104,-1.764336 0.2831,-1.996312 0.11842,-0.109728 0.22415,-0.267276 0.22293,-0.351268 -0.003,-0.191979 0.35579,-0.293186 1.03989,-0.2911 0.31214,0.0075 1.46402,-0.0092 2.55591,-0.02504 1.09188,-0.01583 2.32845,0.01426 2.76127,0.06799 0.43283,0.05373 1.75356,0.0946 2.94143,0.07738 1.18788,-0.01722 2.35245,0.01391 2.58147,0.0826 0.22885,0.05669 1.56175,0.109379 2.94213,0.125376 2.92873,0.02956 2.85639,0.0066 3.01829,1.240389 0.14816,1.11397 0.65924,1.598614 2.67694,2.529471 1.99353,0.919206 2.77536,1.039888 3.64397,0.523246 0.74966,-0.44291 0.8919,-0.564985 1.69321,-1.584704 0.64828,-0.813481 0.68288,-0.909992 0.80148,-1.835808 l 0.13007,-0.961986 1.03554,-0.591069 c 1.01155,-0.590722 1.68661,-1.21257 4.34546,-4.071403 0.40187,-0.425868 1.12405,-1.108406 1.59826,-1.511321 0.47421,-0.402914 1.30299,-1.183007 1.84694,-1.742949 0.54411,-0.547943 1.02963,-0.999026 1.08962,-0.999896 0.06,-8.69e-4 0.16572,-0.158418 0.24676,-0.363614 0.0812,-0.193197 0.22189,-0.42326 0.31683,-0.496644 0.30814,-0.268493 0.53977,-0.847911 0.3937,-0.989809 -0.073,-0.07095 -0.13616,-0.286057 -0.13877,-0.466038 -0.004,-0.263972 -0.0894,-0.370744 -0.41526,-0.498034 -0.22937,-0.09269 -0.44813,-0.281536 -0.49804,-0.412826 -0.12537,-0.370222 -0.42691,-0.473863 -0.90442,-0.298924 z m -11.55617,10.836611 c 0.32588,0.12729 0.41161,0.246061 0.48899,0.616978 0.0398,0.263451 0.11721,0.634368 0.15616,0.837825 0.0645,0.311098 0.006,0.443953 -0.38361,0.857649 -0.61437,0.668974 -1.10441,0.80809 -3.03603,0.848088 -1.46367,0.03321 -1.668,0.01217 -1.89893,-0.1885 l -0.26745,-0.236149 0.3817,-0.161549 c 0.32205,-0.136682 0.35718,-0.197197 0.28049,-0.520119 -0.16624,-0.705665 0.0473,-0.876778 2.49087,-2.028311 0.46482,-0.22276 1.28073,-0.234586 1.78781,-0.02591 z m -0.82269,4.512396 c 0.002,0.167983 -0.34414,0.269016 -0.6935,0.178069 l -0.32518,-0.0793 0.29875,-0.08834 c 0.43022,-0.126248 0.71819,-0.130421 0.71993,-0.01043 z m -4.08511,28.658217 c 0.0744,0.16694 0.25614,0.28432 0.42447,0.30588 0.49282,0.0529 0.87,0.40743 0.92512,0.89869 0.0536,0.38326 0.0186,0.45577 -0.25597,0.55576 -0.16694,0.0744 -0.39265,0.23372 -0.51073,0.36744 -0.21232,0.25511 -1.20022,0.82148 -1.7139,0.98495 -0.48969,0.16311 -0.97277,-0.0459 -1.18371,-0.5229 -0.17302,-0.34553 -0.17459,-0.45352 -0.0353,-0.77957 0.0809,-0.2172 0.14903,-0.48222 0.14729,-0.6022 -0.003,-0.19198 0.25684,-0.49578 1.06145,-1.28752 0.0946,-0.0974 0.35753,-0.1732 0.59751,-0.17668 0.32396,-0.005 0.45682,0.0534 0.54377,0.25615 z" />
  <path
     style="fill:#000000;stroke:none;stroke-width:0.012"
     inkscape:connector-curvature="0"
     id="path10"
     d="m 235.7039,82.211124 c -0.19111,0.06278 -0.70514,0.20224 -1.12353,0.316316 -0.81296,0.215804 -2.03822,0.965639 -2.03422,1.24161 10e-4,0.08399 -0.15111,0.338226 -0.33996,0.556985 -0.17685,0.218586 -0.38848,0.521685 -0.47039,0.666887 -0.15146,0.314228 -0.16694,0.902514 -0.009,1.056237 0.14642,0.165896 0.25562,1.076409 0.15024,1.257955 -0.0469,0.07269 0.0424,0.443432 0.20381,0.813132 0.23615,0.560636 0.39474,0.738357 0.96407,1.102144 0.49647,0.304837 0.87069,0.45543 1.36351,0.508293 0.37266,0.0426 0.90217,0.142941 1.16753,0.235105 0.61489,0.195109 0.72288,0.193544 1.46367,-0.03321 0.41822,-0.126074 0.63211,-0.273189 0.72497,-0.490558 0.0696,-0.169026 0.21163,-0.303099 0.30762,-0.30449 0.23998,-0.0035 0.90199,-0.697145 1.25309,-1.314298 0.15181,-0.29023 0.45908,-0.618718 0.67314,-0.753834 0.21407,-0.135117 0.39179,-0.293709 0.39092,-0.353703 -8.7e-4,-0.05999 0.43039,-0.114249 0.9945,-0.110424 0.53994,-0.0078 1.47463,-0.105381 2.06118,-0.209892 0.62236,-0.117032 1.50923,-0.201894 2.09751,-0.186418 2.92944,0.07756 5.02852,-8.73e-4 6.12962,-0.208852 0.63437,-0.117206 1.31725,-0.199111 1.49758,-0.177722 l 0.34849,0.03095 0.0417,2.879697 c 0.023,1.583834 0.003,3.528325 -0.0454,4.321112 -0.0365,0.792612 -0.0755,2.245329 -0.085,3.241572 -0.01,0.984245 -0.006,2.100302 -0.0122,2.472437 -0.003,0.624108 -0.0259,0.696448 -0.32414,0.820783 -0.63211,0.273189 -1.54175,1.270482 -1.68939,1.848682 -0.0798,0.28918 -0.18258,0.65071 -0.22867,0.78339 -0.11581,0.28971 0.0391,1.04354 0.25893,1.30439 0.24415,0.28449 1.22318,0.76235 1.55915,0.75748 0.63593,-0.009 0.6488,0.0506 0.53142,1.88849 -0.0586,0.92495 -0.0824,1.76538 -0.033,1.86068 0.0376,0.10747 0.0164,0.29979 -0.0657,0.433 -0.0814,0.1812 -0.0913,0.32535 0.007,0.47995 0.0741,0.14294 0.089,0.34674 0.0195,0.51577 -0.0577,0.15685 -0.13094,0.90199 -0.16798,1.65861 -0.025,0.75644 -0.1259,2.07804 -0.20971,2.91935 -0.0837,0.8533 -0.12103,1.58592 -0.0842,1.64539 0.0369,0.0595 0.0139,0.13181 -0.0574,0.18085 -0.0595,0.0369 -0.11286,0.49369 -0.10538,1.00963 0.016,1.10389 -0.20224,1.77912 -0.60881,1.88102 -0.15528,0.0503 -1.46315,0.0692 -2.90369,0.0421 -1.45237,-0.015 -4.4651,-0.0433 -6.68556,-0.0591 -2.22046,-0.0158 -4.06931,-0.061 -4.118,-0.10833 -0.0485,-0.0353 -0.13634,-0.29806 -0.2005,-0.58516 -0.17894,-0.75348 -0.56151,-1.48002 -0.87643,-1.67947 -0.30258,-0.17564 -1.83216,-0.54951 -2.26411,-0.54325 -0.31197,0.005 -1.69896,0.36066 -2.27177,0.58499 -0.22675,0.0873 -0.57333,0.18832 -0.76461,0.2391 -0.17946,0.0386 -0.58307,0.34449 -0.89052,0.66098 -1.07571,1.1317 -1.50105,3.25009 -0.86251,4.24894 0.56516,0.90391 2.40149,1.74138 3.78134,1.72138 0.70793,-0.0103 0.83939,-0.0482 1.33795,-0.42743 0.29666,-0.23232 0.85313,-0.75644 1.23135,-1.15797 0.37804,-0.41352 0.79244,-0.80357 0.92355,-0.86547 0.11895,-0.0737 0.22467,-0.23128 0.22276,-0.36327 -0.004,-0.27597 0.51003,-0.41543 1.05224,-0.26728 0.21702,0.0689 1.17709,0.0669 2.22046,0.0158 2.75815,-0.14799 6.58609,-0.17947 9.16808,-0.0609 1.42907,0.0633 2.38914,0.0614 2.52026,-5.2e-4 0.11912,-0.0617 0.36952,-0.17337 0.57281,-0.22432 0.32257,-0.10069 0.35735,-0.1852 0.5022,-0.95538 0.11147,-0.58968 0.11843,-0.93782 0.0313,-1.15258 -0.11234,-0.2984 -0.0322,-1.39168 0.12015,-1.64591 0.0586,-0.0969 0.11773,-0.98581 0.21928,-3.0875 0.0283,-0.52847 0.0666,-1.2011 0.0862,-1.50142 0.0197,-0.30031 0.0506,-1.47688 0.0701,-2.61729 0.0195,-1.1404 0.0534,-2.11299 0.0887,-2.16151 0.0466,-0.0967 0.20293,-1.73112 0.18502,-2.1389 -0.002,-0.15598 0.11546,-0.31371 0.28223,-0.40013 0.15494,-0.0743 0.28553,-0.17216 0.28466,-0.23215 -8.7e-4,-0.06 0.2478,-0.29162 0.55664,-0.51212 0.89052,-0.66098 2.59103,-0.91365 4.51483,-0.6655 0.52916,0.0763 0.97312,0.0699 1.25987,-0.0183 0.38257,-0.10156 3.4059,-0.16938 15.12884,-0.32729 1.28387,-0.0186 4.52353,-0.0656 7.19907,-0.11634 2.67572,-0.0388 4.96748,-0.072 5.09982,-0.0499 0.13233,0.0221 1.89562,-0.0395 3.91054,-0.12868 2.02709,-0.0774 3.79073,-0.11495 3.92324,-0.0809 0.14468,0.0459 0.30362,0.24762 0.36675,0.46273 0.15042,0.44187 0.33457,3.21149 0.41126,6.01867 0.0767,2.80718 0.27685,6.68069 0.36484,6.95544 0.15112,0.48986 0.1572,3.39408 0.005,4.5004 -0.087,0.62532 -0.17198,1.38264 -0.16763,1.6826 -0.0141,0.68428 -0.24867,1.05972 -0.71523,1.16249 -1.07676,0.23163 -2.99742,1.02755 -3.59093,1.4802 -1.86397,1.39516 -2.67015,2.07891 -2.92925,2.4187 -0.15303,0.20624 -0.6721,0.82583 -1.1444,1.36073 -1.0272,1.16701 -2.21385,2.92439 -2.40827,3.58728 -0.0577,0.15685 -0.22084,0.49525 -0.36135,0.73731 -0.15233,0.25424 -0.28049,0.52012 -0.27927,0.60411 -0.0108,0.0842 -0.1026,0.37353 -0.23076,0.63941 -0.12816,0.26589 -0.2318,0.56742 -0.23041,0.66341 0.001,0.096 -0.10051,0.51751 -0.22659,0.92738 -0.2631,0.89191 -0.51594,2.49174 -0.60428,3.84916 -0.0496,0.7208 -0.0195,1.14041 0.13147,1.61827 0.20189,0.68114 0.88808,1.6553 1.50749,2.16238 0.26728,0.22415 0.40274,0.46221 0.46796,0.8213 0.052,0.27528 0.20189,0.68115 0.33683,0.88322 0.22119,0.35683 0.29371,0.39178 0.84565,0.38378 0.58794,-0.009 0.63628,0.0148 1.29395,0.67732 0.52377,0.53246 0.9599,0.81417 1.84207,1.23343 0.64028,0.29075 1.31639,0.56899 1.50906,0.6142 0.18068,0.0454 0.47021,0.1492 0.63941,0.23076 0.16938,0.0935 0.3744,0.16259 0.44639,0.16154 0.084,-0.001 0.24206,0.14051 0.35266,0.31893 0.19615,0.28518 0.19789,0.40517 0.0803,1.40298 -0.0753,0.60115 -0.12746,1.97005 -0.12398,3.03812 -0.005,1.29621 -0.0431,1.99283 -0.13738,2.11421 -0.0826,0.0972 -0.11616,0.26571 -0.0666,0.373 0.0376,0.10747 -0.0379,0.69663 -0.1732,1.29865 -0.22519,1.02337 -0.23441,1.21552 -0.089,2.13751 0.4243,2.77815 0.76845,9.96191 0.62499,13.31234 -0.0789,2.00536 -0.0845,2.44949 -0.0247,4.92088 0.0129,0.88791 0.0316,2.18377 0.0177,2.88004 -0.002,0.69611 0.0344,1.54767 0.0756,1.90711 0.053,0.34727 0.0487,0.87538 0.005,1.17605 -0.0781,0.40917 -0.0513,0.60081 0.0836,0.80287 0.11025,0.15442 0.2252,0.6328 0.27945,1.06406 0.0704,0.71906 0.0602,0.83922 -0.21076,1.19118 -0.15285,0.21824 -0.39682,0.77383 -0.54603,1.24405 -0.13737,0.45804 -0.41491,1.18213 -0.61297,1.59305 -0.5476,1.13605 -0.40413,1.09797 -6.25482,1.5068 -0.79122,0.0595 -1.66557,0.18016 -1.94015,0.28015 -0.31057,0.10051 -0.71801,0.14242 -1.0305,0.11094 -0.28866,-0.0438 -1.16405,0.005 -1.95492,0.0883 -2.3368,0.23789 -8.16854,0.29841 -14.80732,0.15461 -1.28456,-0.0294 -2.47295,-0.0482 -2.64094,-0.0457 -1.70277,0.0967 -4.03123,0.0824 -4.47692,-0.0311 -0.40935,-0.0901 -0.76931,-0.0849 -1.36785,0.0198 -0.52673,0.0916 -2.66216,0.14659 -6.09432,0.16033 -5.96424,0.0264 -6.20439,0.0179 -7.21559,-0.19545 -0.68602,-0.13407 -0.77001,-0.13285 -1.19883,0.0894 -0.52412,0.27162 -1.47202,0.28536 -5.26693,0.11234 -1.18892,-0.0548 -3.1574,-0.0742 -4.38128,-0.0565 -1.51166,0.0339 -2.50843,-0.0116 -3.1221,-0.12276 -1.20336,-0.22259 -4.03784,-0.37353 -4.56405,-0.24589 -0.22728,0.0513 -0.57524,0.0563 -0.75592,0.011 -0.18067,-0.0454 -2.02917,-0.0666 -4.10496,-0.0365 -2.07595,0.0181 -4.16443,3.5e-4 -4.64525,-0.0527 -1.3103,-0.14903 -9.14547,-0.0355 -9.93513,0.13199 -0.72966,0.1666 -3.75317,0.22242 -7.25871,0.14121 -2.42514,-0.0609 -3.27723,-0.0605 -5.10034,0.0139 -2.39888,0.0948 -8.07619,0.0451 -8.79803,-0.0765 -0.6255,-0.0989 -5.2704,-0.12763 -7.16516,-0.0282 -0.29997,0.004 -0.86408,5.2e-4 -1.26056,-0.0297 -0.39649,-0.0302 -2.17317,-0.0645 -3.96133,-0.0626 -1.77633,-0.0102 -3.56536,-0.0683 -3.96219,-0.12259 -0.39665,-0.0422 -1.45359,-0.0989 -2.34167,-0.0981 -0.88808,8.7e-4 -1.94449,-0.0198 -2.3408,-0.0381 -0.64862,-0.0386 -4.27416,-0.11807 -9.12373,-0.1918 -0.98442,-0.0217 -2.64147,-0.0817 -3.6624,-0.13894 -4.94853,-0.27631 -18.86967,-0.25457 -19.80157,0.035 -0.60933,0.18885 -0.70567,0.16624 -0.84235,-0.15581 -0.1619,-0.4057 -0.77488,-0.46882 -2.70424,-0.27284 -1.84554,0.18277 -20.34691,0.49892 -20.60115,0.34659 -0.0849,-0.0588 -2.88126,-0.0662 -6.21691,-0.0179 -5.603584,0.0692 -6.107879,0.0525 -6.662777,-0.14346 -0.325705,-0.11529 -0.663757,-0.25441 -0.736619,-0.31336 -0.09703,-0.0706 -0.133204,-0.91016 -0.125381,-2.85448 0.0024,-2.31628 -0.0287,-2.80788 -0.189026,-3.10559 -0.09895,-0.20258 -0.187111,-0.48934 -0.189546,-0.65732 -0.0024,-0.16798 -0.08051,-0.58689 -0.181721,-0.94547 -0.113727,-0.39439 -0.158593,-1.0058 -0.143116,-1.59409 0.08677,-2.2935 0.222929,-4.4917 0.331612,-5.27336 0.120161,-0.81783 0.199108,-1.99509 0.237538,-3.48381 0.03513,-0.8886 0.126246,-1.22595 0.40013,-1.37394 0.107119,-0.0616 0.8733,-0.19268 1.688171,-0.27649 0.814871,-0.0838 1.70069,-0.24068 1.963098,-0.35249 0.274579,-0.1 0.776266,-0.26328 1.135187,-0.34049 0.49038,-0.11512 0.72844,-0.25058 0.98772,-0.57837 0.401,-0.48586 0.35961,-0.8573 -0.11443,-1.27048 -0.29179,-0.2598 -0.36378,-0.25875 -3.147316,-0.20641 -1.559837,0.0226 -3.899939,0.0325 -5.184499,0.003 -4.273813,-0.0941 -5.00591,-0.0955 -5.148503,0.003 -0.20224,0.12294 -0.02243,0.93642 0.257539,1.20839 0.133899,0.13008 0.351268,0.22294 0.507251,0.22068 0.419956,-0.006 0.529858,0.12433 0.622718,0.73505 0.05252,0.31127 0.164853,0.60967 0.237541,0.65663 0.08486,0.0588 0.577331,0.0876 1.105275,0.08 1.272041,-0.006 3.36243,0.14328 3.568147,0.26031 0.181721,0.11738 0.204851,3.36939 0.01809,3.73213 -0.07008,0.13303 -0.109032,0.75766 -0.08782,1.39342 0.0092,0.63594 -0.02643,1.48854 -0.104683,1.88572 -0.12103,0.75783 -0.15285,3.53058 -0.04956,4.86123 0.04208,0.41943 0.17094,1.02963 0.295623,1.35185 0.311272,0.77557 0.316142,1.93963 0.06226,5.12364 -0.112508,1.34577 -0.06156,1.54905 0.569507,2.03196 1.080236,0.83643 0.671757,0.80635 9.47883,0.6787 4.65551,-0.0675 9.08392,-0.0716 10.74096,-0.0117 1.54888,0.0496 3.4932,0.0574 4.32059,0.009 0.82722,-0.06 4.03001,-0.16642 7.11334,-0.23511 3.27514,-0.0835 5.72184,-0.19094 5.84078,-0.26468 0.15477,-0.0862 0.37127,-0.0534 0.806,0.13234 0.56777,0.2558 0.67576,0.25423 6.57949,0.19267 3.29965,-0.0478 6.624,-0.048 7.38061,-0.011 0.75644,0.025 2.56965,0.0948 4.02236,0.13372 1.45289,0.051 3.24227,0.13302 3.96324,0.19458 0.73279,0.0494 3.13376,0.0986 5.34187,0.0906 2.20829,0.004 5.07721,0.0464 6.36194,0.0878 4.65882,0.1605 9.88036,0.22883 14.58438,0.19666 2.95187,-0.0308 4.9807,0.0118 5.28171,0.0795 0.53003,0.13633 5.51212,0.24414 9.54404,0.2097 1.41585,-0.0205 4.58387,-0.0424 7.01996,-0.0537 2.92804,-0.0184 4.67934,-0.0798 5.15807,-0.17076 0.47856,-0.10295 1.93006,-0.14799 4.31833,-0.1466 1.98031,0.007 6.81667,-0.003 10.74078,-0.0237 6.91215,-0.0402 7.16429,-0.0318 7.86387,0.21006 0.68741,0.23006 0.90356,0.23893 3.9029,0.17145 3.44311,-0.0859 7.59746,0.0459 8.8968,0.2671 0.25267,0.0443 0.54029,0.0162 0.68323,-0.0579 0.15477,-0.0863 0.35875,-0.0892 0.63594,-0.009 0.55437,0.15999 3.24209,0.12103 4.13956,-0.06 0.47873,-0.0909 0.92251,-0.10938 1.31952,-0.0431 0.361,0.0668 1.38089,0.052 2.62772,-0.0381 1.40281,-0.0923 2.25489,-0.0927 2.72406,-0.0155 0.44517,0.0776 1.26143,0.0897 2.28046,0.0149 2.21803,-0.15216 5.97398,-0.1826 11.25569,-0.10313 8.41494,0.14206 13.83732,-0.009 17.93481,-0.48796 0.59906,-0.0687 1.96605,-0.14851 3.05776,-0.17634 1.28387,-0.0186 2.13491,-0.091 2.40931,-0.20293 0.54916,-0.19998 1.47237,-1.08946 1.78729,-1.71809 0.14016,-0.26605 0.36257,-0.65332 0.51577,-0.84756 0.14103,-0.20606 0.30432,-0.53247 0.34953,-0.72514 0.10156,-0.44552 0.59037,-1.49671 0.83835,-1.77634 0.10607,-0.13355 0.19615,-0.5429 0.21232,-1.08319 0.0377,-0.70862 -0.002,-0.98407 -0.21319,-1.46106 l -0.2725,-0.58411 0.24815,-0.26763 c 0.1299,-0.1459 0.23545,-0.31544 0.23441,-0.38744 -8.7e-4,-0.06 0.10486,-0.21754 0.23511,-0.33944 0.37891,-0.35353 0.28136,-0.46012 -0.34136,-0.36709 -0.40726,0.0539 -0.64758,0.0334 -0.80531,-0.0843 -0.23041,-0.16468 -0.24484,-0.33249 -0.28084,-4.4724 -0.0859,-10.06781 -0.0701,-15.60062 0.0269,-16.35811 0.0654,-0.45699 0.0805,-1.06928 0.0402,-1.36872 -0.0654,-0.37109 -0.044,-0.55142 0.052,-0.55281 0.072,-0.001 0.13007,-0.1339 0.12781,-0.28989 -0.003,-0.19198 0.12642,-0.38587 0.35197,-0.55716 0.20189,-0.14694 0.35561,-0.30518 0.35474,-0.36518 -0.003,-0.20397 -0.39091,-0.47438 -0.67888,-0.47021 -0.39596,0.006 -0.47178,-0.25719 -0.30258,-1.00372 0.0791,-0.33718 0.15737,-1.56244 0.16467,-2.71467 0.0193,-1.1524 0.0452,-2.67693 0.0708,-3.39738 0.0417,-1.26074 0.0534,-1.28491 0.35213,-1.37325 0.16746,-0.0384 0.79192,-0.0115 1.3929,0.0518 1.33464,0.17268 3.93924,0.19493 4.51326,0.0546 0.22728,-0.0513 0.82566,-0.16798 1.31656,-0.2471 0.77818,-0.1313 2.08117,-0.48622 3.88533,-1.04042 0.26293,-0.0758 0.60863,-0.23685 0.77505,-0.34727 0.16642,-0.11042 0.5356,-0.30779 0.83365,-0.44413 0.29823,-0.12433 0.88078,-0.50481 1.30821,-0.82304 0.42726,-0.33023 0.92582,-0.70949 1.11571,-0.85626 0.7241,-0.55055 1.96431,-1.92467 2.01961,-2.24951 0.0781,-0.40917 0.27215,-1.09606 0.39961,-1.40994 0.0461,-0.13268 0.14659,-0.65019 0.22345,-1.14335 0.0649,-0.493 0.1772,-1.02268 0.23494,-1.17953 0.0575,-0.16885 0.0668,-0.36101 -0.007,-0.46795 -0.0496,-0.1073 -0.0656,-0.38309 -0.009,-0.62394 0.0565,-0.24084 0.096,-0.82948 0.089,-1.30943 -0.007,-0.51594 0.0567,-1.05693 0.17285,-1.32264 0.31267,-0.78461 0.29301,-1.31238 -0.10503,-2.27872 -0.21094,-0.47699 -0.3744,-0.99067 -0.37648,-1.13466 -0.016,-0.2758 -0.36745,-1.33882 -0.5516,-1.62418 -0.0734,-0.0949 -0.22989,-0.12868 -0.46917,-0.0772 -0.63402,0.14121 -1.07484,-0.46447 -0.57542,-0.78374 0.32101,-0.20867 0.30797,-0.28049 -0.18137,-0.92147 -0.22032,-0.29683 -0.52725,-0.77244 -0.67523,-1.04632 -0.14816,-0.28588 -0.417,-0.61802 -0.61107,-0.75923 -0.19407,-0.1412 -0.38935,-0.36639 -0.42744,-0.50985 -0.0882,-0.28676 -1.54453,-1.40577 -2.01457,-1.54297 -0.57855,-0.17163 -1.46158,-0.65089 -1.71773,-0.93521 -0.14642,-0.16589 -0.30432,-0.29562 -0.36431,-0.29475 -0.048,7e-4 -0.56707,-0.2078 -1.14666,-0.45143 -1.64244,-0.70827 -2.43644,-0.84078 -4.60752,-0.7613 l -1.84728,0.0628 -0.0908,-0.46673 c -0.0396,-0.25145 -0.0339,-0.68358 0.0341,-0.96059 0.11286,-0.49369 0.12486,-2.97813 0.0207,-6.85302 -0.0476,-1.63148 -0.14886,-6.95858 -0.21477,-10.67801 -0.005,-0.33596 0.023,-0.90043 0.0657,-1.26108 0.0633,-0.60098 0.0501,-0.6848 -0.22954,-0.93278 -0.43787,-0.40169 -1.75981,-0.52655 -3.86985,-0.37595 -0.92304,0.0734 -2.78249,0.12433 -4.1387,0.11999 -1.3562,-0.004 -3.94811,0.0212 -5.75974,0.0595 -3.07133,0.0685 -5.90321,0.0976 -15.11894,0.18312 -2.01578,0.0292 -4.46335,0.0767 -5.45873,0.12712 -1.69095,0.0845 -5.91642,0.0137 -6.5061,-0.0977 -0.1925,-0.0332 -0.27805,-0.13998 -0.28101,-0.34396 -0.0108,-0.74392 -0.54464,-1.144227 -1.69913,-1.307513 -0.54098,-0.06417 -0.96337,-0.226062 -1.08597,-0.404304 -0.0367,-0.04747 -0.0334,-0.647584 0.005,-1.332208 0.0383,-0.672625 0.0946,-1.753555 0.12155,-2.378011 0.027,-0.624457 0.0783,-1.225263 0.10069,-1.3336 0.0346,-0.09651 0.0942,-1.777552 0.13807,-3.722391 0.0438,-1.94484 0.0988,-3.949847 0.12746,-4.454315 0.0937,-1.813549 -0.24711,-2.144645 -1.70452,-1.679475 -0.34657,0.101033 -0.72827,0.262582 -0.85921,0.336487 -0.16642,0.110424 -1.61775,0.167462 -5.21737,0.219634 -2.73571,0.03965 -5.07477,0.121557 -5.19389,0.18329 -0.28605,0.136159 -0.80409,-3.47e-4 -0.80739,-0.228324 -0.004,-0.275971 -0.49665,-1.144922 -0.78792,-1.368725 -0.13372,-0.118074 -0.53247,-0.304315 -0.88199,-0.40726 -0.33753,-0.10312 -0.65194,-0.266581 -0.68915,-0.35005 -0.0374,-0.09547 -0.23041,-0.164678 -0.42239,-0.161896 -0.20398,0.003 -0.67315,-0.07425 -1.0585,-0.164677 -0.7467,-0.181198 -0.99885,-0.189545 -1.53671,-0.03773 z m 1.31778,2.321146 c 0.21859,0.176851 0.5083,0.292665 0.74827,0.289187 0.21598,-0.0031 0.4203,0.01791 0.457,0.06538 0.20676,0.189023 -0.67732,2.122038 -1.07015,2.343755 -0.11894,0.07373 -0.45421,0.126595 -0.75418,0.130943 -0.28797,0.0042 -0.81505,0.07182 -1.17397,0.149029 -0.53837,0.115814 -0.74253,0.106772 -1.10475,-0.04399 -0.57942,-0.231627 -0.58272,-0.459603 0.0261,-1.512536 0.59716,-1.028762 0.85748,-1.284562 1.53828,-1.510452 0.75244,-0.250931 0.93259,-0.24154 1.33342,0.08868 z m -2.25886,33.76829 c 0.0494,0.0953 0.19441,0.1652 0.3024,0.16363 0.23997,-0.003 1.23831,0.97816 1.24178,1.21813 0.003,0.17998 -0.39961,0.58186 -1.10005,1.10806 -0.46309,0.34275 -1.76677,0.64967 -2.05718,0.48587 -0.0847,-0.0468 -0.31597,-0.27145 -0.52342,-0.50847 -0.57316,-0.62776 -0.55786,-1.22805 0.0457,-1.81286 0.79244,-0.80356 1.80798,-1.11831 2.09074,-0.65436 z m 67.23746,7.06633 c 0.31354,0.10346 0.76097,0.337 0.97973,0.52585 0.21876,0.18885 0.46099,0.34136 0.54498,0.34014 0.28797,-0.004 2.54895,1.15118 3.02264,1.54036 0.7168,0.60167 2.28777,2.17507 2.47227,2.48443 0.22137,0.36883 0.23371,0.39266 0.48586,1.22909 0.11373,0.39439 0.27528,0.77609 0.33649,0.85921 0.17094,0.20155 0.61176,3.29148 0.5069,3.50903 -0.0466,0.0967 -0.0655,0.44499 -0.0487,0.78078 0.0287,0.32362 -0.0144,0.66028 -0.0732,0.74514 -0.0588,0.0849 -0.0812,0.1932 -0.0565,0.24085 0.0981,0.14259 -0.17407,1.23865 -0.39578,1.67391 -0.11703,0.20572 -0.17407,0.41056 -0.13773,0.43404 0.0245,0.0357 -0.0796,0.30119 -0.24345,0.59159 -0.15181,0.29023 -0.29006,0.68828 -0.28745,0.86826 0.004,0.27597 -0.0786,0.37317 -0.41247,0.52203 -0.22659,0.0993 -0.41648,0.24606 -0.41544,0.31805 10e-4,0.072 -0.53038,0.66776 -1.16909,1.31308 -1.15936,1.15693 -2.00309,1.73321 -2.80492,1.88885 -0.19146,0.0388 -0.72967,0.16659 -1.19623,0.26936 -1.01658,0.24276 -3.48954,0.1946 -4.11748,-0.0723 -0.21754,-0.10486 -0.91607,-0.27475 -1.56609,-0.40935 -1.39603,-0.2678 -1.60192,-0.39683 -1.30839,-0.84513 0.17581,-0.29057 0.17494,-0.35057 0.002,-0.6721 -0.0988,-0.19059 -0.18607,-0.41735 -0.18711,-0.48934 -0.001,-0.084 -0.0876,-0.25076 -0.19737,-0.36918 -0.1339,-0.13007 -0.22276,-0.46482 -0.25302,-0.89643 -0.0176,-0.38378 -0.10833,-0.85051 -0.18311,-1.04145 -0.0875,-0.23876 -0.10155,-0.38257 -0.007,-0.47995 0.0591,-0.0609 0.11634,-0.25371 0.1139,-0.4217 -0.004,-0.29996 0.32414,-0.82078 1.10371,-1.68417 0.49595,-0.55924 0.84252,-0.66028 0.96808,-0.27806 0.12555,0.38222 0.69714,0.902 1.11918,1.03989 0.21702,0.0689 0.62811,0.27893 0.91904,0.47874 0.48464,0.31701 0.65315,0.35057 2.07074,0.45003 1.26126,0.0777 1.68104,0.0597 2.42287,-0.0951 0.89713,-0.20502 1.89841,-0.67558 2.65816,-1.25065 0.22536,-0.18329 0.42726,-0.33023 0.45108,-0.34258 0.0118,-0.0122 0.0788,-0.36118 0.14485,-0.77018 0.10886,-0.76965 0.12156,-0.72183 -0.54342,-2.71641 -0.43891,-1.30177 -0.88547,-1.47532 -3.77717,-1.43341 -1.84781,0.0268 -2.07543,0.0541 -2.74354,0.3278 -1.3362,0.54742 -2.25767,0.72879 -2.41748,0.46708 -0.1106,-0.17842 0.13494,-1.45411 0.33561,-1.68504 0.0944,-0.10938 0.17512,-0.33857 0.17268,-0.50656 -0.002,-0.16798 0.0772,-0.46916 0.18224,-0.67471 0.20954,-0.44708 0.06,-0.82895 -0.34883,-0.88304 -0.2525,-0.0323 -0.27754,-0.10398 -0.29806,-0.69175 -0.0174,-0.37179 0.0701,-0.96112 0.1845,-1.34681 0.1146,-0.3737 0.18103,-0.75871 0.14347,-0.86617 -0.0376,-0.10747 0.068,-0.27702 0.29353,-0.4483 0.5342,-0.40379 0.88478,-1.05694 0.68949,-1.28213 -0.11007,-0.14242 -0.11077,-0.19042 0.0318,-0.28849 0.28536,-0.18416 2.20603,-0.15199 2.83292,0.0429 z m -5.58202,1.55706 c 0.18503,0.34535 0.15494,0.75383 -0.0682,1.0931 -0.17633,0.25458 -0.19511,0.61489 -0.13651,3.00229 0.0216,1.48784 0.0917,3.01099 0.14503,3.38225 0.0414,0.37144 0.0351,0.76758 -0.0233,0.87643 -0.0704,0.10904 -0.40291,0.35388 -0.76027,0.53908 -0.45264,0.23458 -0.66601,0.41769 -0.69905,0.62219 -0.0336,0.16851 -0.18416,0.54273 -0.31179,0.84461 -0.13964,0.30206 -0.30919,1.02459 -0.37249,1.62557 -0.0635,0.58898 -0.17389,1.25065 -0.23075,1.4675 -0.0802,0.26519 -0.0772,0.46917 0.009,0.62393 0.0739,0.13095 0.13807,0.41805 0.1412,0.63402 0.003,0.22798 0.0546,0.45526 0.11547,0.51438 0.061,0.0711 0.14033,0.57403 0.1725,1.13762 l 0.0508,1.01938 -0.43143,0.0422 c -0.22763,0.0273 -0.67297,-0.0622 -0.99903,-0.20154 -0.31388,-0.12747 -0.6994,-0.22989 -0.86738,-0.22745 -0.15599,0.002 -0.58968,-0.11147 -0.9519,-0.26224 -0.91713,-0.34674 -2.05092,-1.56644 -2.32811,-2.47452 -0.59333,-2.01961 -0.42674,-4.6023 0.41352,-6.24665 0.0935,-0.16937 0.16241,-0.38639 0.1612,-0.47038 -0.001,-0.084 0.0922,-0.26537 0.22223,-0.39926 0.1179,-0.14573 0.41074,-0.64202 0.64394,-1.11345 0.23336,-0.45943 0.5142,-0.95556 0.62028,-1.08911 0.11807,-0.13372 0.3537,-0.43717 0.51803,-0.69158 0.52864,-0.78774 1.05937,-1.4315 2.2295,-2.67259 0.80374,-0.85174 1.2543,-1.2303 1.57688,-1.33099 0.23893,-0.0755 0.50099,-0.21128 0.57159,-0.30832 0.18868,-0.23075 0.44117,-0.19841 0.58898,0.0635 z m 8.81317,8.57317 c 0.46743,0.78531 0.43839,1.26578 -0.13007,1.79008 -0.67489,0.63384 -1.15327,0.74879 -3.0009,0.78757 -1.78781,0.0259 -1.96849,-0.0195 -2.97639,-0.83295 -0.64323,-0.49473 -0.72201,-0.96164 -0.19772,-1.22127 0.66741,-0.3217 2.13734,-0.75105 2.65312,-0.77053 0.29997,-0.004 0.77922,-0.0593 1.07849,-0.11164 0.2991,-0.0643 0.92234,-0.12138 1.40212,-0.14033 l 0.85173,-0.0243 z m -10.97119,10.62412 c -0.0355,0.0365 -0.14328,0.0501 -0.2278,0.0153 -0.0965,-0.0346 -0.061,-0.0711 0.0709,-0.073 0.13181,-0.0139 0.20433,0.021 0.15685,0.0577 z m -57.21186,45.41388 c 0.0609,0.0591 -0.0944,0.10938 -0.39439,0.11373 -0.27598,0.004 -0.50465,-0.0407 -0.50552,-0.10068 -0.004,-0.25198 0.62029,-0.26102 0.89991,-0.013 z m 4.66664,-0.12764 c 0.33788,0.12712 0.22189,0.40483 -0.15007,0.41022 -0.37196,0.005 -0.5662,-0.14781 -0.43717,-0.3537 0.0821,-0.13321 0.3097,-0.16051 0.58724,-0.0565 z" />
  <path
     style="fill:#000000;stroke:none;stroke-width:0.012"
     inkscape:connector-curvature="0"
     id="path12"
     d="m 162.49907,87.376558 c -0.10677,0.08556 -0.3304,0.388829 -0.49455,0.655236 -0.16398,0.278406 -0.80253,0.935729 -1.40698,1.460543 -0.60429,0.536814 -1.23187,1.121971 -1.3969,1.328384 -0.54238,0.66793 -1.24039,1.362119 -1.47845,1.497583 -0.13094,0.0739 -0.3664,0.389351 -0.51769,0.715578 -0.15146,0.314228 -0.52759,0.859736 -0.82252,1.212047 -0.73192,0.838695 -1.42645,1.772858 -1.43637,1.917017 8.7e-4,0.05999 -0.1525,0.242236 -0.34222,0.401002 l -0.33214,0.268842 -0.36431,-0.294752 c -0.2671,-0.212151 -0.50829,-0.292664 -0.88025,-0.287273 -0.27598,0.004 -0.6848,-0.05008 -0.902,-0.130942 -0.28953,-0.103815 -0.46951,-0.101207 -0.6721,-0.0023 -0.34553,0.173025 -0.89469,0.373005 -1.28943,0.462735 -0.16746,0.03843 -0.66619,0.405697 -1.1164,0.808264 -0.45022,0.402567 -1.00807,0.830696 -1.24631,0.954162 -0.25006,0.135638 -0.65193,0.561506 -0.95763,0.997982 -0.64637,0.945464 -1.09954,1.144054 -2.26498,1.052934 -0.43248,-0.0297 -1.45359,-0.099 -2.28237,-0.14694 -0.82861,-0.036 -1.95858,-0.16363 -2.52409,-0.263446 -0.87834,-0.155287 -2.05456,-0.162242 -8.61787,-0.06712 -4.17556,0.06052 -7.64268,0.146776 -7.70215,0.183636 -0.15459,0.0983 -2.46896,0.22781 -5.75592,0.32345 -1.54749,0.0464 -3.51424,0.14695 -4.35311,0.23111 -3.02004,0.2958 -5.45352,0.48709 -7.99603,0.60795 -1.53515,0.0703 -2.96143,0.19893 -3.52363,0.3271 -0.70584,0.15424 -1.65305,0.21597 -3.776822,0.24676 -3.395817,0.0372 -3.132019,0.0214 -3.12941,0.20137 0.001,0.072 -0.09234,0.25336 -0.210413,0.38709 -0.212325,0.2551 -0.482382,1.49515 -0.472122,2.20307 0.003,0.20398 -0.07582,0.56516 -0.168329,0.80653 -0.150593,0.37422 -0.334745,3.4012 -0.242406,3.97592 0.238237,1.53271 0.101732,4.535 -0.236667,5.19998 -0.08138,0.1812 -0.159982,0.55438 -0.155983,0.83035 0.004,0.27597 -0.09668,0.78148 -0.223801,1.11936 -0.127117,0.33788 -0.206413,0.66306 -0.169721,0.71053 0.02487,0.0596 0.004,0.27597 -0.05286,0.49282 -0.170938,0.62654 -0.141374,3.49442 0.04348,3.82777 0.09842,0.16659 0.180503,0.86148 0.217196,1.73704 0.142074,3.17827 0.346402,4.0274 0.958337,4.01853 0.587939,-0.009 0.76531,-1.0192 0.400652,-2.16603 -0.113206,-0.3584 -0.244671,-1.14858 -0.289189,-1.73599 -0.04469,-0.59942 -0.101555,-1.21066 -0.139986,-1.37812 -0.229716,-0.94477 -0.295972,-3.03203 -0.13199,-4.13852 0.29562,-1.96049 0.509683,-2.9237 0.707749,-3.33461 0.116509,-0.24172 0.218064,-0.68723 0.214064,-0.96321 -0.0042,-0.28797 0.07182,-0.84112 0.161895,-1.25047 0.111987,-0.55368 0.129724,-0.98598 0.04678,-1.74086 -0.177374,-1.47359 -0.123991,-4.41466 0.08938,-5.42586 0.415259,-1.98623 0.53316,-2.13195 1.544706,-1.89459 0.349355,0.0909 0.937467,0.0944 1.644697,0.0362 0.61124,-0.0569 1.594263,-0.13112 2.181683,-0.17563 0.59959,-0.0327 1.36629,-0.12782 1.72538,-0.19303 0.3471,-0.065 1.6174,-0.19146 2.81623,-0.28084 1.18701,-0.0772 2.55364,-0.18103 3.00907,-0.22363 3.72797,-0.30606 5.04696,-0.38518 13.39408,-0.78219 0.89956,-0.037 1.69078,-0.0965 1.75008,-0.14538 0.13094,-0.0739 4.71428,-0.15234 10.88251,-0.18173 3.44433,-0.002 5.07703,0.0344 6.18317,0.17441 0.82948,0.096 2.55904,0.19094 3.8556,0.22015 2.3408,0.0381 2.74997,0.11616 2.75554,0.50012 0.017,0.34779 1.49671,1.41846 2.8863,2.07039 1.00303,0.47751 1.02703,0.47716 1.68504,0.33561 0.38275,-0.0896 0.95608,-0.27788 1.27778,-0.43856 0.71506,-0.3464 2.55312,-1.8732 2.75136,-2.27211 0.20972,-0.43509 0.39961,-1.40994 0.42396,-2.214381 0.0351,-0.888602 0.14607,-1.514276 0.31092,-1.732688 0.0708,-0.08503 0.42674,-0.366222 0.79505,-0.623587 0.35631,-0.257191 0.84269,-0.64828 1.07953,-0.867736 0.23667,-0.231454 0.79331,-0.743575 1.23153,-1.145968 0.45021,-0.402566 1.17239,-1.085104 1.59809,-1.523319 1.06475,-1.059542 3.16001,-3.058117 3.64605,-3.473204 0.54533,-0.463952 0.62619,-0.681146 0.47473,-1.195005 -0.0882,-0.286753 -0.24711,-0.48847 -0.48899,-0.616978 -0.30206,-0.139638 -0.36344,-0.234758 -0.30676,-0.463604 0.0793,-0.325183 -0.0301,-0.419608 -0.71679,-0.601675 -0.26519,-0.08017 -0.59055,-0.17146 -0.72323,-0.217542 -0.13251,-0.03408 -0.32396,0.0047 -0.43074,0.09025 z M 151.4519,98.553829 c 0.0894,0.370743 0.57437,0.71175 1.00633,0.70549 0.11998,-0.0017 0.32501,0.0673 0.44638,0.161548 0.20607,0.141028 0.21894,0.200848 0.0788,0.466907 -0.0932,0.193376 -0.13703,0.482036 -0.0854,0.733316 0.0789,0.47891 -0.004,0.57611 -0.6968,0.77818 -0.64515,0.20137 -1.23326,0.19789 -2.26793,0.0209 -0.93851,-0.16642 -1.38525,-0.35196 -1.38855,-0.57994 0.007,-0.31214 0.30935,-1.01259 0.5808,-1.328557 0.20068,-0.230932 0.39127,-0.329705 0.66724,-0.333705 0.53994,-0.0078 0.76635,-0.119118 0.76252,-0.38309 -0.003,-0.215978 0.41144,-0.594025 0.66341,-0.597677 0.084,-0.0012 0.18242,0.165373 0.2332,0.356658 z" />
  <path
     style="fill:#000000;stroke:none;stroke-width:0.012"
     inkscape:connector-curvature="0"
     id="path16"
     d="m 311.60535,106.60171 c -0.0706,0.097 -0.11599,0.27771 -0.10225,0.39753 0.0137,0.11981 -0.0421,0.40865 -0.14677,0.63819 -0.0927,0.22937 -0.23111,0.61541 -0.29979,0.84443 -0.42274,1.47028 -0.6768,2.15804 -0.91156,2.52148 -0.15268,0.23023 -0.26867,0.50795 -0.2671,0.61594 0.002,0.11998 -0.16033,0.53038 -0.35875,0.91729 -0.19823,0.39892 -0.46586,0.97886 -0.59298,1.31674 -0.55507,1.44819 -0.82217,2.06413 -0.96372,2.2342 -0.38935,0.46169 -1.01676,1.88693 -1.0691,2.41575 -0.0525,0.51681 -0.0275,0.58846 0.2391,0.76461 0.16955,0.10555 0.3744,0.16259 0.46987,0.1252 0.17894,-0.0746 0.45925,-0.60672 0.45543,-0.87069 -0.002,-0.14398 0.89069,-2.30515 1.17083,-2.84926 0.0584,-0.10886 0.25528,-0.60377 0.4403,-1.0865 0.30066,-0.78444 1.20804,-2.7658 1.88484,-4.09575 0.11651,-0.24172 0.22033,-0.53125 0.21876,-0.63924 -0.002,-0.10799 0.10225,-0.39752 0.23076,-0.63941 0.72323,-1.43863 0.84652,-2.04048 0.49142,-2.52739 -0.20832,-0.29701 -0.67697,-0.33822 -0.88929,-0.0831 z" />
  <path
     style="fill:#000000;stroke:none;stroke-width:0.012"
     inkscape:connector-curvature="0"
     id="path18"
     d="m 326.63264,106.71995 c -0.0828,0.0852 -0.14086,0.21806 -0.13947,0.31405 0.002,0.16798 -0.45734,0.73871 -1.3089,1.60314 -0.23667,0.23145 -0.45978,0.57072 -0.50516,0.7514 -0.0334,0.1805 -0.37527,0.6055 -0.79001,0.97155 -0.39091,0.3537 -1.03015,0.96303 -1.42072,1.34073 -0.39039,0.3897 -0.9119,0.84131 -1.17344,1.01311 -0.26154,0.17182 -0.47473,0.36693 -0.47386,0.42692 8.7e-4,0.06 -0.22467,0.23128 -0.49856,0.37926 -0.28588,0.14816 -0.83174,0.57612 -1.2223,0.95382 -0.40257,0.37787 -1.05433,0.95138 -1.46941,1.29343 -0.41526,0.33005 -1.05485,0.91538 -1.44524,1.30508 -0.37857,0.37753 -0.8653,0.74462 -1.09223,0.81992 -0.21494,0.0751 -0.59455,0.38065 -0.83018,0.6841 -0.24762,0.30362 -0.50812,0.54742 -0.59211,0.54864 -0.17998,0.003 -1.7779,1.53792 -2.43835,2.33958 -0.34187,0.425 -0.44673,0.64254 -0.39578,0.84582 0.19007,0.69332 0.79974,0.52847 1.68573,-0.44447 1.29952,-1.42298 1.98623,-2.069 4.00167,-3.77839 0.34396,-0.28102 1.26838,-1.0865 2.06221,-1.79408 0.79383,-0.70757 1.62366,-1.41567 1.8372,-1.58679 0.20154,-0.17094 0.68758,-0.58602 1.0785,-0.93973 0.37909,-0.34153 1.22056,-1.0738 1.84884,-1.61096 0.64011,-0.54934 1.58592,-1.53515 2.10448,-2.19073 0.51855,-0.65559 1.18039,-1.36125 1.47723,-1.58158 0.29684,-0.22032 0.58098,-0.48847 0.63941,-0.59733 0.13999,-0.27805 0.11912,-0.88982 -0.0276,-1.07971 -0.15859,-0.17772 -0.72271,-0.18155 -0.9119,0.0132 z" />
  <path
     style="fill:#000000;stroke:none;stroke-width:0.012"
     inkscape:connector-curvature="0"
     id="path20"
     d="m 80.984346,114.55273 c -0.166417,0.11043 -0.308488,1.07259 -0.163286,1.15449 0.04852,0.0353 0.136856,0.33405 0.177547,0.6575 0.04069,0.32344 0.142073,0.69401 0.227977,0.82478 0.208674,0.32101 0.05982,0.81522 -0.262754,0.91591 -0.155462,0.0382 -1.066844,0.0875 -2.038742,0.10155 -1.967794,0.0285 -2.422181,0.14312 -2.331755,0.58586 0.02661,0.17963 -0.01965,0.30031 -0.138942,0.35005 -0.155114,0.0623 -0.130073,0.1339 0.173374,0.36952 0.33979,0.25911 0.472124,0.28119 1.683997,0.26363 0.731923,-0.0106 1.631133,-0.0717 2.014049,-0.14921 0.993635,-0.17042 1.029979,-0.14694 1.044587,0.86095 -0.005,0.48013 0.02887,1.16371 0.04608,1.5235 l 0.05756,0.65923 0.456474,0.0294 c 0.696796,0.0499 0.826174,-0.13199 0.753659,-0.99503 -0.04191,-0.40743 -0.134769,-1.01815 -0.211979,-1.37707 -0.20624,-0.98111 -0.18259,-1.00546 1.78642,-0.94999 l 1.644871,0.0482 0.247452,-0.31562 c 0.141377,-0.18207 0.245887,-0.42361 0.244322,-0.5316 -0.0066,-0.45595 -0.331792,-0.53525 -2.05961,-0.5102 -1.319862,0.0191 -1.692344,-0.0115 -1.838416,-0.15338 -0.243279,-0.22449 -0.371267,-1.60278 -0.210936,-2.13316 0.114944,-0.34971 0.08956,-0.44535 -0.129726,-0.67019 -0.146072,-0.1419 -0.256669,-0.32032 -0.257713,-0.39231 -0.0035,-0.23998 -0.641324,-0.36275 -0.914513,-0.16677 z" />
  <path
     style="fill:#000000;stroke:none;stroke-width:0.012"
     inkscape:connector-curvature="0"
     id="path22"
     d="m 283.73576,113.04228 c -0.15547,0.0383 -0.38222,0.12556 -0.50099,0.21129 -0.19007,0.13476 -0.16486,0.21841 0.31335,0.91955 0.46587,0.67732 1.07468,2.10865 1.08076,2.5286 0.001,0.072 0.16242,0.4417 0.37162,0.7987 0.19719,0.35718 0.37109,0.76271 0.373,0.89469 0.002,0.13199 0.089,0.34675 0.18677,0.46534 0.0979,0.1306 0.18502,0.34536 0.18711,0.48934 0.002,0.14399 0.0645,0.3111 0.14972,0.39387 0.073,0.0709 0.25771,0.39231 0.40622,0.70219 0.85574,1.9078 1.43063,2.65555 2.00657,2.6472 0.40796,-0.006 0.44343,-0.0424 0.54308,-0.61994 0.0662,-0.397 0.029,-0.48047 -0.36049,-0.85886 -0.24345,-0.2365 -0.43908,-0.48569 -0.43995,-0.54568 -10e-4,-0.072 -0.0864,-0.16677 -0.19529,-0.2252 -0.19354,-0.1052 -0.38987,-0.40239 -0.72392,-1.09362 -0.11129,-0.22641 -0.2711,-0.48812 -0.36866,-0.59472 -0.31684,-0.33144 -1.06389,-2.19281 -1.33169,-3.28105 -0.14068,-0.59802 -0.32883,-1.15935 -0.41422,-1.25412 -0.14659,-0.1779 -0.33388,-0.67924 -0.4876,-1.34908 -0.0767,-0.32292 -0.16103,-0.3457 -0.79539,-0.2285 z" />
  <path
     style="fill:#000000;stroke:none;stroke-width:0.012"
     inkscape:connector-curvature="0"
     id="path24"
     d="m 274.01696,120.64793 c -0.16729,0.0504 -0.38031,0.25754 -0.49734,0.46325 -0.19876,0.36292 -0.19859,0.37492 0.0567,0.59925 0.1459,0.12989 0.67871,0.45821 1.19883,0.7387 0.50812,0.28067 1.32038,0.84495 1.81842,1.25778 0.48603,0.413 1.12858,0.85973 1.43063,0.99937 0.30206,0.13964 0.78618,0.42065 1.08928,0.63228 0.30292,0.19963 0.87086,0.46743 1.26839,0.56968 0.3977,0.11425 1.09762,0.38013 1.56888,0.60133 0.57994,0.26762 0.96564,0.38204 1.26526,0.3537 0.40743,-0.0419 0.41926,-0.0541 0.44725,-0.60655 0.028,-0.55246 0.0278,-0.56446 -0.49177,-0.80896 -0.29006,-0.13981 -0.89295,-0.33509 -1.36229,-0.4243 -0.45735,-0.0894 -0.99955,-0.23754 -1.20475,-0.31857 -1.46124,-0.62689 -1.77512,-0.75436 -2.05213,-0.82235 -0.1685,-0.0336 -0.56916,-0.35179 -0.88617,-0.69523 -0.31701,-0.34344 -0.79035,-0.70862 -1.04389,-0.81296 -0.26554,-0.10416 -0.84809,-0.55176 -1.31047,-0.98911 -0.46239,-0.43734 -0.87574,-0.80339 -0.92373,-0.8027 -0.0482,-0.0113 -0.2158,0.0151 -0.37109,0.0654 z" />
  <path
     style="fill:#000000;stroke:none;stroke-width:0.012"
     inkscape:connector-curvature="0"
     id="path26"
     d="m 327.17207,120.75361 c -0.22711,0.0633 -0.52481,0.22363 -0.66689,0.3577 -0.13024,0.1219 -0.28466,0.23215 -0.34465,0.23302 -0.06,8.7e-4 -0.19094,0.0748 -0.28554,0.17216 -0.1066,0.0975 -0.47543,0.31892 -0.82078,0.50395 -0.34536,0.18502 -0.65454,0.38152 -0.68967,0.44204 -0.0351,0.0605 -0.17841,0.11059 -0.3104,0.11251 -0.32397,0.005 -1.31273,0.51107 -2.037,1.04963 -0.32067,0.23267 -0.79714,0.4796 -1.07206,0.55559 -0.27511,0.064 -0.82374,0.29997 -1.21692,0.49769 -0.393,0.20972 -0.7627,0.37109 -0.8107,0.37179 -0.06,8.7e-4 -0.23841,0.11146 -0.40448,0.24589 -0.16607,0.13442 -0.40448,0.24588 -0.51246,0.24745 -0.11999,0.002 -0.7281,0.27458 -1.34717,0.61959 -0.61924,0.33301 -1.23917,0.61802 -1.38315,0.62011 -0.13199,0.002 -0.28693,0.0762 -0.33371,0.16085 -0.0466,0.0967 -0.24849,0.24363 -0.45108,0.34257 -0.429,0.21024 -0.61002,0.96894 -0.30553,1.27656 0.31631,0.29545 0.66254,0.17042 3.18679,-1.21031 1.26196,-0.70236 2.29837,-1.23343 2.35836,-1.2343 0.036,-5.3e-4 0.83452,-0.38414 1.77599,-0.84183 0.92929,-0.46952 1.9424,-0.95225 2.24063,-1.07658 0.29823,-0.12434 0.61976,-0.29702 0.71471,-0.3704 0.40326,-0.32988 2.7997,-1.42072 3.11167,-1.42525 0.43196,-0.006 0.70219,-0.40621 0.69314,-1.03015 -0.0109,-0.75592 -0.22884,-0.88477 -1.0891,-0.62028 z" />
  <path
     style="fill:#000000;stroke:none;stroke-width:0.012"
     inkscape:connector-curvature="0"
     id="path28"
     d="m 87.069284,127.82195 c -1.450978,0.081 -3.033246,0.21198 -3.512152,0.29092 -0.478907,0.079 -1.474106,0.14138 -2.218202,0.14017 -1.440197,-0.003 -7.331578,0.0823 -7.65537,0.099 -0.107815,0.0136 -0.285883,0.14816 -0.391437,0.3177 -0.199457,0.31493 -0.110423,0.66167 0.330053,1.24335 0.122249,0.15425 0.223108,0.48882 0.226586,0.72879 0.0077,0.52795 0.105033,0.62255 0.911905,0.81487 0.337182,0.0791 0.72375,0.25354 0.881821,0.39527 0.267624,0.24814 0.279623,0.24797 1.032587,0.033 0.968246,-0.26606 1.496016,-0.28571 1.691648,-0.0365 0.122596,0.17824 0.266755,0.18815 1.27291,0.0536 0.622891,-0.081 1.929884,-0.15999 2.92578,-0.17442 1.655826,-0.024 1.812157,-0.002 2.067435,0.22206 0.243279,0.2245 0.351442,0.23493 1.202135,0.13859 1.701386,-0.19268 3.18923,-0.21424 4.115741,-0.0476 0.673843,0.12225 1.466281,0.14677 3.001598,0.0885 3.010641,-0.11564 6.93075,-0.41248 7.492608,-0.56464 0.72931,-0.19059 2.84074,-0.2452 4.12721,-0.0838 1.43046,0.15928 3.92655,0.14711 4.42789,-0.0402 0.2984,-0.11233 0.4516,-0.30657 0.76565,-0.9952 0.62811,-1.37724 0.75505,-1.72712 0.83244,-2.18429 0.0784,-0.38518 0.0537,-0.43282 -0.25946,-0.51229 -0.33735,-0.0911 -3.51754,-0.081 -5.56828,0.0207 -0.56377,0.0202 -3.22801,0.0228 -5.940592,0.002 -2.70076,-0.0329 -5.86947,-0.059 -7.021697,-0.0662 -1.152401,-0.0193 -3.287829,0.0356 -4.738807,0.11669 z" />
  <path
     style="fill:#000000;stroke:none;stroke-width:0.012"
     inkscape:connector-curvature="0"
     id="path30"
     d="m 259.87463,131.90606 c -0.0692,0.19303 -0.17477,0.36257 -0.23476,0.36344 -0.17998,0.003 -0.11547,0.31371 0.11546,0.51438 0.17025,0.15355 0.73471,0.18137 3.4473,0.20207 1.78816,-0.002 3.64935,0.0671 4.14234,0.13198 0.49299,0.0649 1.35847,0.16033 1.92328,0.21215 0.56481,0.0518 1.45428,0.14694 1.98327,0.21128 0.52881,0.0523 1.45446,0.15894 2.04326,0.21041 0.60081,0.0513 1.7906,0.16607 2.6439,0.24971 0.86547,0.0955 2.04257,0.16242 2.61851,0.15407 0.9599,-0.0139 1.07954,-0.0397 1.33951,-0.31945 0.31944,-0.31666 0.39439,-0.94181 0.13998,-1.10614 -0.0847,-0.0468 -1.64522,-0.0722 -3.4692,-0.0577 -2.25593,0.0207 -3.39668,-0.0228 -3.57806,-0.11616 -0.15702,-0.0697 -0.46951,-0.10121 -0.76879,-0.0489 -0.28727,0.0522 -1.33238,-0.0167 -2.42635,-0.14486 -2.66894,-0.32135 -3.85838,-0.41212 -6.42785,-0.4949 -1.22474,-0.0422 -2.37818,-0.13354 -2.55921,-0.20293 -0.57924,-0.21963 -0.80635,-0.15633 -0.93259,0.24154 z" />
  <path
     style="fill:#000000;stroke:none;stroke-width:0.012"
     inkscape:connector-curvature="0"
     id="path32"
     d="m 325.9496,131.63247 c -0.75279,0.22693 -1.39829,0.40431 -2.0923,0.54638 -0.2991,0.0643 -0.77749,0.17928 -1.07658,0.24363 -0.29893,0.0763 -0.72949,0.17859 -0.95695,0.21789 -0.22728,0.0513 -0.50186,0.15129 -0.59663,0.23667 -0.0948,0.0854 -0.70358,0.31023 -1.33673,0.51142 -1.08736,0.3278 -1.37255,0.52395 -1.04563,0.72323 0.0725,0.035 0.12416,0.28623 0.12799,0.55021 0.006,0.43195 0.0308,0.4676 0.34275,0.46308 0.17998,-0.003 0.57402,-0.14034 0.87173,-0.30067 0.28571,-0.16016 0.82252,-0.38396 1.18109,-0.48517 1.68504,-0.49247 2.11526,-0.61871 2.50983,-0.72044 0.22728,-0.0513 0.90894,-0.2172 1.4948,-0.36971 0.59785,-0.15268 1.22022,-0.26971 1.4122,-0.27249 0.38396,-0.006 0.65349,-0.45352 0.49229,-0.81122 -0.0617,-0.11912 -0.0878,-0.26275 -0.0767,-0.32292 0.0336,-0.16851 -0.25823,-0.4283 -0.46204,-0.41335 -0.10781,0.0136 -0.45456,0.1026 -0.78913,0.20346 z" />
  <path
     style="fill:#000000;stroke:none;stroke-width:0.012"
     inkscape:connector-curvature="0"
     id="path34"
     d="m 97.986579,135.83657 c -0.585503,0.17651 -1.292907,0.22276 -6.835108,0.3871 -3.17897,0.0941 -5.337526,0.20937 -5.420474,0.28258 -0.189893,0.14677 -0.191283,0.87887 -0.0096,0.99625 0.09669,0.0466 0.02608,0.14363 -0.176329,0.25458 -0.238062,0.13546 -0.308315,0.25649 -0.30362,0.58046 0.0031,0.21598 0.05582,0.53925 0.130248,0.70618 0.112162,0.28641 0.160331,0.29771 1.288735,0.31736 l 1.176398,0.019 0.0059,0.40795 c 0.0054,0.37196 0.05425,0.43126 0.427607,0.52186 0.445519,0.10155 0.649323,0.0866 2.564774,-0.24119 0.658366,-0.11756 1.78503,-0.2179 2.504954,-0.22833 0.743922,-0.0108 1.618787,-0.0955 1.989356,-0.19685 0.872778,-0.22867 2.285499,-0.46517 2.885436,-0.47387 0.251974,-0.004 0.503078,-0.0673 0.538204,-0.12781 0.04695,-0.0727 0.391785,-0.29371 0.760964,-0.49108 0.381177,-0.19754 0.725666,-0.44256 0.772096,-0.55125 0.12676,-0.36187 0.0577,-0.98494 -0.12451,-1.13831 -0.13356,-0.10608 -0.171812,-0.26154 -0.1273,-0.50221 0.056,-0.27684 0.0309,-0.34848 -0.210408,-0.441 -0.446214,-0.14955 -1.442979,-0.1951 -1.837373,-0.0814 z" />
  <path
     style="fill:#000000;stroke:none;stroke-width:0.012"
     inkscape:connector-curvature="0"
     id="path36"
     d="m 317.8635,139.27446 c -0.71453,0.38239 -0.75001,0.41891 -0.57594,0.83643 l 0.17355,0.38152 3.46763,-0.0503 c 2.86788,-0.0296 3.61232,-0.004 4.31068,0.15354 0.46969,0.11321 1.2277,0.24624 1.68452,0.29962 0.46882,0.0532 1.16631,0.15111 1.56331,0.21737 0.39718,0.0782 0.99816,0.14155 1.33447,0.16068 0.34831,0.0189 0.9133,0.0828 1.26231,0.14972 0.36083,0.0548 1.08266,0.17633 1.61165,0.24067 0.52916,0.0763 1.05867,0.17667 1.16753,0.2351 0.12086,0.0583 0.90182,0.11895 1.74208,0.13077 0.85243,0.0237 1.8132,0.0697 2.13769,0.10103 0.46882,0.0532 0.64845,0.0266 0.75435,-0.11894 0.17686,-0.21859 0.0699,-0.97312 -0.1605,-1.1378 -0.0729,-0.0589 -0.75697,-0.061 -1.51236,-0.0141 -1.52263,0.10608 -1.95528,0.0643 -3.54468,-0.29666 -1.11988,-0.2598 -2.97081,-0.449 -4.44701,-0.4516 -0.45612,-0.005 -0.90077,-0.047 -0.98563,-0.10573 -0.25424,-0.15233 -3.21549,-0.76948 -4.18913,-0.87538 -1.17761,-0.10295 -5.52064,-0.004 -5.79452,0.14399 z m 13.97992,1.54956 c -0.0351,0.0605 -0.14224,0.12207 -0.23823,0.12347 -0.096,0.001 -0.20485,-0.057 -0.24172,-0.11651 -0.049,-0.0713 0.0583,-0.12086 0.23824,-0.12347 0.17998,-0.003 0.28867,0.0438 0.24171,0.11651 z" />
  <path
     style="fill:#000000;stroke:none;stroke-width:0.012"
     inkscape:connector-curvature="0"
     id="path38"
     d="m 76.868978,144.43551 c -0.142767,0.0861 -0.391958,0.28171 -0.55768,0.44013 -0.296142,0.26832 -0.307619,0.30449 -0.135811,0.56603 0.183807,0.26136 0.171982,0.27354 -0.210412,0.38709 -0.298752,0.0883 -0.381525,0.17355 -0.355093,0.34118 0.143811,0.814 0.257887,1.23239 0.418392,1.5421 0.173026,0.34553 0.197197,0.35718 1.374465,0.43613 1.813896,0.11772 5.773828,0.0843 9.059918,-0.0713 1.61896,-0.0835 6.633912,-0.19216 11.157437,-0.25772 8.051326,-0.10469 12.920896,-0.30728 13.553006,-0.58047 0.16694,-0.0744 0.6335,-0.1772 1.05276,-0.23128 1.00599,-0.1466 1.12441,-0.25632 1.06442,-1.08354 l -0.0457,-0.67141 -0.5062,-0.14868 c -0.47023,-0.1492 -0.51892,-0.1965 -0.52413,-0.55646 -0.0108,-0.74392 -0.0708,-0.74305 -2.7651,-0.33197 -0.75436,0.11895 -2.27715,0.21303 -3.83699,0.23564 -1.41568,0.0325 -2.77084,0.10016 -2.99777,0.17546 -0.39422,0.12572 -8.780818,0.28328 -15.777301,0.30068 -3.240181,0.011 -6.711469,-0.19076 -8.50415,-0.50081 -1.106841,-0.18798 -1.154836,-0.18729 -1.464021,0.009 z" />
  <path
     style="fill:#000000;stroke:none;stroke-width:0.012"
     inkscape:connector-curvature="0"
     id="path40"
     d="m 280.37005,141.65406 c -0.13147,0.0379 -0.7168,0.22642 -1.31395,0.42709 -0.58516,0.2005 -1.55392,0.43057 -2.15282,0.51125 -0.58689,0.0805 -1.40055,0.24833 -1.79477,0.37405 -0.39439,0.11373 -1.03989,0.2911 -1.4348,0.36883 -0.39474,0.0897 -0.90895,0.2172 -1.14805,0.28067 -0.23911,0.0635 -0.68237,0.1179 -0.99433,0.12242 -0.38396,0.006 -0.57507,0.0684 -0.62133,0.18903 -0.0463,0.12068 -0.23737,0.18346 -0.53734,0.18781 -0.32396,0.005 -0.46725,0.0548 -0.46551,0.17476 10e-4,0.096 0.0511,0.21528 0.12364,0.25023 0.0605,0.0351 0.0873,0.22676 0.0421,0.41944 -0.055,0.34883 -0.0548,0.36083 0.42517,0.35387 0.27597,-0.004 0.76636,-0.11911 1.10041,-0.25597 0.33405,-0.13685 0.77644,-0.25128 0.99242,-0.25441 0.21597,-0.003 0.45508,-0.0666 0.52603,-0.13964 0.1892,-0.19476 2.10326,-0.61854 3.92376,-0.87295 0.5269,-0.0796 1.36438,-0.2598 1.85441,-0.39892 0.49004,-0.13911 1.01642,-0.25475 1.1724,-0.25702 0.44395,-0.006 0.97903,-0.35022 0.97503,-0.62619 -0.002,-0.13199 0.055,-0.34883 0.1132,-0.46969 0.0934,-0.18137 0.0683,-0.25302 -0.1132,-0.3584 -0.25389,-0.12833 -0.28988,-0.12781 -0.67245,-0.0263 z" />
  <path
     style="fill:#000000;stroke:none;stroke-width:0.012"
     inkscape:connector-curvature="0"
     id="path42"
     d="m 315.48063,146.26972 c -0.45109,0.34258 -0.32032,1.08476 0.23528,1.32873 0.21719,0.0809 0.51959,0.2445 0.68897,0.33805 0.2904,0.16381 0.6528,0.32658 2.76632,1.24404 0.49525,0.22085 1.34107,0.61663 1.87319,0.89695 2.39401,1.22544 3.49285,1.68956 3.68292,1.55479 0.20224,-0.12294 0.21441,-0.9392 0.0197,-1.1284 -0.0487,-0.0473 -0.57977,-0.25563 -1.18266,-0.45091 -0.59089,-0.19546 -1.15849,-0.43926 -1.25622,-0.55785 -0.0976,-0.1066 -0.40048,-0.30623 -0.66636,-0.43439 -0.26589,-0.12816 -0.61663,-0.3151 -0.78601,-0.40865 -0.16954,-0.10556 -0.82339,-0.50412 -1.45306,-0.89104 -1.25917,-0.76183 -3.15654,-1.67043 -3.49251,-1.66556 -0.10798,0.002 -0.31092,0.0765 -0.42951,0.17424 z" />
  <path
     style="fill:#000000;stroke:none;stroke-width:0.012"
     inkscape:connector-curvature="0"
     id="path44"
     d="m 90.547722,151.70204 c -0.837999,0.14416 -1.124577,0.24433 -1.373073,0.48795 -0.213021,0.20711 -0.45143,0.31858 -0.715402,0.3224 -0.215978,0.003 -0.586721,0.0925 -0.813132,0.20381 -0.393176,0.19772 -0.404827,0.22189 -0.325878,0.7008 0.05199,0.27527 0.139811,0.53803 0.200675,0.59715 0.06086,0.0591 0.434041,0.13773 0.842346,0.15581 0.62463,0.0389 0.745313,0.0852 0.832609,0.31197 0.06225,0.15511 0.160505,0.3097 0.22102,0.34483 0.145202,0.0819 1.717385,0.0831 5.544461,-0.008 2.099432,-0.0544 3.335824,-0.0363 3.925327,0.0631 1.106841,0.18798 1.332905,0.0527 1.879805,-1.13136 0.43039,-0.94234 0.40065,-1.33795 -0.10539,-1.47463 -0.15667,-0.0457 -0.41091,-0.19807 -0.58115,-0.35162 -0.17007,-0.14155 -0.436304,-0.2937 -0.604981,-0.33926 -0.168505,-0.0336 -2.005181,-0.067 -4.081311,-0.0609 -2.772231,0.004 -4.067747,0.047 -4.845926,0.17824 z" />
  <path
     style="fill:#000000;stroke:none;stroke-width:0.012"
     inkscape:connector-curvature="0"
     id="path46"
     d="m 285.59264,149.24718 c -0.26085,0.2198 -0.36588,0.42534 -0.36223,0.67732 0.003,0.22797 -0.1132,0.46969 -0.32622,0.67679 -1.02946,1.01103 -1.58644,1.49915 -2.37071,2.03858 -0.85539,0.60045 -0.85521,0.61245 -0.81226,1.09188 0.0689,0.61107 0.3577,0.66689 1.21587,0.25841 0.81053,-0.38379 3.10559,-2.67329 3.2181,-3.19097 0.045,-0.20468 0.17267,-0.50656 0.2904,-0.66428 0.28275,-0.36414 0.27858,-0.65211 0.0113,-0.87626 -0.40082,-0.33022 -0.49681,-0.32883 -0.86425,-0.0115 z" />
  <path
     style="fill:#000000;stroke:none;stroke-width:0.012"
     inkscape:connector-curvature="0"
     id="path48"
     d="m 306.4661,150.30079 c -0.27284,0.21997 -0.27267,0.23197 -0.0398,0.56463 0.14728,0.22589 0.21163,0.52499 0.20537,0.92112 -0.005,0.49212 0.0576,0.65924 0.36326,1.05085 0.20763,0.24902 0.5236,0.52047 0.6928,0.60202 0.1692,0.0816 0.35144,0.23493 0.40083,0.33023 0.0494,0.0953 0.17285,0.33353 0.28379,0.53594 0.24624,0.42848 0.33284,0.60724 1.06372,2.18081 0.30988,0.67959 0.65472,1.28665 0.77557,1.34491 0.25389,0.12833 0.57368,-0.16433 0.56846,-0.5243 -0.005,-0.33596 -0.35631,-1.39898 -0.60272,-1.83946 -0.11094,-0.20241 -0.38204,-0.69053 -0.60376,-1.08336 -0.20954,-0.381 -0.46726,-0.77331 -0.57646,-0.85574 -0.0972,-0.0826 -0.14729,-0.22588 -0.11251,-0.3104 0.0346,-0.0965 -0.053,-0.34727 -0.18816,-0.56133 -0.13511,-0.21406 -0.28362,-0.52394 -0.33405,-0.69123 -0.0504,-0.16729 -0.22276,-0.46482 -0.38187,-0.67854 -0.15894,-0.20172 -0.29545,-0.51177 -0.29788,-0.67975 -0.008,-0.53995 -0.73054,-0.72149 -1.21657,-0.3064 z" />
  <path
     style="fill:#000000;stroke:none;stroke-width:0.012"
     inkscape:connector-curvature="0"
     id="path50"
     d="m 300.24536,151.67508 c -0.0942,0.12138 -0.15963,0.57838 -0.16207,1.23848 -0.0134,0.73227 -0.0786,1.20127 -0.25267,1.61183 -0.28988,0.70028 -0.30275,2.29663 -0.0329,5.18502 0.17059,1.83372 0.19511,2.69746 0.14886,4.47431 -0.0235,0.86444 0.003,1.03207 0.19685,1.16127 0.4123,0.29406 0.70862,0.0377 0.90043,-0.80513 0.1019,-0.42152 0.2511,-0.89173 0.321,-1.03676 0.24537,-0.4596 0.16746,-0.86652 -0.17041,-0.99364 -0.16885,-0.0575 -0.33858,-0.17511 -0.36379,-0.25875 -0.11234,-0.2984 -0.20172,-1.49723 -0.29528,-3.81212 -0.0929,-2.26689 -0.0351,-3.25183 0.23823,-4.2639 0.0802,-0.26519 0.18033,-0.8067 0.22259,-1.20335 0.0543,-0.39683 0.13198,-0.83 0.16589,-0.97451 0.0574,-0.18085 -0.004,-0.27597 -0.24554,-0.38048 -0.41074,-0.18607 -0.48255,-0.17303 -0.67123,0.0577 z" />
  <path
     style="fill:#000000;stroke:none;stroke-width:0.012"
     inkscape:connector-curvature="0"
     id="path52"
     d="m 77.997221,160.17682 c -0.161895,0.42239 -0.161895,0.42239 0.267278,1.05223 0.294056,0.41579 0.369353,0.64272 0.32501,0.89539 -0.05634,0.25284 0.0059,0.40795 0.200501,0.58515 0.230932,0.20068 0.507599,0.24467 2.188466,0.29232 1.056585,0.0327 3.948977,0.0388 6.420891,0.0149 4.31972,-0.0506 4.523873,-0.0416 4.983303,0.1918 0.45943,0.23337 0.627586,0.24293 3.362777,0.16728 2.663025,-0.0866 4.283723,-0.0501 8.583793,0.19963 2.37819,0.13355 5.37926,0.18606 5.72583,0.085 0.16746,-0.0384 0.46448,-0.24676 0.64167,-0.44135 0.2598,-0.29179 0.48639,-0.39109 0.96529,-0.47004 0.91017,-0.1332 1.36161,-0.45178 1.44995,-0.98111 0.0546,-0.37283 0.0172,-0.4683 -0.29858,-0.72775 -0.20642,-0.16503 -0.36519,-0.35475 -0.37806,-0.41457 -10e-4,-0.072 -0.19546,-0.23719 -0.43769,-0.38969 -0.3511,-0.21094 -0.4956,-0.24485 -0.68619,-0.14608 -0.59576,0.29667 -2.69467,0.3871 -8.228,0.33528 -1.41638,-0.0155 -2.6519,0.0264 -2.92683,0.10243 -0.298921,0.0763 -0.562894,0.0802 -0.780088,-7e-4 -0.313706,-0.11546 -3.135323,-0.20658 -6.675995,-0.22727 -0.984071,0.002 -2.256633,-0.0273 -2.821095,-0.0551 -1.309254,-0.077 -3.566234,-0.12834 -6.362984,-0.15981 -1.224219,-0.006 -2.569296,-0.0708 -3.00212,-0.1245 -0.432998,-0.0657 -1.141793,-0.11547 -1.597745,-0.10886 -0.755921,0.011 -0.815567,0.0358 -0.919382,0.32536 z" />
  <path
     style="fill:#000000;stroke:none;stroke-width:0.012"
     inkscape:connector-curvature="0"
     id="path54"
     d="m 78.811409,174.12248 c -0.273884,0.14799 -0.450735,0.36657 -0.554028,0.6921 -0.252669,0.78375 -0.131986,0.83 2.159948,0.80879 1.260041,-0.006 2.25698,0.0513 2.846657,0.16276 0.493514,0.10086 1.298647,0.1732 1.778596,0.16624 0.791917,-0.0115 0.887559,-0.0369 1.159183,-0.34083 0.165373,-0.18242 0.293707,-0.43631 0.291621,-0.58029 -0.007,-0.47995 -0.296318,-0.57177 -1.880499,-0.57281 -0.816088,-1.7e-4 -1.873369,-0.0809 -2.354709,-0.16989 -2.407052,-0.46917 -2.851528,-0.49873 -3.446769,-0.16607 z" />
</svg>
